<mxfile host="app.diagrams.net" modified="2023-06-18T14:33:03.233Z" agent="Mozilla/5.0 (Macintosh; Intel Mac OS X 10_15_7) AppleWebKit/605.1.15 (KHTML, like Gecko) Version/16.4 Safari/605.1.15" etag="VoNDAPW8lK58lJwbm7s0" version="21.5.0" type="device">
  <diagram name="Page-1" id="11-zjs6EYi8BLVkxDJ91">
    <mxGraphModel dx="767" dy="501" grid="1" gridSize="10" guides="1" tooltips="1" connect="1" arrows="1" fold="1" page="1" pageScale="1" pageWidth="827" pageHeight="1169" math="0" shadow="0">
      <root>
        <mxCell id="0" />
        <mxCell id="1" parent="0" />
        <mxCell id="FpbQsyOUVCays7RUPi0c-17" value="" style="rounded=1;whiteSpace=wrap;html=1;fillColor=none;dashed=1;" parent="1" vertex="1">
          <mxGeometry x="480" y="40" width="285" height="290" as="geometry" />
        </mxCell>
        <mxCell id="FpbQsyOUVCays7RUPi0c-19" value="" style="rounded=1;whiteSpace=wrap;html=1;fillColor=none;dashed=1;" parent="1" vertex="1">
          <mxGeometry x="200" y="20" width="590" height="330" as="geometry" />
        </mxCell>
        <mxCell id="FpbQsyOUVCays7RUPi0c-1" value="&lt;span style=&quot;white-space: pre;&quot;&gt;&#x9;&lt;/span&gt;Kubernetes &lt;br&gt;&lt;span style=&quot;white-space: pre;&quot;&gt;&#x9;&lt;/span&gt;API Server" style="rounded=0;whiteSpace=wrap;html=1;" parent="1" vertex="1">
          <mxGeometry x="260" y="83" width="120" height="60" as="geometry" />
        </mxCell>
        <mxCell id="FpbQsyOUVCays7RUPi0c-23" style="edgeStyle=orthogonalEdgeStyle;rounded=0;orthogonalLoop=1;jettySize=auto;html=1;entryX=0;entryY=0.5;entryDx=0;entryDy=0;" parent="1" source="FpbQsyOUVCays7RUPi0c-2" target="FpbQsyOUVCays7RUPi0c-4" edge="1">
          <mxGeometry relative="1" as="geometry">
            <Array as="points">
              <mxPoint x="410" y="220" />
              <mxPoint x="410" y="175" />
            </Array>
          </mxGeometry>
        </mxCell>
        <mxCell id="FpbQsyOUVCays7RUPi0c-28" value="invoke&lt;br&gt;function" style="edgeLabel;html=1;align=center;verticalAlign=middle;resizable=0;points=[];" parent="FpbQsyOUVCays7RUPi0c-23" vertex="1" connectable="0">
          <mxGeometry x="0.2108" y="-1" relative="1" as="geometry">
            <mxPoint as="offset" />
          </mxGeometry>
        </mxCell>
        <mxCell id="FpbQsyOUVCays7RUPi0c-2" value="&lt;span style=&quot;white-space: pre;&quot;&gt;&#x9;&lt;/span&gt;Kourier &lt;br&gt;&lt;span style=&quot;white-space: pre;&quot;&gt;&#x9;&lt;/span&gt;Ingress &lt;br&gt;&lt;span style=&quot;white-space: pre;&quot;&gt;&#x9;&lt;/span&gt;Service" style="rounded=0;whiteSpace=wrap;html=1;align=center;" parent="1" vertex="1">
          <mxGeometry x="260" y="190" width="120" height="60" as="geometry" />
        </mxCell>
        <mxCell id="FpbQsyOUVCays7RUPi0c-15" style="edgeStyle=orthogonalEdgeStyle;rounded=0;orthogonalLoop=1;jettySize=auto;html=1;exitX=0.5;exitY=1;exitDx=0;exitDy=0;entryX=0.5;entryY=0;entryDx=0;entryDy=0;" parent="1" source="FpbQsyOUVCays7RUPi0c-3" target="FpbQsyOUVCays7RUPi0c-4" edge="1">
          <mxGeometry relative="1" as="geometry" />
        </mxCell>
        <mxCell id="FpbQsyOUVCays7RUPi0c-16" style="edgeStyle=orthogonalEdgeStyle;rounded=0;orthogonalLoop=1;jettySize=auto;html=1;exitX=0.5;exitY=1;exitDx=0;exitDy=0;entryX=0.5;entryY=0;entryDx=0;entryDy=0;" parent="1" source="FpbQsyOUVCays7RUPi0c-3" target="FpbQsyOUVCays7RUPi0c-8" edge="1">
          <mxGeometry relative="1" as="geometry" />
        </mxCell>
        <mxCell id="FpbQsyOUVCays7RUPi0c-3" value="Function" style="rounded=0;whiteSpace=wrap;html=1;" parent="1" vertex="1">
          <mxGeometry x="520" y="90" width="160" height="30" as="geometry" />
        </mxCell>
        <mxCell id="FpbQsyOUVCays7RUPi0c-14" style="edgeStyle=orthogonalEdgeStyle;rounded=0;orthogonalLoop=1;jettySize=auto;html=1;exitX=0.5;exitY=1;exitDx=0;exitDy=0;entryX=0;entryY=0.5;entryDx=0;entryDy=0;" parent="1" source="FpbQsyOUVCays7RUPi0c-4" target="FpbQsyOUVCays7RUPi0c-5" edge="1">
          <mxGeometry relative="1" as="geometry" />
        </mxCell>
        <mxCell id="FpbQsyOUVCays7RUPi0c-4" value="Route" style="rounded=0;whiteSpace=wrap;html=1;" parent="1" vertex="1">
          <mxGeometry x="520" y="160" width="70" height="30" as="geometry" />
        </mxCell>
        <mxCell id="FpbQsyOUVCays7RUPi0c-5" value="Revision 0" style="rounded=0;whiteSpace=wrap;html=1;" parent="1" vertex="1">
          <mxGeometry x="620" y="200" width="70" height="30" as="geometry" />
        </mxCell>
        <mxCell id="FpbQsyOUVCays7RUPi0c-6" value="Revision 1" style="rounded=0;whiteSpace=wrap;html=1;" parent="1" vertex="1">
          <mxGeometry x="620" y="240" width="70" height="30" as="geometry" />
        </mxCell>
        <mxCell id="FpbQsyOUVCays7RUPi0c-7" value="Revision N" style="rounded=0;whiteSpace=wrap;html=1;" parent="1" vertex="1">
          <mxGeometry x="620" y="280" width="70" height="30" as="geometry" />
        </mxCell>
        <mxCell id="FpbQsyOUVCays7RUPi0c-9" style="edgeStyle=orthogonalEdgeStyle;rounded=0;orthogonalLoop=1;jettySize=auto;html=1;exitX=0.75;exitY=1;exitDx=0;exitDy=0;entryX=1;entryY=0.5;entryDx=0;entryDy=0;" parent="1" source="FpbQsyOUVCays7RUPi0c-8" target="FpbQsyOUVCays7RUPi0c-7" edge="1">
          <mxGeometry relative="1" as="geometry" />
        </mxCell>
        <mxCell id="FpbQsyOUVCays7RUPi0c-11" style="edgeStyle=orthogonalEdgeStyle;rounded=0;orthogonalLoop=1;jettySize=auto;html=1;exitX=0.75;exitY=1;exitDx=0;exitDy=0;entryX=1;entryY=0.5;entryDx=0;entryDy=0;" parent="1" source="FpbQsyOUVCays7RUPi0c-8" target="FpbQsyOUVCays7RUPi0c-5" edge="1">
          <mxGeometry relative="1" as="geometry">
            <Array as="points">
              <mxPoint x="710" y="215" />
            </Array>
          </mxGeometry>
        </mxCell>
        <mxCell id="FpbQsyOUVCays7RUPi0c-12" style="edgeStyle=orthogonalEdgeStyle;rounded=0;orthogonalLoop=1;jettySize=auto;html=1;exitX=0.75;exitY=1;exitDx=0;exitDy=0;entryX=1;entryY=0.5;entryDx=0;entryDy=0;" parent="1" source="FpbQsyOUVCays7RUPi0c-8" target="FpbQsyOUVCays7RUPi0c-6" edge="1">
          <mxGeometry relative="1" as="geometry" />
        </mxCell>
        <mxCell id="FpbQsyOUVCays7RUPi0c-8" value="Configuration" style="rounded=0;whiteSpace=wrap;html=1;" parent="1" vertex="1">
          <mxGeometry x="620" y="160" width="120" height="30" as="geometry" />
        </mxCell>
        <mxCell id="FpbQsyOUVCays7RUPi0c-18" value="Knative Function" style="text;html=1;strokeColor=none;fillColor=none;align=center;verticalAlign=middle;whiteSpace=wrap;rounded=0;" parent="1" vertex="1">
          <mxGeometry x="542.12" y="45" width="100" height="20" as="geometry" />
        </mxCell>
        <mxCell id="FpbQsyOUVCays7RUPi0c-20" value="" style="endArrow=classic;html=1;rounded=0;entryX=0;entryY=0.25;entryDx=0;entryDy=0;exitX=1;exitY=0.5;exitDx=0;exitDy=0;" parent="1" source="FpbQsyOUVCays7RUPi0c-1" target="FpbQsyOUVCays7RUPi0c-17" edge="1">
          <mxGeometry width="50" height="50" relative="1" as="geometry">
            <mxPoint x="330" y="230" as="sourcePoint" />
            <mxPoint x="380" y="180" as="targetPoint" />
          </mxGeometry>
        </mxCell>
        <mxCell id="FpbQsyOUVCays7RUPi0c-21" value="manage&amp;nbsp;&lt;br&gt;function" style="edgeLabel;html=1;align=center;verticalAlign=middle;resizable=0;points=[];" parent="FpbQsyOUVCays7RUPi0c-20" vertex="1" connectable="0">
          <mxGeometry x="-0.0599" y="1" relative="1" as="geometry">
            <mxPoint as="offset" />
          </mxGeometry>
        </mxCell>
        <mxCell id="FpbQsyOUVCays7RUPi0c-24" value="" style="endArrow=classic;html=1;rounded=0;entryX=0;entryY=0.5;entryDx=0;entryDy=0;" parent="1" target="FpbQsyOUVCays7RUPi0c-1" edge="1">
          <mxGeometry width="50" height="50" relative="1" as="geometry">
            <mxPoint x="90" y="113" as="sourcePoint" />
            <mxPoint x="440" y="200" as="targetPoint" />
          </mxGeometry>
        </mxCell>
        <mxCell id="FpbQsyOUVCays7RUPi0c-25" value="manage&amp;nbsp;&lt;br&gt;functions" style="edgeLabel;html=1;align=center;verticalAlign=middle;resizable=0;points=[];" parent="FpbQsyOUVCays7RUPi0c-24" vertex="1" connectable="0">
          <mxGeometry x="-0.4588" y="2" relative="1" as="geometry">
            <mxPoint as="offset" />
          </mxGeometry>
        </mxCell>
        <mxCell id="FpbQsyOUVCays7RUPi0c-26" value="" style="endArrow=classic;html=1;rounded=0;entryX=0;entryY=0.5;entryDx=0;entryDy=0;" parent="1" target="FpbQsyOUVCays7RUPi0c-2" edge="1">
          <mxGeometry width="50" height="50" relative="1" as="geometry">
            <mxPoint x="90" y="220" as="sourcePoint" />
            <mxPoint x="440" y="200" as="targetPoint" />
          </mxGeometry>
        </mxCell>
        <mxCell id="FpbQsyOUVCays7RUPi0c-27" value="invoke&lt;br&gt;functions" style="edgeLabel;html=1;align=center;verticalAlign=middle;resizable=0;points=[];" parent="FpbQsyOUVCays7RUPi0c-26" vertex="1" connectable="0">
          <mxGeometry x="-0.3529" y="2" relative="1" as="geometry">
            <mxPoint as="offset" />
          </mxGeometry>
        </mxCell>
        <mxCell id="FpbQsyOUVCays7RUPi0c-29" value="&lt;b&gt;Kubernetes&lt;/b&gt;" style="text;html=1;strokeColor=none;fillColor=none;align=left;verticalAlign=middle;whiteSpace=wrap;rounded=0;" parent="1" vertex="1">
          <mxGeometry x="271" y="29" width="83.18" height="18" as="geometry" />
        </mxCell>
        <mxCell id="I2gfO7rlxJFu91sXPex--1" value="" style="shape=image;verticalLabelPosition=bottom;labelBackgroundColor=default;verticalAlign=top;aspect=fixed;imageAspect=0;image=data:image/png,iVBORw0KGgoAAAANSUhEUgAAAOQAAADdCAMAAACc/C7aAAAAilBMVEUybOX///8tauUlZuQqaOQjZeQfY+QZYeQOXuNUgOhWgugMXeMXYOPy9f38/f/b4/no7fuZsPCCn+2tv/LH0/bM1/dskOqyw/O6yfT2+P7s8Px4mOza4vm/zfVAdOads/ClufGSq+9fh+mKpe5Keud8m+xukesAWeM6ceaMp+5dhukAUuIAVeJIeOdBQz5tAAATmUlEQVR4nO1daXusLBI1Cmi39r6n9yVJ587k//+96U2loEAKNXeembe+3RsbOQLFoTaCt/8DCf52B35D/gHZuLwvz/NOZ/697P3qa38T5LSbCsbCkEUiPc1+8cW/B3K5i1lQCEsu01979W+BXAQiDICE8XX5Sy//HZCHSAS6hCKY/MrrfwFkfy84AvEhIjr02+9B6yB7x8wI8S5cjFZt96FlkO/nNLJBfMDMvlveUVoFOVynrAriXaJ0/N5mP1oEOZhXj2IJcz1sryetgZydEqdRzIWl801bfWkJ5LSTkSA+YCbdlmhQKyC3P3SIT5jt0KAWQC6ucVgNCJcw3rVAgxoHOQn9IT5gimDRdJ+aBdnfc+vO7yaCHRrtVaMgVyM7uXEXLvZNsr3mQPbOifO26AAzOzZHg5oCOfxw3/ndpEEa1AzIwWfTEO/CmqJBTYDcnNwoqg/M+aCBDtYHOevS+BsRZvKnPg2qC3J68SM3BJhZbRpUD+SyBrlxlzDbbf8ayIlmnGoNZj0a5A2yjxunWhPB/I1eniBXI7Nxqi3xp0FeIHvfiTdEEcfev73RIC+jlwfI97H/zs/CyWBwYN4KOUrPHjSIDHK4rkFu2OUx4VY7f4XF0g8yDSKC3MxrkZv4RbrfkxqNROknkQaRQM7+1CM37Jy3tK7XTnoiGb0IIKeduvxNFHv6oqZuZlmHwPacQW53We2dXxQd29beY1n240yDHEHqnrd6IKdx/dbC+OpIg5xAHlgz5EYUTHvZSINh7EaDqkHaPG9E4UWX9o01yR1oUBXIVYXnjSTROG+2nnYFwuNK358d5MrB80aQ8JI3fG2w1dvG+W2HaQU5adL+dheRt1yHDCASZVYVZAP5mTXblSBIXl/8vfGWsw8/kKfmz4vZi49tGthBFBFzH5DrFg6M+UZZnwvoEp+NUIwglw0vm4eIl8tq0saJOzUSPSPIVg7++UZ5aMesQAXZTjf4y101asHefpuwJhVrAtlGJ27TddImyPCHBnLTxopseU3ediiDzcAAsqVFw17N99r5htwwXw0g563Y/kVhthg0v1EGMjd2AtnKQLKwfEH9EzgmVwrIYcPTiUUiS1lHol7znziJedQw1AT3TuMg65pgZGEii0+j7UA79vVmi/FPKpoEGuP+LxzkuCkVfxvB+cRmQFzNjruEN4UzOhJANnPcYyL+cHEtDg+Xhs50YccdZC9t4IUs/eMeXDUcsUbcgKk7yCpbmkN3eHImWvO3Tj5rZn93jBqdUZBH2+RhGbuIis8eZT4x15UGepZd5zvrp8jJsQPIjqWdqHPXI7Mfi/5l6dHTkbjp2EwG8fw+OYZdyxAw9OiMgrQsSdZ9PTM2Tunks0aQ0TYwnqfTfJRsYyCwRjGQNuNEVuwHI/yj86BmSMooxZdCWngFbP1DOToG0sbOWfnYN/bN0+96EG8yvKANS+TbwsdQjo6B/LRMh538nPYxItZIHPlIXy/ZSPq7ZeGiHB0DaeN0ifzgSXlSnBoK4NyoDvdYniBWFy7G0RGQVnYOpwNEme7N3R5uR59Mos9D9rmfmhVUvwtazoAlzmpXwDg6AtLuceKgkbnUl8RE4VbLD5aIiKXSOK9SxuPkep6axn4sfeoELHS71QLj6AhIOzsPA6C/1rmmCznOw/vL0+2k8XgEcK7nsrsdUdaGb3MoFiacIVO79R3j6AjIq53NhAmYsS8lwUJ07g3GiSiWV6SDvP8yZiP0GLh9tZwCCvxdwasxjq6DrGbn4iLr0FmYZpwFWD83J+AUAzpB1ixR+oF9olkaxCLryjNnySpPuom+AHSQ02oTfpjM5U713g4RgnGgJDLBbwxDeaJ0jJDdWQqn8mbn4F5AOLoO0skmyhKLJn1I/0ON+GEn+e9d9a9ZVZ7ErUWX0xjC0XWQ6tsNInbWiKGl0L4VW8sPnLTXVLS45W4Ha4Sj6yBdbVihZVvszxEVCMkI4lAP05GpwdvzzrY1Xg2S4DqMT1pzTxmgEYJQuaMblegYjqG9nbtpTefoGkiK7Ty6qL9+yALXzxyMPH4wZxwlv/2IYOzWOboG0sbONcmwY9W3YWIJEHNjCnJJsTirCcVpq3N0DSTJ4opZG9amDsEvbPT5pEib3ySvhcbRVZBDWsiC0IZyEJmUoABjtDSBFDttXU5onUrVTVsFSYwHY8iqNOlB+EEMFkFMw/aJsSIaR1dBnmlW3hSjY9sYnV2QiszQrxkF2F45pblmNI6ugqQFTgt8Y+t1MQQZ6D/qvEsM0Tg0T6LG0RWQK5rtPHwzyAFhYBkYdWTxM2GKYCU6bRPl5wpIfBKZJDb7AQZXTbEkQKH0NJCia04LPZKUvsrRFZCkiAVjIMJDxuqkgH6KlTI4IbZ1FNInfXx1Z1NAOrLzp2R2l9WUw8YUuy/8Bvxqd52QghhUjq6ApChr+0DeZHWCygX+FdrAzDFjL6ENpQ0kKbBPURMoHZP0j/pNpJYijtFD2CAp1lnh6BAkKb4GqtbFv7Bw8GF5eii8KC+5FPizOWayG/8LqA91DVtF4egQJIWdw0PFbfYlR6SrpeFJ5c35qZklaPTNXDC43VFc/Mq7IEiKboUM8T6bYnD0z2XGnq1mynyePJcGv2Aap9/hqmIjBYlBjg5AUtg51GD9R485eorufybh3YWg/n9HhHdXJvaT3vX+YZRVTCFjcAQASAo7h2rn8Pxl9IOe7LeXJEAI4P4nWKNmneHLsgCPq5RdBHJ0APJMWJIZ6Fb+QxY0UOVhk4drsT/yf1NS9SBHByAJE4J9yj8sz02hqF39YFvShBSs1wuhe0CVyyAp7FwA2irbF9OaVQEOUi/ggFC2SsAhZZAUdg5WNvQspLWKBh3BpGTynwYEvQg4ugySwM5D2eOshuLZzKdVoliIYqB6CIMAOLoM8o+73mHAY6haw62ZKFb5o8zICLyHwFWAzpBBEmYD2ED62lrWN0UnWf3oKOS/UzYRmaNLjVDYOWDAyFqOLh7RA++BjhG8yLeHEkiKBTeWO4etZXYlV38aYLFsgGpT1D+X1L8EkpDTGIJtSHdQ3VFyYgDhFEUAqbY7RvBDCSSB7sBXG2ZASqIFW3yUIH+lWO0kjl6CpLBzoKCNeYJcX5eDzeAmG32Qh1+GRoDl7ZtwTJJ28hKkNzs3cgihHaNnX/Fdsi9tkI3dz+QPQlIbJfMqQVLYOdijjVH5TDXc9ArtyNTTinEiCpklUlISJUpYgqQc18DnNVJKrrqidwUSphq5jSMJ1CtlD5FeUYAk2c6BMdw4Bb6UY9enBIQrxhDjmozkL0XyuZWruQBJsp2DWBnD1hN9KfaOPRgGNdV6muIh32DOk3KhS45egNxT7DtA5SGMkonkelTGcaCMlTrOq0MnFUhTMg+mmeyKLaAAie7oJgFmAVVn3BCeJvom0Vc6GGtP3CMNeaZkwgCmrbZhlfKXBUiS38gIkvEsMEU+woM9M3D4zf4CBtQfZOmXyEFSDqSm6RrF6elgJnNQgWqqt5Teci3iPIWrBsiCo+cgSfEViOJhPAnNwasPgZtcbI/H34xeAwriuEhrsuToOUhaxZFMPmKco0gk3UMlU4XWNiSYUZHngHJv7Voy7BwkLfMVnPKO8XjrlM8jr8kQj3NSZTO6yrYBYmxKztEDn08EzUTOB8fRVxnf++VcO1oecWI5jTwe/QWSWKfCkIxZJfmdE1Hiea+EZzdfICnsPJBLJBGl951x32KJb4U3wlWiEQD5Q4ps4Zl/hc7VceSfPLI0Z3JhktvRnyBpkS1ZVdRyi3Lw2c+fIAnsnPHUkM3/OzL+IuS0vxTkE2SllyFkURTxex79ad/atR5uMlyML3ESx5xHldVFXxz9CdLOzlmcXNbj79FiOiBpjOF06aaFe5PDYkNqujeYLg6j709mz/h+ccInSOtET9bkjMjh9PBxSbJYxIa8HyDLL855nLD5cUmDen+TKYT4NZSPhx4grey8IiRJkffZYXzJEpEvnDCr7HZx0GSRiNPgBlUvvGARK0F4UrMHSFtki3B1xPVmk3FXZELRC3gqtSzKHv2Aep2PnKHazIxPN+oDpJWdO73n3OX30UPaYZW6GDXU3auFJNdPp83KlmY+LkBanmJo2IoqI3PuvOXc+BKLxVhURqPdxWZXv+YgbREHOsjZsRvNN32gjCxJbEnljjMzvx7GDGyH2yC9fmg3dNr2hocd/Q7SSnuBQ/ttus7i26RkcfZvoDaNEx66pHExWnxh9Mfw39m9o5FIuwtZm1lD1B+26TtIa4EIXvrGN2MhJUMCn/nANJQuVN6o92AcT8lYbqxrXur8D2v39y+Qdl9R8kSzWlwy0BqMHzRNmcxBRZqGQjlYg9IyLA6e5qSeMQ/l+dz6BbJj54I8Go/Ol1QtmgPPlIah1Nwhb8vxWAsaNRz0YJL0TP0UPGPzj8pyISc3kHd9jnBiJTwYD1rQfJSdLIoy1RqJfyEldhRb9qySvRYgPUubQdX3jnVU8+ucH+tKqGUl0Goe8AN51ggqpisx4aX4Pdzm98jaUHMghq+epop1FtPvEZzpVu1olod+vIP0LWWt5EQhOwHIR5fmjJatik1F8AA1lSmXYgvxrRalfOuh1kykhGaVcbmJcrDRA0iUQqYjz/prjwIOD1pHcvbILUDH1EE9D6iZXKU3RI2611Y0hx9w5TmQT8L2AGkhVg5NlDKH46FOyq30EdTkIEX5qdl8nmrjpbxcLAOWNhRiegXtqHmy4KdKmpeyC8IKI8hKcJPXKDxB6olTbqLOuh5QYUpGKjSaqudMwGfU7ZWUeCRJ1JdA3itQeEmsdHUgTXyFtvaVFauYDGQCq8YFLz3HIJ9o+Zl471mLVNUtm/JrKX4rdVkpullyPabKel15bnGFCbw4+M89GYHKaYptQklA0RmRwgiK5BYVoy8jE0UHpDgez6bUMOU82DGB60rvqaJ885mu5eAv/CarpKBLkD3fCasaLN+DR+YKHOINsugV3fzYRZlQLQnemrVc85Kdylf5CNUc0b8X/IfpBuhJRzkv3tkl32l5JRU1kEwiK2jZGEdzphTCdAvHKA1hSugWbTqGM5MHiW4289zCQZYbsDh6XkcQ6cVhNjAS3xiNCx46IiUx0AqA1QJZIXwNEujuIkK3rfbBtDM5TwXYZt9197Pv5IIKAYLsee5Isb24ojntOrabgJZ+aiJksFnFQI4pQRfJrPkuZvNxZLUeG0K2K0VlhaoXYOJ5IMksY4laRvL+WLL0PMdRZxOaq+PD83Qam30eNsaCV519iKF2UaVoFiSkRtbFk/Eb75dZnRJDsfOQxWnHFOwy8pxT0R+tKR3kyrfQe/Rj6m9/eryksYhYXhY6ZA8H3eV7avRerj0JWBi4FOczm/yrhOkliORml6OPPzsu4ljw3Z/1aLmxaNbexfdTY6V6MfejJyMO6iUVyjJFQpgde4DVdEB9rGP/a207Tdxcf/YuNh8fsfZwR7KtPrVdWOIfrPWSjV7lxlUiPBwaB7mqcSeKQKsjOEvPrWIkKiHpvhB/5RNQE9G0N5sSRBwko93hU+PuMKbvUyTpeg+kMS/eGNxx9r+prR5Ib4yGqmQ2kN62TisdrRbvm3WQU201yL7LjRmYlB706cE1QHlb0ghfpmNQOnaQvhYkKaXvKtIukuujSH/6IbKyH5REUEkyy/yxLSC/41xRbX1yp/r3rK3z1tiB1WzfTePobkDMjTJ+F4uZryysAPl29FA+/Pj6cXlbBBNZND8uZkOZrL5vtvv1LhV5SbSwqMxDq1H3lNga92VXhSf61MkdxMpkZxGPk5QHl06327lc2T1OlMO7agqFRX9p9GlC4ACSrnyKIlGGEKLwdsoK8UYLU8iWOmERoygBJFmhF7l0eqmMaik8RFRbq2bepoE0lDgw9zN/3cJnOXvqHqvScQH5NqL0tszhJVSEKaS0lpJIZWWV+GqQFJ9eSTr8AkpKrvTp/lJeHZHrQDTdPS5liQhaOmbx+2JM+s4gWVVFSzeQzhl5UoUIQs0uSSQ3l/Oa5g7M0eXI4OrTK2OofMOfpBgvxzWtxp94g3QMKJDir3wD2SSnplvBLjdji9vhz0kPSFU6SGXxJZHs6U6pktytGJfjCdcloKCM8vW/vLecrw53s6BV2GuAdAkoKHWj52kpkKubuUxX7pj05GqrcFE++bG1zrW5RdyLw9Rxtpg5G2QcfL7Rc4W8+5oUHsKeKB0oiFoipQGQLgEF/LIdzI41r2BOxtPZ5Fo9kGqxm0ZAugQUhCLW7+6hSiSEw3W/WihYMyB77dyn7ilaAapmQHoHFLQhJDM9yRLsG1DQvCTutyNTQXoHFDQtbimHniC9AwqaFaq7hQhy1dSl6nUkDIk1J6jemTo+vaZEzQ9qHOTb4q8rHzQsoFmQNQIKmhE9FqkFkDUCCpoQQ1hA0yDrBBTUFiwWqQ2Qf1X5oNeGtwGyRkBBXfErl+/n4PcMmq4t5rCAFkC+df8KKbDEjbYB0jugoI7YwgLaAOmdklJHbGEBrYD0jg/3F/87Ovwji46esSi+Yg8LaAmkT0BBDbHEIrUJ8u03lU9VWEBrIIk1OmtJXCeWrVa03yb5pbEMs1rhpfVCGofhr6zLqnsb2wV5v5m+dZis+t7GdkHeBvMjfSR8UIS5C4+zcb1hbALkPcpx9NntyAL/pUnXWU7rPbn6ISINgPzvl39A/q/IfwBQRh/0sIBNRgAAAABJRU5ErkJggg==;" vertex="1" parent="1">
          <mxGeometry x="240" y="24" width="26.82" height="26" as="geometry" />
        </mxCell>
        <mxCell id="I2gfO7rlxJFu91sXPex--2" value="" style="shape=image;verticalLabelPosition=bottom;labelBackgroundColor=default;verticalAlign=top;aspect=fixed;imageAspect=0;image=data:image/png,iVBORw0KGgoAAAANSUhEUgAAAKwAAACyCAYAAADf7SQzAAAKrWlDQ1BJQ0MgUHJvZmlsZQAASImVlwdQU+kWgP9700NCSwhFSuhNkE4AKSG0ANK7qIQkQCghBoKKHRFXcEUREUFF0FURBVelyCIqolhYFBW7LsgioKyLBVFReRcYwu6+ee/NOzNnznfPPf855//n/jPnAkCW54hEqbA8AGnCTHGItzs9KjqGjhsEaEABykALOHG4GSJmUJA/QGTW/l0+3gfQlL1rNpXr39//V1Hg8TO4AEBBCMfzMrhpCJ9F9BVXJM4EAHUQ8euuyBRNcTvCVDHSIMIPpzhxhkemOH6a0WA6JiyEhTAVADyJwxEnAkCiI356FjcRyUNyQ9hCyBMIERYh7JKWls5D+BTCRkgM4iNN5WfE/yVP4t9yxktzcjiJUp7Zy7TgPQQZolTOqv/zOP63pKVKZmsYIEpKEvuEIFYRObOHKel+UhbGBwTOsoA3HT/NSRKf8FnmZrBiZpnH8fCTrk0N8J/lBIEXW5onkx02y/wMz9BZFqeHSGsliFnMWeaI5+pKUsKl/iQ+W5o/OykscpazBBEBs5yREuo3F8OS+sWSEGn/fKG3+1xdL+ne0zL+sl8BW7o2MynMR7p3zlz/fCFzLmdGlLQ3Ht/Dcy4mXBovynSX1hKlBknj+aneUn9GVqh0bSbyQc6tDZKeYTLHN2iWAQukg1RExYAO/JEnDwAy+SszpzbCShetEgsSkzLpTOSG8elsIdd8Pt3KwsoagKn7OvM5vKdN30OIdmPOl/MMAOfoycnJljmfP3IeZ4cAII7M+QxrACC3AnBtM1cizprxTd8lDCACOUAFqkAT6AIjYAasgB1wAm7AE/iCQBAGosFSwAVJIA3pfAVYAzaCPFAAdoDdoAxUgEPgGDgJToNG0AIugavgJrgNesAT0AsGwGswCj6CCQiCcBAZokCqkBakD5lCVhADcoE8IX8oBIqG4qBESAhJoDXQJqgAKoLKoEqoGvoZOgddgq5D3dAjqA8aht5BX2AUTIKpsAZsAC+AGTAT9oPD4CVwIrwczoZz4e1wKVwFn4Ab4EvwTbgH7oVfw2MogJJB0VDaKDMUA8VCBaJiUAkoMWodKh9VgqpC1aKaUR2ou6he1AjqMxqLpqDpaDO0E9oHHY7mopej16G3ocvQx9AN6Hb0XXQfehT9HUPGqGNMMY4YNiYKk4hZgcnDlGCOYOoxVzA9mAHMRywWS8MaYu2xPthobDJ2NXYbdj+2DnsR243tx47hcDhVnCnOGReI4+AycXm4vbgTuAu4O7gB3Ce8DF4Lb4X3wsfghfgcfAn+OL4Vfwc/iJ8gyBP0CY6EQAKPsIpQSDhMaCbcIgwQJogKREOiMzGMmEzcSCwl1hKvEJ8S38vIyOjIOMgEywhkNsiUypySuSbTJ/OZpEgyIbFIsSQJaTvpKOki6RHpPZlMNiC7kWPImeTt5GryZfJz8idZiqy5LFuWJ7tetly2QfaO7Bs5gpy+HFNuqVy2XIncGblbciPyBHkDeZY8R36dfLn8OfkH8mMKFAVLhUCFNIVtCscVrisMKeIUDRQ9FXmKuYqHFC8r9lNQFF0Ki8KlbKIcplyhDFCxVEMqm5pMLaCepHZRR5UUlWyUIpRWKpUrnVfqpaFoBjQ2LZVWSDtNu0/7oqyhzFTmK29VrlW+ozyuMk/FTYWvkq9Sp9Kj8kWVruqpmqK6U7VR9ZkaWs1ELVhthdoBtStqI/Oo85zmceflzzs977E6rG6iHqK+Wv2Qeqf6mIamhreGSGOvxmWNEU2apptmsmaxZqvmsBZFy0VLoFWsdUHrFV2JzqSn0kvp7fRRbXVtH22JdqV2l/aEjqFOuE6OTp3OM12iLkM3QbdYt013VE9Lb5HeGr0avcf6BH2GfpL+Hv0O/XEDQ4NIgy0GjQZDhiqGbMNswxrDp0ZkI1ej5UZVRveMscYM4xTj/ca3TWATW5Mkk3KTW6awqZ2pwHS/afd8zHyH+cL5VfMfmJHMmGZZZjVmfeY0c3/zHPNG8zcL9BbELNi5oGPBdwtbi1SLwxZPLBUtfS1zLJst31mZWHGtyq3uWZOtvazXWzdZv7UxteHbHLB5aEuxXWS7xbbN9pudvZ3YrtZu2F7PPs5+n/0DBpURxNjGuOaAcXB3WO/Q4vDZ0c4x0/G0459OZk4pTsedhhYaLuQvPLyw31nHmeNc6dzrQneJczno0uuq7cpxrXJ94abrxnM74jbINGYmM08w37hbuIvd693HWY6stayLHigPb498jy5PRc9wzzLP5146XoleNV6j3rbeq70v+mB8/Hx2+jxga7C57Gr2qK+971rfdj+SX6hfmd8LfxN/sX/zIniR76Jdi54G6AcIAxoDQSA7cFfgsyDDoOVBvwRjg4OCy4NfhliGrAnpCKWELgs9HvoxzD2sMOxJuFG4JLwtQi4iNqI6YjzSI7IosjdqQdTaqJvRatGC6KYYXExEzJGYscWei3cvHoi1jc2Lvb/EcMnKJdeXqi1NXXp+mdwyzrIzcZi4yLjjcV85gZwqzlg8O35f/CiXxd3Dfc1z4xXzhvnO/CL+YIJzQlHCUKJz4q7E4STXpJKkEQFLUCZ4m+yTXJE8nhKYcjRlMjUytS4NnxaXdk6oKEwRtqdrpq9M7xaZivJEvcsdl+9ePir2Ex/JgDKWZDRlUpHBqFNiJNks6ctyySrP+rQiYsWZlQorhSs7V5ms2rpqMNsr+6fV6NXc1W1rtNdsXNO3lrm2ch20Ln5d23rd9bnrBzZ4bzi2kbgxZeOvORY5RTkfNkVuas7VyN2Q27/Ze3NNnmyeOO/BFqctFT+gfxD80LXVeuverd/zefk3CiwKSgq+buNuu/Gj5Y+lP05uT9jeVWhXeGAHdodwx/2drjuPFSkUZRf171q0q6GYXpxf/GH3st3XS2xKKvYQ90j29Jb6lzbt1du7Y+/XsqSynnL38rp96vu27hvfz9t/54DbgdoKjYqCii8HBQcfVnpXNlQZVJUcwh7KOvTycMThjp8YP1UfUTtScOTbUeHR3mMhx9qr7aurj6sfL6yBayQ1wydiT9w+6XGyqdastrKOVldwCpySnHr1c9zP90/7nW47wzhTe1b/7L56Sn1+A9SwqmG0Mamxtym6qfuc77m2Zqfm+l/Mfznaot1Sfl7pfGErsTW3dfJC9oWxi6KLI5cSL/W3LWt7cjnq8r324PauK35Xrl31unq5g9lx4ZrztZbrjtfP3WDcaLxpd7Oh07az/lfbX+u77LoabtnfarrtcLu5e2F36x3XO5fuety9eo9972ZPQE/3/fD7Dx/EPuh9yHs49Cj10dvHWY8nnmx4inma/0z+Wclz9edVvxn/Vtdr13u+z6Ov80Xoiyf93P7Xv2f8/nUg9yX5Zcmg1mD1kNVQy7DX8O1Xi18NvBa9nhjJ+0Phj31vjN6c/dPtz87RqNGBt+K3k++2vVd9f/SDzYe2saCx5x/TPk6M539S/XTsM+Nzx5fIL4MTK77ivpZ+M/7W/N3v+9PJtMlJEUfMmR4FUIjCCQkAvDuKzAnRAFBuI/PD4pl5elqgmX+AaQL/iWdm7mmxA6AWMVNjEesiAKcQNdiA5Eaep0aiMDcAW1tLdXb2nZ7TpwSL/LEcdJmiHhXeBvAPmZnh/9L3Py2YymoD/mn/BdOgB0umdQWZAAAAimVYSWZNTQAqAAAACAAEARoABQAAAAEAAAA+ARsABQAAAAEAAABGASgAAwAAAAEAAgAAh2kABAAAAAEAAABOAAAAAAAAAJAAAAABAAAAkAAAAAEAA5KGAAcAAAASAAAAeKACAAQAAAABAAAArKADAAQAAAABAAAAsgAAAABBU0NJSQAAAFNjcmVlbnNob3T3keFFAAAACXBIWXMAABYlAAAWJQFJUiTwAAAB1mlUWHRYTUw6Y29tLmFkb2JlLnhtcAAAAAAAPHg6eG1wbWV0YSB4bWxuczp4PSJhZG9iZTpuczptZXRhLyIgeDp4bXB0az0iWE1QIENvcmUgNi4wLjAiPgogICA8cmRmOlJERiB4bWxuczpyZGY9Imh0dHA6Ly93d3cudzMub3JnLzE5OTkvMDIvMjItcmRmLXN5bnRheC1ucyMiPgogICAgICA8cmRmOkRlc2NyaXB0aW9uIHJkZjphYm91dD0iIgogICAgICAgICAgICB4bWxuczpleGlmPSJodHRwOi8vbnMuYWRvYmUuY29tL2V4aWYvMS4wLyI+CiAgICAgICAgIDxleGlmOlBpeGVsWURpbWVuc2lvbj4xNzg8L2V4aWY6UGl4ZWxZRGltZW5zaW9uPgogICAgICAgICA8ZXhpZjpQaXhlbFhEaW1lbnNpb24+MTcyPC9leGlmOlBpeGVsWERpbWVuc2lvbj4KICAgICAgICAgPGV4aWY6VXNlckNvbW1lbnQ+U2NyZWVuc2hvdDwvZXhpZjpVc2VyQ29tbWVudD4KICAgICAgPC9yZGY6RGVzY3JpcHRpb24+CiAgIDwvcmRmOlJERj4KPC94OnhtcG1ldGE+CmrMVwEAAAAcaURPVAAAAAIAAAAAAAAAWQAAACgAAABZAAAAWQAATKaYJ5MCAABAAElEQVR4Aey915ddx5XmufPevOkNEpnwhCccvehJSRSlaklVas2UaVWvVf0wU9X/Ta9+nKea6Vmzph9mulurpk0tlbpLUqkkiqJEArQA4b0HEun9dfP79j5x70mHTFAQKaoYmeceF3bHFzt27NgRp6WOsy9cjgIiRy27b+HcYnU/9FxHhaPMUeXQk1beFrkqcBS5L7gvvQsXYVo8TsXUgo/Mf11hVnFK+gu3jAItXwA2T5MESp3lArABWt0LyAJqALYONAOgRXzmgRvQVoi4qvJe4QTYgh/mYE3xu8f4+QKoOWIsv/wCsItosgpg64EiwTMACJdtqTpcBeEaHFNcNoGxJcO7TuLP8iEO2+LR8JPAmsWLh2gb+bM//OJnKQW+AOxSijRAmb0QqByAAdp4CkxBZZVDAkINPy2gUX+ma/wn3wKphIQQLPCcQBrozRLJnVLA3KMvLpsU+AKwTVrkrhyh2T18VbdJ1E/ABFgSDOZ4Jy47OV234eGy3bo1a5MTM47xrq6SbRzosq1DHTbYV7CudvFgwExY4VJnFyuy5BzweqF3cfridwkFvgDsEoI0bxNoM0EAwDpuQZmkUPHMadjrXX6uXBu1O8MVu323BmArNjU970Ds6Gy1wY3ttm2w1bZzbB1ss81DXdbbXbRSa4A3AdYBTJyFHFJzl81s/RO/+gKwKwEgYVWwo3/XbY2fNHSqAtTJmQW7M1Gxy3fK9ut3rwDYqk1OtdrsTNEqtYJz3WJrzTrba9bbUbHN/UXbva3bDj86YNu3dNhAX8m6OorW2hr6hWwolsm5GQdeKW//xJ/9ngDWeR9VmVRQAYJPXLfN6BysVVjdAs8kr84x2L87UnWQnro4YcOTrdxXrFJttWqNA091BlWCeaiyKlaoLVgH4O3rLNjGvlbbua3XHj+4wQ7t77FNA61WKqJjQFaA6RKmeXzi/C8KqMIk9/nn2b9HgI1KieFNVLokxDiaFRYDI+5Xq7ssiE6uxMKfgDo8WbcL1yfs9Pm7dvPuvF27M2cjkwWbrXTZzBwNpFCkOweoEh0IXKuiRagTAzeCr47WQh3g1q0fkWDLxqLt3Npme3f2277dAHdjq/V0FayN9FzOzWUxNA08aDhlXjlMLl+Y/HO9T/fyk/eXwn6+zr9ngI2qTVWkymIsT42oM1d1hfqpMVJPdZXqMQObQK9Qs4yqRiYrdvXWtF2+XbYL16bswtVRG51eAKgFK9c6EBW64KrInnDJAgIoBHWg1mo1qyNHqIHoT0BW7iQstDlwy8iyddsy2Gm7d3bbjq2dtgNRYffWDuvuaLF2xUe+ArzkhvgE/hYahrcklSeN4BqaBxVIpVe5wyntdPUFYDNSfPanZvVEdUWOVG2heJrPKr5E9ZWocPG7pS4quQou5mGpE3Nlu01Xf/7qnB37cMSu3F6w0Zm6zddarFKEezL4qtcBT73NWmqcHRcAioids3oKPJSai6RSegKt62TrFc5ljorLsps2dtr+XT32/GNdtn1Tmw32l6wXLUMbURfrpFel9QDaYkH5Jw4ibQHUoWoQcnH+UP1CE7CCvNKPDMaV335Of37/OKwA06gXwaRC9c1RaXAsgTUHWL31gzqGH/q1wHpjpGa/eu+GfXTqnl25MWdT853IsHDSQptVETTrhXlwII5HrIC1QAPIu/XMdjeyCMKVt9ZCxTqKs9bbNmGH9m6w557cYk8cHkTmZWBGJkvkrpVc1mhRRXFyj0C5Dx7sgGwogPVcLr3XtQI0UtWDz6X7nAM2VYxon1UGj/xp4xXAaomZprr3oZIzA2D0sAyUGEiVazY6UbNrt2fhqBN27sq43bxXttFJQz4t2kKlxCRBK0DFVoDuvF5Y8DgdLAC2RZw259YD2PAewNOkQ5F4C3UaQmUckJZsqB81GCqw/buG7KlDna4a6ypJTMAf5QlxgTKnWTMvf3DeZlZEhIwugfDmq8/p1e8JYHOcQ3XEITAmF3UFd8JbjZsqnLFWrdsCQB2fqth1BlCXJJ9em7HLN2cYVM1Zud4BFjha2qxcCe4rzt0iwDItG32/0pVY8OAcNgZnkclisehcU2CsVeasSPwFRIZOuPmOzX322IGS7dnWbluYgNjM0dNpDN4QbooF/Ik/R/n1G1dZycVx3WVPF73MXn3OTp9zwK5AbdURR+JyulWFCmwaSC2AZHHUyemq3Rubs2u3Zuz4mUk7e3HY7o1XkFHb6Hi7EHM7CFjiumBVdFUOen50jnrPwMCDfONQjlLaul7NaVDmAzMCtwqwDlrkTSKv1xgk8p6UkV/L1t46hxahZHv39CMmbLQdyLib4MB9aBU0OCsSSBxX+fKmk2VNaSu+hstfNx5+vi5+PwCbKihXIVWplbwueFhgbM6NgDo+U7Fbo7N28vyMnUJFden6qE3Pt9Ltw3np3mt1un9rhxMLuGj13YWcGXAAEs5R1f0qBTWDlIHwvZ5fgTyArS4+wNbglKjDYnCmdNFzVJHBC1XrZKJhYAODM7QKj+/rsiN72lx86OxoBdSSg+vi94CdCLMsFYRYv23mUSLI59V9hoAVAR8C4RRNqgtVjFcOMAIRAuk8eJpGTzqJsvTW8AJqqUk7cfYG6ipDRq3Y5KxEhXYiQT5FFpXiqcoQx8HqMm9UbYBJ/EuAFSwEppCNNWR7UNfkyoonAdaj5Ufx6iHih8pBQZxaILvUWrT+rppt2VC1XZsNGbfXdj/Sa5uZAu5jKrirXda2kVvFocbQJJCuifYLwAYh1v+bQ9j6Ay33maLhrMsGWKmkeeTOqbkKwKzarXt1u3x92K6jmrp6e87OX75FTbbDKNsIx/i7ACeFa9aJIGAYwI3+tMH3gIEAix9VOAnKd0GTA7p5QLcUsAqesBWcOx7IX+Qr0laDKTI4ayvMMOW7YI9Id7ujx3Zt60Le7cReoYSMC8ctFRA1OAgm2Vhxe/yeUCqTbj5f7jPgsA6tjEpNMq6nyhsETzRWZXLtlcoZjDJYYjCF/DcyUbfrw1MMomZRTRXs+KnrNjZTRclVsrmFKnP4JSQFRv4AVZy4Rjca1Up8zoFS3qhcTzjuxZ1kX6CUddKhyQCBKgcJrtdwhFMsHk8TSv7EAUs6nqx8eEsUYHWIfyJT1+ZJe86nfWUFtm1Thx3Y3Q3HbbOtmzptcEO79faUrBuO67pcIks5VMxRJk8u95NypEcp9ebr5U+a7z6tq08ZsCKIjtSFRiU44NZBjeRF0FIYEVUnTZ3qUPc+MrFgd8dm7NLNOjLqPTjrpM1V2nnHFALyaR3FexVdlrpKzUR5d5uN8hMfii6TmLMEHTpewzxIKNXr7CBpXMpd3K35q4zjdFoKHo9JSemFuL4XVk81/SvRRdO+lLgGcOHwSN7W1lq1rjZmz7rKzJz12B6mfHfv6LVHNnfYxh6JCprnC8iLaiE3B/0ifeVE8rjy5D648pz4M/3obvGTxqtP7eIzAGy+CwWwWTec1d8yijSeJ5L4A+IgnDjjbLlu43T9dyZm7cbdBdelXmcqdWSigBagYhNoA8RVZUEVQxJVuMge8qFAq0SjASiRxH2WpEytNoAVwaPylnhTDL+JW12+DLh44wGkPuUscYSyqOGoyRaYICm2zFlvbwkOi3iwCT3ujg7btaUNPW67c92ediYiCOCsQjNlhFXM0lWnAWQAVmJRpOmv5SU7dP9Zud8NwApA/DfqXpTJXHqms3NifjSgWpivM5Aq2/BE2W6MztvFW2OoqDSwqtjoeNWV/ZUa3JQBknSv6vKDv6iqsgSIVNxL8coFJ+Otv04pxzsHUi5fAZJ49zB/VwesUlEGnBKcsobvvYPkb3Fd7HARExRHG4Ozns4SdrgtcNlWbBSwWYDjbtnQhvFNq3VjOdbRhhqN6BRrSwOwagzRuP+JAzYjdCK46K92LrByLIJHBoz0zEPyrAI3XEBQnUEGvTvCAOrmtF2Bm165M2uXbozbyHiZyYBWK5Z6iA/VFJ1gcIsEStLLZrs8eYFVF/wksAq8kiGX5EgPPUiWNb/+bfzcH7BK0anBWdxV/84rVQCuy5y0DkL2AwwReVa0GevrkJFNm+0CsDu3dNreR7pDVOhFvmVU1op8EAOzUNEFYKNhp/LqnK65/Mzcp8hhE6FVVl3LZWRw0MaT+BXxgQyvxUd0yE3AUW8Nz9rFaxPIqLOM+Oft7ijd/kzNZjFYnWfGVDaphaKU/hoKJTLDNRxwUbmK24GxAmAjpeWAXRtIEfI3/V0rHanSgnqLaRgNToATtQJsAqwGaCV0uNLRljBK2NjXgVljq+3i2Lm5zR7ds9F1uR1tSMjeUFUCwV1/TZDq+nfBfcqAVZEToXPF90dN8giuAht6fgZM6vprNjwybzfuTDlXvXRjxoZHywC1BaAWbKEq3SmHRvqgvMW5qAAfZBa3TIBVFQaXzeWF9KnbzKWLdI7HWVTJ02/tvBZgm/SjTFmmFUbXshKL8KIBxaQIGpSpg5cIob8OVAbdnRXEgppt3lC0gxjaDHHe7By433oYnJUIHAM0qKWIiLum+Cl1gUkYUVXHZ+E+A8CmYqr4OkSPKH7wNc31wy0BquTTOwD11kjZrt1YALAzdnt4PqZQsRORcl8HE5jIqV4txCYOowrKiN0grd6TjiqXIxHcqyGyoSCZ00Xjxp+p3j4N9yCAjTxGPgOwKl6IA15UXrUgRinrKqf+ZAvBBDXcFLNG5ku2MBjbAHi3MzB7/NAQS3kKNgQX7u9qY9pXXNebO2OAmusQigBWs2fBwz8NiixO41MEbD5hES0OkTOuxFE5MEqZXajZGEYpJ86O2amL44z85xn1t9r0bIvNl8VJoaQ4KbH4gMoBy002cPAZKAHWG0KQ1i20hDpVgALqyFziVOk+5a15/+ldrQ3YyLqKIhYqeVucNdRzeig9rVxQVVaQfil/vHAdslgvDVuUFwcutczbht6q7d5esh1DBXt8/2Z7dOeg9SPjdiLjSpmQ6SUw0sn2rSGKqDnOnhml+dt3nzJgg4gNVkZBRTatB5DSf5o10wLn6fOT3v1fvj3NLNUCXT/DiapmpZid0syUt+/gGB6jQAitXKGOzOaxSivACFqmfy11TRDgh8GFBtWZ2rVB3c8dYCmvMCK72FZMDsU1K+WqzWseOrN/EA2SmqpRUC5EKTGJuMpkXWjWBmi7WjV7VoHbdjNA6/MVEIf3DbLurI3FlAqj5pAN8yB4POGszHwSF5X2QCF/C4BVLvIuwJSeJJip+1XXLLBOs7LvzKUJpk4ZSN0sMzOlKVWAyhqVabitDFME1ALTqSa7VCJLs02KN1IU9AXWUKa3ODIBK4OwFtRbqqTskXOalB8P35QFsseeQt7Lp3a93sqX4r8NsG4aLNrgULvNzVbs2vVpm2WChN47yiiuKupkeBJjdeYKIZImoM5EhMu5aBdaa3PMipWtGyuwAVb5Dg6w0nc7etytTPsC4m2be4xFEAzimiKBohZesySadIpKifvs5aJHi26awda6esiAVS7SoaS9ODwJ0KYxrOtRIerI+DyK/QUbGVuwox+O2tUbsyj7mbGaK7nRivx7GO/DmeXRnL/LqlSDU15pZI6uLQCrJsC1VgFk3NUArUbOYXytysxTi/tFt/mb/HVK6Ld4puaXVfwqyYmiXairDu4tYXLYZ1UmUE6enoCGkz5I1UC0plkxDUAzDkhlA05S8JYbz2MwynNk3aJMGmWLi1ahVMI6rL3KzFnFttEgpMPdh5HNFoxsBvvbMG0sYSGW9BGRSTUid4lsYvIBAT+nW/mJhuO+m36y2/udHiJgs9bs8FTW5NTlxGBHT2j8zPNjj1pBRkUNdeyDW3bu/JjdYRXqrbvoV+da0bXKUkpTqCKowJUARffuTTlRhQhzl4E6gTY70kSBV46AThVnVFoKWGL6fDnoKEV/b2fNnjncat/88hADp5Kdvzhtv37/li+W1IreBbfrVa8UtGwAVvUiwjo9sgbOvYtPqj+etyD8Flq05kz2uFgIt9etp6Nmh/cN2JOHBuzgnl4b7C3GYkm1eAEeeVfilVcTITV77HWk5DkCFbxXGl6xuQrUZe52tQp5aID1roeMQAk/lCHtOaXsVSmB1Nno9e3CzXE7gR3qhWvjALVqExMtNieOusB6KThhTaZ7ZFzhvABeCMWj2yiRCLKyky/8cQqi+B1hpaRRnHoRfvzB5/hHWua+rqo9d7ho3/3qFnSrnTbOxh5nr8zSW92xkxcm7eZozSqFLho/Slb1Tu5EPMn2uoHKAiW9U1AX8UlA8rtEKwEXAYIGUmLdWW/nApqEGpuCdNgTB7c6cDVzJtnWTRsBppiHokz1pfYRgFWiXrORTpaW0vOqXbVe3Ud4o0U8lBqMrERU3pLJQYX+nGl+G2E7nws3UfbfnrRLtybtKjNT0qPOYThdLgNU1kzV67JJDU4Y1CSuaKqeUcXsBKBQq5VrMRYhjGcnGo1HIsAmt1ok6f3v+FkA6gewzx8q2P/8tS124JEeBl51uzdRtbOXJu3DM6P20dlRuzVBz1aTQTo0Rv7XsCnseR1ZqiWeqVeSXMozgcjJlKMVPoKKFewQZqyzNI8e17DB7cCkscP2bO9j9qzfdm1v5x0DQdURsIrZM8CrKKlLxSiy+9FIhwd6kl7o9j7uoXFYtdFGEbkQWEbG0Z2iNz3HYODD8yN2nunT0WkGUVWMUSpqk1j1a8cU5C0tR5ElkjKuLtuLlyuEFzZjrXq81C0GK2+Vh8yTwi5z6eWyF5+PB3nA/jGAPYyFlma2FsDf+FTNLl6fsvfODNsHcNobcNrJ+SI9mFYNJ02Leh3BVKOE4HqCsNNxRYJFnaBYpJ4WgHaZukOzAPPejUbhcbZg2r+rxOxZr23CXqG3A/UXsnCMQiSoeexeJ4vToSK8LtKZIPdxDx2wiDISZwBh3d47Pmy/fPe2vXdq1MbmKWKxiwYea6XKcAOtsdfslFQy2jnFcw7FArBxm7FJbwxpBL0Ua8vAqgKTh6X+9FjO62O1l+Hld/pXzEmA3SAOe7DF/gTAHsI+oADN3dH/LuBpeLpsP33vrv36xF0APIceW9oS2VmgInRti6DT5ITeMyqKLJqIrPkrJiKzRs1Dqs+XwU0bBjSyEGutT7ta7OuvHraXn95sB3a2IdNqxkxysCLUhIYOXWUNw6NOFcE5XfrzlX8eLmDJ1zSDqZtw1Q9Pj9h7H48w588GFNPaJYXBFOukxEklU8YUqmgjIog/J9fMtQ+OsiavIj8swKaUVjt7fTWzsZq3z+x5ALaaAbYQgN3ZxSifLOklNa+h1Cyc4/oUGpiTd+3YR6N29ty8Tc10ukyrmUEZE7W1dzpO6mgIJMt6sZ0AWfEaAwZxY17Ij0uRss/g3hPF6KY2CxDnbDPbi+7d3m1PHeyzb7y82Q3IXTQgTJsEWeLwHDaInBE6O2Wprnp6KIBV2mL+mk69yvSpZKc3371r19h+coJWXUaG8q0gNKCSDKWuX07LpbMuSQURsaM48b4OF0Hfgh/BmstVRIK1OKzTRuE51uPc/3o9ryfCh+ynCdgKHFaA3YpI0M3SGTV+JRaaGdTXNsvd1eEZ+/jclL374bSduzjL0iGtzNCwDXGMOpHqy7kefpcVOwdYj9mZi2pJa+FIT1Np1JHsc8V9W/Hf11W3vTva7Dtf3WoHdnXbQK8GZQgjRB45I7w3LKWauWUJpxeLz78xYEUfQUozVXcm5u3903ftV+/ftg9OT7FkuheRvpP3cFbXiSqDyrpyRwDms1sctOpeeCSyiYAQ0m8dsCFj6X7FQZeiUdClziNopNR4u6Lfxtu4iLSXPPxduqUQLdBuA6sLnj9YBLDbXIZtAhY4ARxp9kQ9aWjujFbt5LlZexsR4SJjivEpmXx3Mmkjkxh03CwzFzaX0acB2CCAgOo17nUjRgL4ZF/A4TB2/jLLgsg5e/Zwt339ZTQJLJTsRXQoEUarI7xxCLBiYCnBdI5kVv1dB2Czmm/ErLj0LJ4rk5pfmiejxy8M2z++c9Xe/uiejU1LncLhy6VjepQHBAt9qhcclYpIGrKRfgVUaQw0OKAEiQN7C9aTKNXSsi29J3DKnl9mweKabK/oP976r5fsPp6a71X6oEMzOAG9MrIn94mnGeYBr+BsBQDb3y0OW7Q/fm2bHQEURWWFQ0AVbrRNqMRaAURujlnD909N28/fvsHyoWnsirupt3a0ObJ2oyTeVS0pjwM2eyaOmpgIZxchKKsGywXGIy2ozhZIsFyZoTWMW1/bmP3ZHx22r35pm+0aKsF9Bdiob98tR4CVE43WSad1AlYZzseq+zhUZZrCvsd8/5sfDdtbH9yBGBOoswRWKa3FMSFGg8MGYF0WcsU0pPWuLLoml28J4+B0mUrdTbNA+VzocbgsL1mhdeeX2QXV60+8PpQbjzALusLJX2dxrfDa8RjP5TMia3rnqgFYrpsv3K8r1hV4CefSo/W4iC6U+v3MQj13qGR/LA4LYLUHl7ITnFXgAqz8RA7VC7KcCC3NKcSC90+O24fsHXaHfcTmKui/YSwtLMx0vwool53ERUW0xplrxQp4OPCkgzorFlFREqxSWWC52RR7hU3ZUwd67Q9e3GyvP7eZezUeycnE5+EeOodV9r0Iyj4utdX0XGDCFoDlKlfZ3/8Hvxy299lFRftSVVBdad7fNcZechUsgMND/kR0zftTROVf3JVKdFpliBJBIvmgXKrjxGnjJWQE2E7OLLxypxDyF2CV/pG0RWCeeLw8Wc0pvEewmgfPjlcfPtx3zrvKGamnXLgflZMyK1R6G4E8stVSWvS86VPdKhwWu9bnDpfQw+6wQwC2FFkBfBrHc0OAgtBLfsQ9dUjreo89GS4wDS5d7QkGxzfuLPhmIoVSN1ob0SmrJwWFtorP5VTF0cg91NVjpZmVVxxWdVhj55o6Ki+tdtjO/gnffGnI/vQPdlkPkqEsvwigH5xuOPyZP1jzZw0O6wJJFgmxekF0GwXQWbNZ4yz0O80My/f/4Y6dvlpFUyDdqt5SKAoQBtXKF4QT16SUWjdfhMNKppGrYTLogJXurhCqkNjBBI7sBMGTl21J6URQwODqNCaz1eHIRDE8S66SeCEZWvEoR/hQQ7iP87dLklnkPWrJH6WYmt5V4bpTpYdrYTAiwckbqLpUnBpfHPLbDO0v1/oh/wWMVXo7q/bsoXb77ms77eDOPpp8xKRu2yGrNABg0I+cMkDSQEwDLoYbdp2dxN/96CZL4EdYD7fAzjidPjXu24iSf1FLhts15ZmwDlxhwLty9YK4RcRSglnmqRcDtAPt0/aN5wfsX35rN1O5sU9CLiD+U4As3BqnBwOsWp87CIJ8KSBqNeo9DK0/ODdp3//xHbt4W1WDOLACKFxJXV9gqQZ7/g/1QGCutXyDeLTVeow60fMBWHGjQhXZSARvUCGjR66QUsdUFBg97gKgn0G/KysvN+qWvlGKcjZ284pzOIurJ5hlxVlyWlQHS97pVlw65L38SxFeDVI0Up4zR2MqMlZvL84zJ48Zn1DVcECiYTHSeLj2BRnUZHcPtgRP7O+yb726xx5lpkkyrDMFyf4cyqO2A3V5UY2MHq0K+CqYW86TzzmE3DFWc7x//DZ2HYhyaBLKVTZpNjbBo3Yq4s7Zjo1EQnzUewbW5uB55ezKTlzctKc4Ya8+3mN/8voO28OynBJbjDeqT3lquAbFGk9WulgVsBGVftXO5PhVAXChwgBUzFEvUOjbTLMePT1u//WndxANaJmFbidc+KWgGUBEZE3tbeyv2kvPPoL6I9uFj0pzyQCCqDXXIayqvQhYfXe+xGF55jmIbCh6j7sKaGUmNwv7uDU6h63CPbvHZ4i0H0GVfV3rtc4M+M5/oX1wOY9ghR8vey6NpV4E2Iy1ZOfgRgJqQ172QBpkLNhA94Lt3FSwrRv59FEnEQdx/ZRUdUvTuN+9NxYA2d5WY7uiDnvm0c22ZQCap2w5WAVYlRM5EXCqOMF5tT8DjMYPmCB1em9s3s5cHOO7DXcx7Vygx9S4hEkd5Noq4JbUmSJX+VIZs9ponPJ59gWQ1GtnfcKe3Ntm/+zFTfbSU/3sD0ademYy37p+ALcGYBVTUMEtILN6ji6YFX/Yp84AkqtYW72FeeCPf3UPwMBCmNFyNQdAFVgTYLX/aRuC+PbNVfuTP3zUTdW6WIehNURS5+ETouqQjCbA8hywpjKlc+OBckf2Yr1RAa7BZsT3UN0cv2vHsVwaniyiGwawcA1xmRD41T3/ZoBVTgUOB67Io0qkl/BDtzjNRGkZSmdrme66xOCjy/btaPft4PVe+VbQ9QLWk1FAXKKRtiHq7+J7Cf1d1t3GKF1xeqQCawJscHwPp7DpgK5iRfrTyP4uS+VPM1g+fm7ctx3V7uPTC4AW1VdobigfgWENKtxykDYqJxIIWNO/1SdtL3uAvQxY/wgu64Yy+PWVOspUPpzu13D3BawKl5zi9QbLWYCtIkPJCmgclJxFr/fTXzOb8vGMjU5JshZgJXwHWJuAnaNrnGSv06r9L987iIVRDyZrqDuIUwoOpZEIqmt1cSpYvkx+nXvg/vkRE5Ya5+5k2T46N2E/PXYXGwY2JWZpTaXaTjyyVVB3JH7xkACrxqQMEG/Ynir/wACwtAqsbVUb6jV79ZkBtoLHQARjaNmQyinYgzqVUS4fVoYmrSBJsPS8yJMqisNlT/efBcwoGTDFiyLDaTgoI/kJtnI6hSH9h6fvYe01gR0Iqxho8JUqunRtQ6qVG2oIVIrMDxe5FJliJT9qDgVwUqpP0aDK9vShLvvedw/Ypj7WipFZB2wWphF0UYQr36wKWHlPWfI64T7lEVKQHZmuFe02WwN9cG7U/vbHV+BuHciQ9PMtyEBkOgE1nQts8iBVx14A+5ffOwBgUSizVSQGPgHMVBNQ3gvBvSqhMehKZUgl5KxLBRPXkbJcq2zvIZe98f49e4vj9MUZnmG/wLcIZAAeqz5TQinC5tnfpPibj5ddKU+eN3oBHxnTQB1QAis7dHcUF9jDtcUOMdOjKcp9gLWvK1ajpsgiF6vnJfnLn5f6TkBVlj0/ooguoIpzYp2dQopFUE2/ASr3x1PdSWYdY7unCzem7Djr6d7/eNSu36ra1GwHDAobhBb2zXXAMmZw7pXlRkkq+pyT2CXAFmvTNtCzYEce7bB/9adHbCuGMZ1wp8SgUrh0zkWx4uWagE0EUoQJsE4CHrAdmV1jr9V3Tt21//zDi0z5DdC99ABlKf8JKdDmkpVI0Alg92yr2//6vf0svehhk4cAbNIhioDJNQrRfARlgujup+EhQqiBSW0zRxd3mW2Lfv3BPY4RO8vO2pJlW9ikuNiwC40w8asEIrLgYinifMJ5/7oWYIELlewclksXZQCrdhYc7Knaod1dcNfNdnhPD/tbFX1TNgFssbtfGnmfKU86E4Z/XfkRmY4SJG9Ox0T/dFZWlZ5omMWT0VuAlaZFAzHtoSsruzOYKQq0F69rEajEgz5nCsFdRG3FJUdsjXR1L+6KRl0DEwDb07Vg+3d3wGEP2f4t7dbPV3LygE1B01kxrObuC1hlJx3ekp3lRuHFY2fJ6EXmqX+FzPiff3gBm4Ehb4nqOpaCVRkQYDuKM3DYWgbYbges5pjDcCMjQD7n+eusFKvJfQqtLEqrJSOcs1emfdbtp0dv8mGNDh8Bh5pL5EqumWbw9ZSgztm7xjmF0TsODWYAi1e2d5MMKgualpyFs3bYlw4P2AuPDaLOKfkW72EfmuJIcaf7tc6RLwcaQYObLg6zGDS8W8QwyKWDlefuMeJLZVRuNBbQ5EKFMmlB6O0xxCt0tcfP8t0HvqYzPA5otaEe8nro11P6KwEWDos+1uqz1tFeth3b2uy739hvT6PV2MJ3d91mVlnJotA5XadYVzqvCVgFogwemcoruOqvwsh8hgo7w8eA3/xw2P7uJxdpgUP4lUpLs1vLXQGVVkdxGsAGh929pQvld2t8TE3NW6E8YBBAXZpc/HJBibzC/Gn6WV5MRSXQajfDM1cm7AdvXLGLLGwc5dOa88izbl7nXCnKEoUL4FEbWRopXqXuLTVL0JsumdJ7Dr3Wia6ywNdlOkszqG/MXnp6EMButN1sfRnr+90bnhUgnFJf2aW0m29Trjx/BHMfueArYNADq+7CZYBVwEWeI0fKi2tbtK6F9xr2zjFle4MtoU5eGMc2ZIwB2RTrxTC6ZwWzelGngcelIM08i5LOrlE3aplNqVS2IT6k99oL2+1rz/TZHvZAkCivIJ6dLIfNGLIHK5zuC1il6wXOCq2GpYKpJcredbzcYh8wzfcGXe8v3rlOIfp5K/k1z8GaqQaHnbZ9cNi//N6jtpuVmP3M15VSy1eCFEFdrQrdBGz2PKopSunRLi6i3ynPvFO+NZgYRyd7ng9u/O1Pztqpq2xrtNDL9wvo2pB10yyOBhHwf+eWOodi3BPgRxMdAFZePFcCLIMPAZtEQreM5gHAtrfOw03n7PWXttqzj23wj8SxRatvExQV08yvQq7uVn7ncZCPxlvPUy6W9GLJc69DvC3isDm/anvqMcVdDaaihYgCoEC5gKH9XXYqP8e2pepJT2FAc3cM7csCKkPpyPEXh+JPkZIYopIagOJqRa+u5TzPoCn5069vZav7Hu8hsmV7jQLkQjeeLb1YG7BiLokA4FCXNQTqKkbXaELszeNTjMhH7GNUIqzq4ZCyXpW63IUMi5pja83+6s8P0NIkwwqwkIvcKu4YzKTwepISx0P8y1cz8tylP8y8p1Bl2K124n7jnRv2C+TZk1fLqL/6fZWD9AWxV4EKSUTexauQanDKg2LhHUR351yV3oNuURxPyuMWxJxWn7FjkLWhYE8c6IGTbEROb2NhILsI0hhCFFB8qVyKLWU8nT2FNX8avlMBl4aIbpC8NXwu9RFJp9fE46UkXEWNE+2Ppn2dYeiKweosnFbLnC6xT8R7J2ft1IUqS/LZzwyLJ+0II5dAG4kptGTiaNRandBTWrCDO6r2F9/ZZc+wiNEpkTEqZUX0TFmKOFb+vT9gyYvr2BNxJJoSq9RV+pbqHbZj//u379mP3x61myMquLrbVNnLE5SWQIOufVurDtjdW3rhsJJnpIKRf368kOKwcko4JZ4VKPnz99lPeI6bzHsKJaahHuHijWn75Yf3MNAZY10Zuxzqs5sYk2OxAY4yfgdgjZkhX1vWABdgTYBVCi7uxGI9TbnKaLmTGazeNipkV5d99UU4yL5ORsba8lIcRs1CJVOZ4krReFkXnf3mwX5SIfOhlISzVC7Sez2Ty9/nnumxZhlRVnKlmUBNsOipNNcabDH9wWBsgq/unblWZgUJmqHT83adT0Tp4ydyi2fsFFphoSd50TRyJzN9uwfn7C/++R57/vFBRCfS5E9O4NV3elOW/OEqP/cHLHl2wCpelZ+6FGClARBor92bs7/9+S370a/HbHKhBz+STJT8ykkvBeweANvXAKwIpHAqpGa4dKdnOuRycea7niWvknevM97prLzOI8KcZuDwJuLLj966ZJPSLyK+sDcnsiexe1JKW4WUvlHAlUuAzeUDP8qNJqG1zU8fu6XsYw/WFx7vs9cAbC/qqxKkEFhVLeE3/aZyLD0rrQd0KUsPGCxPStHLmRAXsXuWAKiHilQ0UI8i8UClxa4Wa693TpXtzWPTdhy5Vt2+3CJxAL8OWJchBVgojfZkW9+s/dk3d9mLT220QQZe4s7hE60BlZAo4hGu8rM+wCrzxOYMiLMyOVeu2OU7Zfu7N27bPx4dp9vYoFyHx1US+zQBm8+CQDuHjcH4LDvMXJ2y//qTy3bxHqshmMmp0eXpc5iu681EAp/ZAbBeZ84FJNPpTpUTxBAXKrLsubNUsSEMqb/54hZ75ckh9qaKtUy+6Rph9NekSr7b01O5dI67B/qNDD5QEPecT5I4EmDFYxvl83xpdguwUmz1UtJzH79SZcwi7csUG/OxLEatXaF4r79wgiHhBFic9LFtLFzc1DNj3/7ydtZ8MRhFZJLBuXw4fYg7ny0PuMLP/QGrAMpDlg9k7Kg+cSw2wzh+edYB+8v3JxjIDHgmV0ij8eizAqwygMiN2k07Is7bu2fG7Edv30QmY6k5y8zpvBmEQS5xVw2o4CqauQrVjQoPoBELCiiifa0k9zWMlFsRBwZ76hifPGIvocLawxddOrFCc+c10QSsni2ukHSXzhHsgX4TPh4o0LKMePWqey7TnRYBWdhvUGp6JYFZq0lkkXceffaxU7N24hK7Sd6tIMMCS4AmhhCTQ5EhhXHAZmBW42b4htg0hZqvx77y7JC98MSmbMlMZH69VFgbsMSnDMlJztSlKn4G6/U3Pxi3HzMl++FZLMyLG/2de1zlJwA7iQybBl2/PZFgaRaUb/FHfVzuFvt2/YRB2NETfKX7BpZdNexAWW4uUcAB63adsg1IZBRgkVexLCugMNbmE7XyJBoBsyf3D9gff32X7eGTmr2ZJZKLUcQkLqvKi+rTOe9S3Omcf7fO66xe1um76W2FJJOWQLKkxDERS99/8EbOdPc5wPoOCxnPMGi9M97CjCaNmh4psEE5PS9ZhohfWBFHlgNkcNMyKk0+/LyrYK+/sMn+2Su7TXZALvqFN/e71s+agFUW0qHIVOmSB++xhPgH/3DDfvXRBFu287QolZZSXj31AkrkTmwJpNb6K2wJfpsyrPK61KkczISjPza7xGLJN965ZW+8fYf9E2SVJP2xLJOQT2V5L87RKAsgZaRrALUFWayFZc3tzGY9+eggtqiH7Ok9fDNAMishZENRl1ED1woeosHSnOg+0SmdV/KzxjMV6JO4FZJUVD42IV+SfnRQzTbCtqfH0QC9c3zUPjg1YVPs0DPPCmhZcYk+ec6asuIcljScwXF2wPLFm1ILGiKm5b/2wmb7ztf2GUoUXyUhXDd4Q4pklfN9AatCCKA6yxGv38/ApW7zndb/6z+dxCpq3iYx/K0XGHRJyHWpRL6Xu4ZIAGD/NYCVlmA9g65IPyfjLC2dMraSSxnXO/z4TA4Cmfb3mkcEOHt1FiuzMYA7wtdouhAb9LUZikH8PurlHMvRxX8w9kEEKBTY4Y/PC+3lY25feXrIvg3xNzBVp4GFVwzdoANWtUatJ1nWidfIozKcPxovHuwiX74HCamklziNS8r6tD0f81De9C2JUTbkOHZi1HsibYE0LQNvBKEKDbIKDfnHrZwJFd+Nb0RLvLhdAYYwOzZV7MuIBALsID0S/243m4m7S3K1/HYdgJUcFk6QEYAn2R7zyt1Z+3f/7wkstfigMJsz1DB4YZMa3mYyXBYmfypmaq39iAT/+s8PYsuJ8QuWEPoMT9hqqnCEp7RNmmbpO0gzHq6XWaYSF3T/zUD5ZN2vvAt2/kf84h53+drMqUtz9o9vj/HZ+TkqSPIaZSiK02bpekyqHFlOAFa26dk0WLCvPb/ZXnpso+3n64NY+Dl3VUKeNeewBBRgVVt6qDJ6XLr1BzQGPeDOyxbXmZf1nVKE6RzRRtj0THe6zr8LH41f5cMbs4hCDzGFbKplTqcvTiEG3LOLN+d9b4kqa/Qk33u++ckn0YiMC39DeqrTcDIfVd81h0lpDfl1wL758iOIUUVUgp7kw+GwSkwV1yixKpq7EczQzlybtX//N6fQaVat3NINYDV4idapcCs5fXKyuzBlBwTYf3mIbW162G+fNeuqTFWsqMrJR+xZBIkoarFyAoC6Xv8XNxRN1IohdKPe3aN+Mod3eUszZwKMiK4Pedy6V0UZjj3EB8OUZYEtfaBgKytJVSGRDCEVGoU6okAfGoHnnui3byCHHWY/q24mxWUuF6BTAB3Ez59+BVQe6FHDefp66mlQHgZ4ekYh3I9CrMs1ow/vSiPPLyLp5jveK1/NB1xxqyfillpaNAUzusym0iexJ/7wzAQDrTnMDjWVoN1iFHkUJH4jpqW/TmevU+lzlSi/kFArTDa63N/jDf7p/dgHs05V29IvqrulEebu78thw1+zgAIH2iFMClkLxEDrv/zoAqNFAIuRr4wiJL/dryBFPjfZg+x3cIv51Kx2etaXqAm2lIyedEpZZx3yx+dTaRZkhAf0wpps8koqyJo5V+qlXYzCC3Y6lEcJ+8KW1uVfvzNvPz/KPlRn+ejHMCID5ZFFvu++qICEKjIJUEIcGOor27/49i57el+Pbe1nj1QypXzlklYAXEpREEkwCfroV0/crljdsFuQSY0WDcmTjEhW/G2858JthvGl9FVml8p07yH5VYHl9MBvk7o+pjJEAwcrP7NszHX+OitqT7GZ3Gk27mOh4lydASmqP1dANTimx3ifHyLFb51BalNdyBo+5NgebIQfZZONLz/TD2g3wAC0tg/vywm4YvzrB6y4BvmgfhmwlBllT9qb792gW9UaIRlDMPtDoqLLak7GL13YeO3eZPbn39ljQ3wQQl81EVcgasrovxHcuZQuqVoi1dGBwKNNxnox+vb1S021YSCwkTj5IM68U8wJsHol8zclKnlsminGjzFcfht57RjLn7VSYYHdFN1gmYR9/X0x1mb1dc6zzn6rvfbsIF8ZRBxggwgBNiWndKI06Zx/IvoIKPJBhdLapONsgcNKTzyDsc4M+reqCnsfpxgFeYlS3TRUGcHre1styeLda4E4nHBZRIqSQz2mjsgVYbiYcXmVD/TxlZ63jt1mGfgMK0fQBGBHrBUH4o0eWNzBOWcW56onIhW4dXgelA7AhOO1M9GyfSPbhB5ptz/71h7/5JIDdtW4Fr9YB2AJEKXzClfhPr48bf/hh2yce5Pugr1wNGLUunRVxv2cpjKlj9vAVjZP8MWSTnaQ1oyQ5PyKTNEYVroM20CwCKvCSxas8unJgu3Z0c0U6AZaaiG4m14ri6K8XJaFpS1WbwVYnSVSUHC/EReVnvEOqpsTFwHt8Xv24blp5PR2Bh5oC1A+CxwFwKAtgkv0ENsHjBmtbT7FqO3UZYCuKm2CVqkkUCh00wVkySZIdeMbXs7TaC7zkbyzWJbd5JsOZd8nVwXJCtMMnj3RpCffli3VbM/mdnts/0Y+W8S6NdcRCSTkxEFP+CwKvyUe5UWAlbiqmSs1GK2DO3tl3D5i075zl2b4Sg8gZuXzgizbkFuTqCeaic5xZEnk8ta8zMQhp7jqlEyQJ335vMQ4ZvOGCoYwJfved/b7lxnFs5aXtBlb/mptwOaorbHEFBqCd0+N2V//x/N847UTYsdeHqqutQArUkmJ3IoCvhfhRXpNffBM3Xylov5dBSP3agAirebw/Yhwm1nEd3hfL1N7m20X31GVhgHcCs+Z/2bRlgI2gVU+NHTUTLc0ADrEqOdoLNdH5uyj8+P0HPfsCsYdE9OUjfIpK0XYgE9OQvCW2oQ9xUTByxhnv/jEoA1o+3TYrHIdhBckFExgXQrYLL/0JtJzIhHYNUz43j05zBz9PVfIV3w5SpppI6Kci/g19Cljh4EF1KNsB/TSDvZnZRWyGxUnwHqzpKGTDx1ZHDqrgUq/Ogtq9THpUxdHkFcxDDo7G+aDbKyhL/X413qYbnfAEomAV6O+PD4Hbi5jyy6z0jshlGuF1wqEeRerHt/fxjTtXsYxyLH0nOql1uPWBqxiUaJEyLJD1nBV4UIj9r/936esUhyksmNE7XsPqCSrOIrJGx0CChChtbYCAl9nxeOyviLnAphGoUKhwKqVueIDYYzR3VbHCqrTXnhy0IGybWMbnDa1f8XddHnAppTjbeRB1el6R/KsLrgKxWYwl7zON8F+RfmOMalwDSOZOfZVdS4rGcNbBh9bLvM5zJ4K65R67Zuval+rDb7Ux1U0noiahzdPNVEvtT/gx6susuAbEEsc+dWJMdK8bR9fGPPN82q+uTMNZSWnCKCd9jhQT/XSkS42XdtOr9PtjV+0CjqSX/F8/FfJd+RIDZTGCVBl4D7G7NWJCyN2lL0JzqARmJjVRhqoKKGHipq++aWmGlybZg6dmhxWBVndiSM7ydwLcdCLtvDhjwFod5C9ZL/z2k7TqgytxlivWLA+wGZ5wgjdbmOh9RZK5P/z++fZlGEDcp44gaol/sKrqJpcFKr5K9IlvhOyjYjhHy92wIrQ+KBCDCV9XYBFFlLBi4gU/UyP6EO/r7H9zVOP9vDx32zgI+J4yPjJAzYqK72UP+U3nipfesIcFgNKlodgb3CBz4K+hdbgBAbL+tiyvl+rdfrei8CykDwRDWZtiMV1R/aU7Ntf2YfRdo9tQEXHEkxiU/MMqqipyek35U+gkZHTGPs5nL86bT9jD92TV2bs7oR0oQxwfIo4H8Kj8J+gY6TR3123lw+3+w7cAmxsSkLEnpLoSBzkN5p8lFPcdXSyZtcYaJ69PMbC0WE+NcXS7hmENQZYGtL6eizRKKNp5FtNnIOG6zQj3hDDUo48e40fB6qA776VlYzuGsegGtw+WGWjuC0szhxkCXyni1VR840oVrxYN2CVLX1U4wwb4/78vRH7bz+9QafUR3aigCJOFCx+l6bW5LCpgJy9YtTlklW6IG/ZHpB3GP1qQw1Z8guwil+7bcjYrZ9xwJeO9NlLTw7YY3t7WOxXWlbgPGAj7ZQjEU55SIfyC3zFZTnP01Vqc4njiAbvnUKuOzuJTKfdZARYHeSTymph8NBWmLSN3bP25S/tsJef3GL7t/f49GxMoQdXU5yRAqmoyMQg+VEfzrvEdKc2zvvowpTdHNN0tzQTpEFe7udUghZoEoBtY28tNjRmu02JOUGrSEflisYoOT2OEcB67rK239RH+0btDl/tmZjV6gIoq73QcJI1tR7LB5vKsWcngVWAFVhTHlWi5W4RYHUTD8ijZrxm2KthFiOYfvv6C4+w+XH/IruC5bE1nzwQYGeoTHHXn7zD4r6PJ0las1sabJEhL1cqRDOBdNUEjQqoA78NwKrbzcKqVTdk17S+3iP3mm6hW2E+yr/Y9+yRfnsOy/4je7MZM3CfctAEbDNlpRvvlX7OZQAJvquKZX8DPhn6IVOSvz4+Zqcvz9s0ukiBVtO34jKex+okFTvOdGMn8+M77IUjQ/bIJjQf2HqqPtXMFvE74tUziQFSGb3P5iNvYe54ewxl/UKRdLNG69lbkscl2VX6G+CwLx1mMzh2LwzAEgYgq8T6U3lEEano5pCuxqZkwLLARnBjDthrTE+38OVzDfJ8v1iVSyGoA43oHbAATeSJQxfkEdiptwm3cj4Dn4ov8iTA6k+DxQJ7bvW0TbKEqNP+8Ct77Qk+XtdJdBFjik85yTs9p6EixyUf+bfZdfOVCi/A/t0vrtkP37xtl+5pM1yWdGeA9Qx6cVeIhkeKKWLz9sldFF4cy4mgmnQOIZ6k1DTrL28iGFc6spP4XIlZk11bSuxB2mtfezGA0ikVUwTxiYRmih6TYluSw4woGWD1XtTQ7Rxl1crbY3DYX7zLBiF32DNsBlBpJ3FS0Yi8Xku79E2zx9WAfeWZLcjXQ3APjNJjrOaA9Tx55BrsaFROvB+z0wrG5B9fQtdZkS0DGgnPPfTxKmnmWUHzzlfnSoblG7EvHYHDfnWbHdzZG6o68iVNa2osKvFCpcD+sGU7c2kaHeusr9G6OcxeWjTA1hIiCF2C+IXonEhNNH6tn5BZOasgYjI+KA54cZPPWlwrrK4IkADrcZArbwQMXLvbZuyJR9n0+LXd9vSjG62HCRg1heQSa1kc/7oAq0gCQuNU4t/8jwv2g5/dYvDFx8xcR+eRZOkom57FlO7ysyiSnFOAgucAEzxIgHUERxGcigRyQgQXKNRYdtFeoRsuoYQeYA1VP0tUWJ2KeZ9I6SoeDxJds/Kl505Izk2XPclni5cwJL7LULMr7Mp4lEHR+xzXWMg4zSeaZIXvlkjUqhbZFWzSNvdV7LF93YgHWxy82m8hqNFMaQF2O46u9UO643cY1B1HfXab9VFuKaaGS0zR0+Yy0wzevIKLatA1wP6wLsOy0/VBPsqh9HzJD4QS9bTQhYkr5NWay+PvnUALgbw6NhniR6gjCeXozKrBaQydnKUSiRcCri3geg5Ef4FWL1Z3Uc1gwytNkSo8fzRGGRJ1YY9xaG8nU7TQiy05Ufr4jKcSVDoJsClVpaTY1uCwCTQh/9yhAr//d+ftf/z8NrLeIJWm/V8VVfgTwaNQ9ysMWfHXyrwu8ofiUgwpPt0np+fh13/psloxCh7qqdmh3SX76rOb7NHd3cizbSypJifyRFzx5zeNlFKMWeabt9mVwqgr1yTJGCPNS8yl//KdO+gpNQgDCC3shIK9gSeizRoQDdpaZ9g7q465YS/Tttttr9arMe2cGokGPmOsizp/a4alOnfRCEzZdbbUn1lg1QNdsgDiuUyyYWR5Wd7iATJmAiz7w/5PiAQHkGG9qjHYlYysD01Pogm4yKrmExfKdvL8jF24ylcSyYMaiCZ6xNEDdwTIpydSy+mlP9f79FAPOCKge1vpx4OFzwjr4UVZHHWn5UN7dnSxb+yAvYhosIePMidNgfwIsEJBXAd81VTWAGxkEsZKS22xC2zP+F/+/oL97Fd3AesQh8zweOmDokhEoF3LRavDf0SfeU/hFj1cIaoghSdLS+1grdAQO4s89/iAH/6Fvm720cJbNJ8kyzmZg/4eayLp4iSUenSqEkr05UYGJXwT4Bjrwd75QGv0Z2y6ivqHfcVq6krxVatiD1yfoZtjGcjGFvuqRAPk2b1oDtLWRFoIeRmZ8Si61ne0owpTwFPziAKokbSzos+8KSsC7MpZ09vMaZYLDstK1JcOt2LiyLcEBFiIoq/D6NtoY9h7XGMzjKMfTwDYBThrFR2rwErvJd2qDNSVUCMtwi4lfQOwSnbpyywr9zlFX0g4ByselT8SFJctwtW38J2vLz9Fr/RElz2xh6XfWXbcD94F2ARaYcanptaWYeGuhFJrPXpmwf7+zav+dZi6VFp0jW6R0wCsQJeAx+UaLpadBCFim8o1AjSoG1SWIlorcduws9wyULdX2eX5lS+xLdC2bjdIUYsVaBOpMx5230TkV8OWIFSkI451i0HYUUb0P33rDrvdtDHH3gGnFTcTYBEgZO+prg6VzW7W3X8DZf6Ljw8hKjAupsVrgPM+yvmfo8K6xp5Vk9iVluvaaI0tlHgvudVTS4CNpJfnlbzIrxZubgSwLxwp2T9/jc/Fo9ZSEHgvxkk13+/s2MlRZNYZuz2CCDAXgyUNRmO/3uUJLB/OyI+ORMF0Xp6tlZ6kXq7xjqjUKCKdGiJdi734WIe9/myvvYpBUROwkWICq1JVLoSsNThsJKVR8wT943/7Od/dem+YFajzriHQQr3gsOJFys0DAlaEUE44fyLAUj2xLFl7ds0y29Nmz2O69vWXtqGM1h5O2aSCSi6ntDw9v1vxR8RRaXSWy7LnKxUu35qDY42xhu0ua/VbmWvXwBM/0EFioNRBjLdZJlO2J5HLXnxiI4PCfr4tUIUzjzPQGoHbjTNDyLp+vi0gNZK4ncKFCkkJkuL98qn04HwC7AATBy8cabU/em0TH3WT0r/O5iH61sSEvaeNL9By3ENGnkOPXGHGTmDRwj99Ey2+i+ZFbPw8fMCSYM6lO0+HMpeQ/59FpPkDjGBef24Tuu0ouoKIzch/1ow9lnUBVoEE2HGk9//9P56DS8ywRh0CMOByq3zvm0EERPSNc5dRO2XT01zhJ71fA0keMvlJZxVH8Kqghpl1Nc+jOzvtFeTZpw/2wt1KDlqByUt/PyBkOZPX1LL1KBuPeC8zTjd7+Q72s0fvAQoW4fGFwTKcVjqLCpZOsg9w7QCzOVvZ6eTInm575iB7IECbE+yoqL0b7mCDO4/MKn4skcrNIgVYUnURRoCVy075CvMy+KvY6keAfZZP0oGEQgAADGZJREFUd/7Ra2hJUK2NMqmj7ZneYxv409h73IKzVrRLiy9dJ3YK5ytV1cBCWexJpZ+HDdhUlBR/nMWcuKLMMjd9cl/Jvv4s5ppMBHVpirYB2gBsgxAE8eojkwq+ovN4eSNVzAjyz7/96/fZPQVrfesFJgjuEQMx4TMB1rlsRu1E4cZ5xWQe4GGKN50VVLmUKgwIMCu2kW3JDzzSYd94dQjdZBfyLV+cVtN8AC67DLAkIbFINrISjU5cnLc3jt2yUxiKjE1LJdXOB57nEQ3gGljzVFF3dbZW+YhwAfEAoxQGaFdvzyG3LiAT8x6uqq479qgS+QKwrotxmqbySd5L1yprcjFAYVtYAFtkd0TM9CjneVZQvHtmHNBOMSGAmSTqMhacczSFoahupMEV0LQcCp4ZEhWN5dI57nSfcte8Su8o133TkK533g7taEWO5SN02BdvhF4lRGtPVZhyl1LInt8PsKniJMTfYo793/z1MbtwG2KX4BpEFoDlIgE2G+1G1EotJZrOevabuJT5dI64XCwRhwJQbYC2r33BvvL8VjbR7bMju9usn5Yr21mnn/cr989DA9vKdjqciuLlyPOYAv7i3VH7xVFUU+hpq4VePvWDmSUctoXuVhWvzSPaGBh1yCAFe1dxVR0So2L5cxahZyUA6wDgcdTzamDFl0BMGn0sipIM+CWmZ6dnZtHrjrA5Xw3VG+uuWCRYZhmQr4JVnKSjgUu4lYnwiQDrwFo5r2sDtsznkIr24pEeZryYomVLeZmQqqfRbjnuvMEq9ziVYz2AHWNtz8dwlX/3/eN2dUSAhcMqQo7EAHw/LLoe1985eZRCIlA669lv4rKMN+KPuLzzyArIMIj9Z8qYrRnLiTfaa88N2oFtmu708i6zk00xLM5VSoenyjqHNuNQsmqks6D2HuaIx05M2A9/Nsxn3rF8Qjmv6U9BTxxT8lgrow4N/MT/Zfgu0SCmNBV/dij+lAiPnBf6OXus10scWMUj++xQuTs2lbBpYPZsdtausBPLdEXG9JqRS4ZFePYAeR74uwPYoe6yPbW33V5/fiMmpxvYUh9xBXpoFYo3MAHMe22VWcVe3qwa5EkcVrMiv3h/3H7w82t2HSG+zMa2rjtWuZ3YighSu6ykCiNmd14bDT/Zw9/glOJN54gqpZIVCO4GZ2Ou/wCDMM1Xf+srrIEHs+2gJwT7RohV8pKLP/OayCTASTzQksTL6Gd/8d6Y/cNbN214StaymL5ILgWwrQhjWjItNVKFe1k5SdfmMXucukqHshEJJcDqSdYGdbnIRV40eKr5NwNKDK/LDDSmUb9VEE/EoTVxUpT2RgavDth8FL8bgFUv1F2YtkOPFBywLz+/jTV+0l1LCyItMc4Bm9GJB2sCVl3/ee2W8g+os87OY+iMYa+IwugC9aFihOwQm4j9iy8OViUgl9V24xxPP/lvijedFZNSzwrkZ+4AiOwuu0uzdmA3espvocjH8HsTa7G7AW2opFMu8nGl/KZnnJc+yoK5aMBiPa1/0mTKGeboR7F4AkI++NI6LRnULGDnW9a2k6wIKGhEptx6nCkNJ2LKDHnjuf5Turk36VKG326iKcEMj65TZU2d9jaTDavsjLUrjTZhk83tcqc0U/rpbTYYSrd+Xu5n0WuVBS/RHpb6JYWQbRYH4S41fuWvtYotxta6vcankb7x6m4GznxCgAgdsJTNtUcZaCEpxU2hl0Ub6h0aLVZLw6yQ/YhvybIlvPak4pOc1srokwx5J0gCRMSBqnhRZSRipfMKiTzQo0SU7NxoHN6JEFN6LwMLPjVUmmP3Z1a5bqzYX/zpIXuKb1ltcC6X+g6CNPLLBcFdvODCgdOIT/HKY5RD3a3KzsSff+Phwo2q/fitG6yDmkA5j26a3f6k65R4ID1tuSJg8aw5BCauiC5ynEBLql7Ji9MLuSt8RkDl30cRnHmu+X3NXLFUyVd+yI4Yft/CTGC4HEA9mogrxRilks9m+SJc8hF3D/q7GmAjHvBCGQp8ZWbnljpT2hvsW6/stC298Q0Ex5E3TPKkbAlr0O++gFWxMfBB9zhs/8f/cxx1VhuDjl7og86Pka6SFEJjlOuXXOcLmUiRzg9a5KX+U9zZuZGWi+l4jooXIWT+V2QWrJUp0yI7Jr7+0m57/elN9hQ7DLYBWjfFc4KIFoQjSoHVaUNMkUI+vShDtG/JovJPV4xQO4KO+tdsKPIWKxVO8CVz/4iFczzZJjHNi1gQtIpm4NnOSBIpPBhgo0eLRucdZ8MgRSxIoGfDDwetzDNFQ/1ESnGK6+yJl1m+EmDjmlQ8j8lXPH2Q3/UAlhV1zHiZPXO4z7798jbby95kvUwoiAEiz+SyxDN9wPl+HFbt8y7bpLzFDtv//vsnWALNGp8i63QBrDZUCCLAR8RdVSUNAKViZbWSI0l688nOiXjpvDSWVPFKF6MUDMCNpdn1Glt8PoJV17Nb7MtYU20fwOgb+c5Bq3zT17hOmWuFVOwppqUpNDsk+fJSu53wVUQDTQz8Ix8evsXA1L8RhkpJ8fnBj9dBlnVdN0uRrgS2iDcLFck7XZMfPRKts/h8MCEOq4PwSg3thMwP3ZbY73mWnEcTcaUYm2+bV/IeKrXkK0Ww/vP9Aavcajg6ZxuwB9n/SLv94Sub7XEYyqZeDbyiQTqVfNClHsqB7GRcMRcC7AXmoH/GB8f+vx+ecot0fTSuXmAkCod1AjlYBdqVokgP03klPw/yLBEvnRWvDtLPMtCcMVOXKV1WdI+a53/ywEZ79ektfJ+1zwb5MEQ7AxOHHKoojf4jthD2VfUplXgT+VwEWIAkEVHigXZNOc8u1T89epvVt/pGGLI+s1maARedRGXFr4vFFG+m4vRcF2AVjw5lWj0dlZnlNgCryubQoMsP9xyBPLlIM6Xs+eJtROoX/ESedf6kbm3Aqt5iZnArU+vffmXQXmBm8JGhdqiGuOB1KjUhNJS4yWkRh1Vl5BMRYI+emmPDt2H72TtXoE2PK8llQ2B8blzVreKESNAsdrOA6Vk6N998sqtEvHRWvMqFZEQBVPfxLoAVrdTBjIFKPy35CIsYv/v6Xju0td2XtGj+Wg04iQO6EnddC7DqTbSsR1vPa0CllCZY73YRm4G/+dFlNk3TFwU1dauVp9CKrClPiwBPmJRfv1SqiwAbTx2Y2aVOGdWJUKBS5pv08ODulwQdrKJN0EllC/KE/2aoiHxxQ4qUsgDhIcWbu1t8mWKMp828LPbVvBPeMMhHfNvAl2b+8JUNTCIMYhDf5VPPvr9uQz6n1BR1GWAVWQItkzoYbN+0//7mMEtj2LGPzwYJrIzhACwHhFIWJRI4MRTYXSKMnsulc9x98t9EkHSOdAOwGrfHfYrfU/XKRMZlLVF7G9+4HSiyFgzxgH2xDmLe1o9lV9R3CpsAK66Vdx5b8wGBtEpCo3D501tZdo2yS/VR7Aa0k8zJC9N82E5U1jS2OCH+GtGk2NNZUecBq/vMNcLEfSwODK5aZwWGG0N6xKoPyqMcJZA+AIcNESAlqnPKWzrrmZdCFzmX3qdzvEq9Xs7jskst9dGW+/2dC/YHL/SzXxnbP1EvHZgf6p0LZw5a0UbFajb5XOvHH281Cv5P//0ioB2221P6qBhEd8KLN0MwAVa1rTJkXbLfeL7zBVtC8WXZXu+DRJB0jjTgc6QvDqtDhWym51+0kYW8CAMROlkaPdhdta88udGePzLgZnlSwItHejxe3boPPtvMWTNOf+blFmCbySn1ecLfGGdS4SSrUVlOdArQxjdvpfKCfo1oUhnSWbGuE7DKHfRHpGPaV/IqKx/ISJVVv/r+guLxZLxORBvFnTm/jgfpccrSyoBNvlIEDd/pAWf5WeqPJw1M5LwuuZQfqbd62ubt1Sf5PgQblOijHT2YaMQO5mqEEb9frQZYtdIpWOx/4PtbP/zliI3OsZ0maoXYX0mjculdiSJ1SSQcllv5AuWvl+T0E90moqRzM/5ojRodi9MKOrwTFxRIWNaifMvmuqgdXPjY2f5tHfYKW5e/Qhe0Y4iP26GEj0GAl0ylIw4deZfS45kAKw675JFS1nr/y6xKfY/9G944dof9uyosIdfuOBxwi+ARUQn52FXpTZEg9yaXhp6q4rQ8vpXydCPmdHaUWSZfsUkMaxZIx4HnYFGdKESu8fm9/xBLuBT9ZwJYZUG9H9Z2T/ER5a8/v4mPdvTbEKtHQoZVfUQOxUT+fwAAAP//s31D3AAAQABJREFU7b33l1zHled505X3hSp4AgThCYAGAEnQiBLVO72t7t7ec6and38bzfxdsz/umTlnts/uTPdKlESJ3gCEIwjvvSvvXWbWfL43XmS+qspCFUiIos7oAVnvvXhhbtz4xo0bETciMuX5+XlLrozxGP5bqZyxxyNF++ff3bbfHx+2odkOsww+MtE3r+WsZeZz/OQ+z6+Mo77HKBffq2FX8xRDhyRTCSeBAy0ZTz9jJZKe5cuMZTMz3KHHicnb/HyDlTN5y2ShN8un8ow1F+Zsz9Zme/vlLvvJwQ5rypctD/1ZDyVPOX5L08QxXEpcvEqIhDV+wQEr8md8tmw3Hk7ZF2cG7Ni3fdY3krWZUiP+C1b2MAqwOH7yEiMK0YW/kRGJm7zkILGpIWObNuVt3fqcTYxP2fVrozY6Aicol5CEeED+K3khoCepP6TlvuRHF2/pwk3cltIYiYn3EHapP1zAxKqu+VmonLDnukr23mtr7MiBHtu8vplyVKziaNlpzVI6mfK82Oe5oOBDArrNzJmdvzFhv/r8vh29MGmjxXYHZSBAICHUvACrwlXW+RcceQ/xBL+L/z7pW9VviCvE5GkoLY9XCZeS9BLGU0DZ8pzlMpPW3DBna7rrrKkpZyOj0zYwWLTpuUYAqx8gJEguSxHOT1tve9le3NZgf3VkrW1d12gdTRlAO29ZCi5TKeQqTUue0lkhXn/lTwkewz4bmJi1S7fH7eOvH9jlW7PWP5rjG3QQN6ngI/C9wi9elXLlPSa4BEiEzpattWne9uws2Mv72omtbFevjti1G2M2MFS0yZl5KyFM5q2eWGJ6SlL8SyojFTRjxYRupSt/3D3/Slxuta50xtPfF/lXWjWv6B78z88XKY8p66ofs58d7kaA9NqurZ2UpyiAmZS3eJKFvgSw+sDXBLCC8AQZ/ujoQ/vo5KBduFuyiXKr8lG5JFVDxmC8f0gDtuJtmYdI8DKfcXaJDbCcaTDeyhDr7CziVLQyBRa+QQf5yZamrLV+xjauzdveXd3W1VVn9x+M2cUro3b3YdmKmVYAW0e8gFtYmZ9Bqs7Y+u55O/xihx18sQvQNgBa2KIC00880ZXKd3Dgb0JafI850l1sLFNYU4javuFZO3Z20E5eGLGrd2ZteLxA0CDxg7hPQnoaoU0IkceYdedjTMCdaQmyJWtrKdsrewr209d7rKu9YA8eTNnFq8N25eaYPeibtdHJHNK8nqCSsiETXlQpwFpGrRKRS/Ag/QWLgAVPaJV/0sQlzFoRrIpaUp3bPPlBgDRnh+2dVzsA7Vo7sKPbCkSliglK8aTKpdZ8vkQQMUS/8CiX0amS/dd/vWJHL07YnaECjW1L8KJ0lCX3L+IqxeogIxL3Ef7ou65413P8Hu9yW3oJkIG5oovmvMTPiUZ2ZeYALOHVNnoFLFqhOG6bezK2f1e7vXFwk/X01Nmdu+N27HS/fXmyzyaLrciSBjhAk0wwSZYcqkNz3axt6M7aW6922yu7O+x5JG0DVTuLp0h1rVbaKRZp7ik2qyEfYqMqnPg4PTdvtx7O2NeA9sS5Ybt2Z85my82h8mSDxI+cCBVSb/EX+aJEIjVyE2CL1tFSsoMA9n99mxZiQ5PNTJft3sNJO31xyM5fHbNbD4o2NV2wIhW+LECSEeU9SFjUBkmu7Bwxk54DlgrtLVk6LaW30rWY3uX9e1oJBlSJpIaokc+gFjRkRlAH2u2nh3rs0O5Oa8wDUS9nYSECtpwAVgwB6YpEAnh4smj/6T+fsdPXaMomm6yYDYANpMhvkql491cRnr4SP4q7ckU/8V75sOBBgFTU80ILDM+WFklYV0YB1nzJCtTO1vykHdrbZm+83G27t3VacyN63VTZzl8bs3/5/V27QeFNzNUjqKNqUISqGStkZ62prmi7tzbaISTtoT1dtq6zzur4KkEsytPUV4gUWby46qJag6/FORKMS2RiApX6yu1JO3F2yD6nxXJ9tozkywMQFDXpmC4AeAqVUvGlY1tIhdLMCbDNRTsMYH/xVo/t2ITOR5CZYsbuANozl0fsOOndfTRH+lkqSR4q+cG3eVeNSJd45pHULgwFVAmGWJ6VjK7mwTmxGo8Jl0LePLdktVwGjKh0Ddkpe3V3m73zSpcdQc1pb8xaPodfEehEisZyosN6HAGwMyD24cic/V//5Yydu1W0kZlmK2WbKiWnhMjtKgiMfuJdQQKx1XvtaCQJQmFK0vHPO3jVAg06II3d/Jw15SZs79Y6O/JSpx3Y2W49HfVWV8hakXw8GpqzEzTHn3w9YLcelW28WLCSqwZ8RLXIom3mkbRdSKs921rs8P4ee2VXl7U3ZK0exLq2l5BcyYUzTywIkjX8rXxdkCEFLZKZQTqwV25N2Bcn++3ba9M2OEknjCa4lBWQSMUlm9hTgiaFinxSdIq7Gn8FsNB8eHfe/u6tNbZzUxNwJBSVe3QSSduHenBz1L69OoqEJ73ReaR9PcJIlYQUqChB2ioQ/PWfAMH7U1+L6V0+glCtYyLJG01SpozgQYDs2Nxsb+xvt3cPttvadsoAKRs6b4RBeAFY1yIS/sy7rBibNrv6YNb+83+/YJfvFenxIpWyNKdJ2xhCVBn4JPLCt7TfSGy81w6t+lBWep6mCKX1wlFSTz8qJe9z3tvf0Fm0t+npv7y73Z5bS5OO8pNzyYV0o7f+eLhoH37Vjx45Zjcfz9l0uQ5JSyxeOmF0oZCZtvVrCvbi9nZ78+VeVIMG62rOO2i9VRK/nFQ9AFH9/L3i6m8L/yTfoHuuOG99Q7N27tqIfXF6yK7en6VThuSTPpvomOIrBUI6LhJSUSmeEJccq4BFwgLYvwewuzY2Sn7yFRWglLXxGfI9MmMXb43Yuetjdv3OtD3sm0fSNqIM0UWTIp+nk5WUqdArVdFZokSe6hInAjdWCrYYsJ6tJN/qOK/tzCNlm+3fHOmkDOg8IzVU3jH7GQSspxQJVa17OFyyE5em7Nef3rLbj9SUUsAZ9TarTFuJsPA9+o93ucaMxXvtmMRIgdaLjrvoE+l5mjRXDubmUMrpNHXO2ys7mwBspz23oZGeM+qD6zvqNwNswhXJ4vkrU/YpuuzRc4P2aJR4pRqgQyqNDLqcmqTGQpFOWM5eRTV4jU7Y8+ubXNLmlTa/wGyvKZ6LACvlTb/qhdfKBQwqWZ6hEzYwOmufn3psX58btSsIg4lis7RpH5RTFchQAF5AlRj0sCh+mOEqQWsC2DcF2AZUI7WQGsZDZ4VPs2RucHzWziNpv7k4aucujtngWMEm57Iu2XMNqEiE8Hzgd55KtbJKkM5dJFJuy7lHP+EeeJhySyqMRqgkZZvyc/biC/X2dz/tptVstTZUO2/lEhYsBCyO0GzXHkzab77qo3c7Qi1ldLOk3nVdKpXVPkZGx7vCxYzFe+24HKyx9ruXwExJWYZMac0nGZbK2r4Xmu3dQ122Y0s9vWYA7U1IKGKloOpIOdrIRAlJM2Gf0Qn78Ks7Nl/XxchBA2BBGucFEWmSqBeMz27smbefHFInrNO29DRZPeSHAR9VAakS8i3WK5x+6fzpW/WSr1BI/OXDLMGv3Zu0L6Hj67M014/nbSaDVJROzk/VUdLuSZdL2Jw6XQJswf7+SA+ArUe2ijYVryoilYD4VJ5D40W7eX/azlwYt6+/6beHgyWbJe+FphaGv2hOc3kqOf4rgH1S+spdOoeitJabuCJ+rf6SUMrbtO3agpoDYF/e2WGdCCCNcYh5WY2jL5Cw0DnLt7PXh+2/fnDTzt8q29hUHR0HwApTv9tVK/PK4AoX1KebXRV7Fj0vi8jMIQ2bclO2b3uTvba/017bR8YAaz2qgAabhR/dlIqnBN+kl/cNz9Ekj9mvP35kd/rKNjINRMlXLg9LqBwZxgPVCWupm7K925p8uOuVXZ22rqNgdYjY0B0VKFQUAkYELI+pa2HuFC4pOD6UAaN0zEs3J+04owZfnRm0x7xPMWw3n61j5ILunmqr5yAVaepRPeaqhC3Y3x1h3HJTI9opLQXA09CdpkAkZSXhZxipGKbC3kcd+gZ9/sTZx3bn8ayVcq02TXbmmVTxH+lmCfPkK3I1ncv4HO8hhlBRnxxb5WuS5yyA3bYxx9h4l73+Yrv1tuWtjvzOl0qWo2IxDgt0SUcs0jUNIE5dGbT/+1fX7fqjAj1MjeMV+K4CelZXTC2dwbSbCNI3gTYBHQWgZjlHs1HPsNaWtWavv9TuPfttG5sAFBR6FITBj9dGgOXyjXAaC5lBgjzsn7Mvvxm1r04PU2hlm2C4rAwjpDnKt/TivEl6z9s+OmFvHOi2/S+0WBuTCoWcwMpPYKgANtJd5Y0or156S35+A/aljPWjdl1gkP/DYw/s4r0JG6TyaNgtA+zUAauWSDWmyhM0ZBmO6mhVp6tgf/vmOgALD+CZZLTy4qMBBNCYcokinoPsSYZcb92fsdPnH9u3l4fs5gMqSrHO5jT7RsX10QP4uDRHlZR5SOUn7ezuVYcQh/yu5sI3dLpQoi+xqTdLP6Ld3nm5wzZ2F2j1+BIBW6LXpcj1U0YnKNSTl4ftv7x/y2711dNkUJjqocOIZ3OFrHiKMDLWwtC8ihAy6aBIZTYBbxai6/nW1Vy2I6902OEDnbadXmUrirladVFYBqzF4qwV8gUKVZUspCBdVnJuigmRBwNz9ttPBu3M1Ul7MCTQShoFvxn10gFtfWbKmfUyow4/fa3bNq+tsxZmlnIRsBFUC9QWEuBKUe7vMY/+BW5DIp0wsweDjM+eG7Avzg7YnX5as5kCwKIlY3hJnFn2goZcbjYBbJ394s31ALZFUEdCSp4HmS46csp4cql7OTo1bwNjs3b20pD9/tP7tDp5Omh5RiyQzzlA600UAZznCpgAuBKNHiov8pBcUKwwtT5FLzXvAX1AgaS8PWCUZ972b2+0/+VIt21b3+DDWzk85NRiCLBKRf7nKPKHIyU7dm7I/uUPd6xvrIWhEBR4mrGF7AuJBOpqU5iRGK9UhUCpYonAVLKom+4iHdPhBrPmNbPBGGOIFRDxQBcBEM1YrjRh3YB1L5Lv529v9sHyduk4kq54DVVKElYD65HGKuWKU/P8U3Nqksfto68f22enBpBuKqgmVEiNQ+KpXETKalyQTlhH1t47ss4OMi64aV09HTM8CHSKiKhz9LTTl4LXugIVSQXFk8ZnJ2mq+8bn7KNjfQy9DdsNRg5mitgbaOjJc1OlvRongR2wkrBFxo3rA2A3Alh9EkcVLAnq9UtEKWPwdo6KJmk7wLDl1RuT9umXfXb59pT1TdC65hi6pKIHmxDxEIAQmYMpiSLQsbA6LXwLPlb9V7TFC5oZT4HH07aua9b+7b/ZROvWYT1tdfRbqKQIIAes4CrMTMOkS7cn7KtvBpn/7mfyoIXMIWGdETFW3VMcEaL8l/6Oj5qADRKQ2TV0RemkzP+TsuS3ZmLE6LLASnOn2mYMdvtQls81TzJQPo9EbWVyYL0doEPU2ZoP8eBV+FQQ/qfoCW8VyiBVeVFHZGBszk5eHLZPAOwppm813COgCPYqW9XobKnIbEvJtj/XYD95o9v27Wyl9qNT4cttDkg04xWjFgcqqQaaiFPVVT8lIMDO8WNCkSEuOmGnHtnxM332qL+EvQGgeZIKBvDy9Dw72uaZ6Wq2vz6yyXZsbLN6opZKoP/ipRKmGAJxPGg0RP2CIvry9GzGRsbKdvvuhB3/dsxO09rcHJh2nV7jtBmG/XJIARc6xKvLafd8hPfq35Cz6vtTPCVxxxAZxsYLTCB0tkzbP/7NJjpenQiNeiwiJGHht4xflCf4ZtPk8ti3j+3TE/126uI0w1ktZI7mCXeBoXol3HAHpbgoVVwEWM9i6pM3VEjKOnq4a9e0MCxF042/AgwqebNM1QGs5QSwGQEW6Z5D4uXQK9d219ueF7rt4IGNATiI6ChVnSIVkEppmUsZ1U+UzaDU3mG+/SRg/eDYIyYYmPufVQFJyuZd96NpgUGz1lg3Y4fQlw+/1GF7X2i1zvocUgC6BAziSmWxZsqqAFWOkToOaraL8FWjFONI2gvXh+zbiwPYP0zTW0+AUjM20iPdDDNAzc0Z2/lcox3eu8Y2dTfS0xBWkfgk5gMNpCMJGdJXupQy/JZRTBE1T7p0CT5cYCLjKCMWx85rFq7I2DAVBvVAooTgTrvEbADsYg6HnNXmgb6tcC0KKMDmUcfamqbtH5CwB5ku39TdgJ0BeQuAnXfAolJR481+99lN+8PRx3blPjMxzHmXUMjFhoVmb4HIQIpSXJQqLgGwwUf8m0GiFrKT1k2H5o1Xt1pLI2YgDHLWU/JlACtJP4+EdcDCnpxbYUkSq4vDbBS99c1rWxhvbXcmhlRj+mJo9V9MM31HsJMOaRBEFXQSQX4HffYPp0bs5PkBe8RwT5FJhXn0SEZzKWgKF1PEUnHE1vXk7CAjEj97Y61tx96gmZm00Mmrlftqqs4p0qsWnV4CYFVxpFfqLkk7MT1v4yOoUhRGbIarMSVPRKQWAtLddqajJWM9zZgaUkyqvJKw4JA4nZvkQ/xT+vxRSqQtdcPBiKvommJo6PrdWWYDR+ybS/3WP56DHvov6A4ZdQ6EeEKJH36pEoQn/uqp+lZx5iGqf2m3Jc+Kmksx6FGAlXBqaZiyv3lvk722l/Hw3gZrkXDCkw9rqTYKsBrS+vXHNxin7LMbjxkRKzfRhGrC71kBFumaHbPNvSX7p3/YzcxSkzXX06yTfj4R4c5oZxBuMMYLAbpUAaSrasq1riC9Udnj5yWrZ5ioGpj8w2HpJe/iOXcBdpqSH5wo2xWGeH7/1bBdujllw2M0mwA2KwmEZC/RImTp4NRjJKOO16vYGvzVa71MWNQheZOCI77YAjk54n5y6VHZSTk55XKQkeSc61vuy7OiCuX+CbPkwpucRbvKS1cdrNDogDgS0lAHUhJWPgWZABvdwxXSkm+5iB3qo4xjOHO/r0jFnQC0mCmipoxhg1D2qWOVQgghuIcr3vWm7yH18C3+DeHiW817Eo1C6zECtrluwv7qnc32+r4u276+0drFazwFwOIRmwkH7PsfI2G/emzXHiLTZLupcUHV01gilVQjgUomTXzwUEvCquNUD2C3rivbv/93u20T0rLFActkQIyXaGNskgxitPNexMpPTNb940GeEw8JfPzLUnpxlvdESGhqV4B9PFa0s3cmAOygXUPKTExLskrKqiDRJ5FlmQIKP0NpLXVlKluBacON9vL2FjoGBWY3KXjR6XQhOXlRZyVechZ5abLVzIps/TTkpI+CT/BDeNyq/qOrIgphHGT4V/ggQcUj+dMvApZHj1PKR4gv+AhVWl/1PfRemGAAtFMMe919XLKzWHrJeOYqtryjdEhn6cfQ7SV6tQZKPVLvkRA/MSvyyhVSCkCuOCYPCzyGqBL6FKsAm8WYu6kwYW8f2sjQ1hrb+1yTtWKs7rFq4kA1UrVWEvb9T244YK+iEsiksBw7IssOKC8kPpK3HGAbM+NMec4D2F1ILA1JScJSJYhGBDnfPZKEySrQ5Ip1xl3cc5Jfvi8G6OJ3j4KAEbAlJNvwRJGx5in7XKZ/F0ZRCai4WFFlpOLzvQxqUQoQ9RQ6dOQwgWvFskuTCT/BHFGjFer4oXF6h0DIVLxZKbfJ5UxW3mI2cBC/q1f8oLvyHAAWcuah3Wv0pZcIM7lRvZK48etDbVRxPernfgPABFpRFeCqv/oaoK9Y9FUpT81lAO2sXbw+ziTDgN24V6KDijt6NdUWP7SBxL14NQFOijy59KDUqnyIX4KnikeIDOUsakVRFbDj9iZmou8C2Be30BLLMlTUq9Mlj2piZuDkbz+7Zh8efUTPNQ9gO1yHDZ2uVCKV1BVSV7yHN/2tDVg6MJkJjBoA7D/ttOd6m62tIfS6JU0r8XhSckji1bsyVoME9+Ef9LHq4UmAFcM1r3+LKejjF4bsg+OPrW9UhYUkweA5q0H0CFh1VBCfWvWQReLmAW0LnbC3sdl88xWY+Xwz+qxWKhAp/8VMxR8vPXre5M5P3tA2KpdLP8+EnBIAof7gu+Jn8YO+hF+AX0gw0CjFNobUXSqW1IMgZQNoveCdV6TjngUWqgrEabRmGjDIuuw6JpFfnHyM4fkMU/To/EVJWjLgyiT3VC1UPr0YnFi9rQ6wcZWLCBEpEbBSCX725mZ7m4mbnRj2aDjRx2FZnuBCR4TMQOyXp++5kciZqyUbm2ZYiyEWJS5iFhSEw9ypq/mnNmAZY2PI4vl1hoR9AQkr45IEsABk4cW7GOKcCAwP33Fb4JWicE65RydST06wP1RCeTipAm45NcIIwcV++5yhpAsYVauT4SMiSBHNq0sd0PiJFyUgyNJzzuGusWOpNr3tjIHubbK/frMHg5kGGKpwggW0Bv3AE1YWQmVMyCb8Aj7KVwqfLrk0Fr0wkx5X/CMBEligvAc26VuAL24KziU/qhxRn1WoAKME6PIT/RKPWlmnjYBF1KVxpozPXxtmKncQM8VxJlm0ak6GUGjManGT/IaU/ZUYdBHZagBLOjEnotbzggqGJTOq4oT94r0trsNu7QWwNMEO2PK8FAHNkssyNGtX7jJteaYftaCfpqCZ8UkZvohAEVG9KpWr6rTgaTnAykhXEvaXAPY5VAKXsEQtGwFnsW4xrQjYavEkaeDJKwwBnWmijZ9zW4URXt2JR0WpS0FmKYiRcelpw3b0zEOf1Rua1QqABoIH2aNwMirW+IlLRfgiLTuH5M3LwovOWH12wrbSeXzjxSZvuno7660h6YSpLOPlgNWLSNY9kqlnLnl10CREetajSHYfNf6QT3lXNQ5XePJWRemk8M6QK3mTr1Dp9ViRsNGvvvKh5IXK+AHP0oml1/azxOfSrTH7luG/s1cn7DF2teN0xorqjIsXkW4lEctNz0kqVRrdkT9OTHjxsCKCX1LWbnCZn7Lejln72/ees5cYh10Hb+v5Lks9VALGUohcdU+gHaRWnbo4aP/tg1vMtWNLwFxzCeMI+YmXQ8ITSyUeP/odMj3zCxyRNFh/5iZdwv7yH7djDxAAW8CvN2See8XJT/EnjzGWdG1Me3CmOFiDT6cqiULOsfy0OHAMvfUG1lKfHX9kpy8N2u1+RgIKXfResJcAKNIhdbmJBTREwEo/zMIHzbZIXcjOM/SSZ1lOVxHG7rK921utF1tODWCky01sqHIuUB1JrWSPJEM6JCzPngFnsEipcYXMLfCBUyVYQrcCQraDUX7FP/mpyNfoT3c+BEkcBrx8ipfAmtAbGIVnDzR6MGwXb03ZXaaRhzFA13iuB1RCijmdcU8luIdUeRYRuqI/Mh0WbYvn+EIV0rKlNW0l2/18nf2cKedtzOB1MGanyWr1dQDsJNGor0nicGsGyi/dGbdff3LfTl3CKGMiR2dMxhGhHx9wGLItIivEiBAuffHEK9S5g/8JgJUOW7Zf/uNO28ooQVuDplYVi35JvNCwBO8h4iQySI7vYrZeIjP0KfkWCiHo54wWYbVUtgeP6WR9/QjdrM/uDuCmtWqFZue79KcMowF68cZTEXi80ONiUxSGyDVLZ3NjzC6NY4Sz0X6Oid8+QNvaiA9AkpDg+agF2Mp35SjSruf4Qc8rXjHgokDRmfAJ+ZUk5HOB78SvKkx4hJsARzzU+i5ZmtAooR4W7d7AjK/e+ObKtF2/j2E/dgnCjHjiM2KR8TXpVoT6UE1drz4L4C0ZowMs12nIT9uO5+rtvdfXYpCPFV6rLOVIhWBCYACsZncArCLQzMvjUWxHWeL9wRd33TJ+eBJLS9b263JweKLVhOWuIq5ewVf1PTwBfebnxxnWmrf/kAC2NQFskIPKetJgBUFHhkLYCi9isn4PHytbK8Dc8FkMhFZeNIiuQfYpEPuoH2NmFuj97qO7dCKyNjqrxZWoAjl1QVVI6nqiyXm0ghmBK+krZn66cWkyw4rYNxQ1jTiHMU43nTBAu6Pdl3VoUsGBSngPkoSTjqsoq5R6dN/hj2JJiItEeSxJQotirOWz4kUfyU7gNS+edY2S4Kwf8avCi4fXWSP29YUpTCOn7A5jtVphFXTq2ulW0vAH/KhQUpf3E+gvqJTqstO2cU3WXt7Tio1zr21Z12SNzCqqtVaoANiyJKwAK6HLsAxPrD+k11y0z08/ZKp2xK4ztDE120RaargBQ3IPIHUXJAnRLKQlRVZ4dMDmGNaShP23krBYlCeADeOBiiAAVv2OCFaFrgDWX+SgB9J0qgO6w1hkAJozGj+CoBYyP2St/jms7k9iJ/EtNqHTDF+p5WDujQaGvLveqNwrLkXuCXAPVwRYdI4W8lrWUWCobsv6vB3c22FvHVyHqtPAOKI6aqlYiE7U6tI9xh7v/mHVf9IxxUAxpniP7qu4E53GnR2dCg7hXtmhVHwU89WxLfJy5eEsqzamsTKbtLtMIxfRs1w4LAJi7VSJfJG/IGGZjmU6vguD9AM7mjEZbUd3ZRFiMxM4avidY1pLQSmUy1NEAXbRR9xgmjglZWXYe/XeOKs8B+zkuQlmQdBn8BfG4gAuoFXhOmiRNgG8IXO1iZXiIR0WwK4tu4TdUgFs6I2HYnxawCqsD7aQrDgtmEgfT8AKwzXteebyuB09AVjPj9nQKN/pSOrndqMM9FeNxdOtQwSGKIMxKszkksqiPGv0UptyNBboTG7UQsheO7K/m05DgeYtgbnKKQkX7zGqeI/xrv6umGJsMZRi+w4xEo0DFgmqGNXHFhs1E6eJDZXuHE3VKPr/6WsTdvLStF24OWuDrJWThJXakBYukZql90BfrPzeMjIPnWc6vrWhzALEOnudBYgHMDLaiN1IQZMyMFqj4UrAO13zZQxEpb+KQj6qAkjGCLSTFPQFFrAdPTVsnx8fYcUps18st8aeBkxIQEtBJztexQglMbhAFC4kGQ0ZlSDosFIJ0oCFADwrQwAWInwoMhV8QbQh33xVGEFTPz0rH1JtBEjppxo7ZMk606+/+sMDO3V2zO6zcrY4r9aCj/6j2nHXu2IQXL3yCZF6002X/Kau6C7fOc1/01lobyzSeuTtF29vtD3Pt9iadsmEwJIYTYwiRhfv0X3190DfQv+e2kKn1b4JEwC2jMTUlk5ipTphs5TtNNOgg6iJV29hVXZm2C6zIUg/owUlMOPcgnmL81c7WXxL0LmwI35GWzLaQKO+hCpQZ2+jVr2yC1sRpsBlXCTRIxoEWFWlYN8xj8mLl54+kyx51kfJLC1iG2II6DJz7J8ewzDiap8NT9E0+LY/WsqBdzLk+pxCO2BrkypXjV9Khw3DWqgEvWGRmfa0CggVDWRKjFCtSV3LA1YeI2AVPhgsSm8VYO/TUfiKVuLYN2OMemhHG9maYiAoHTRBnfLroFXmPSGxX/GmpS2viy4VlngXFCWMy7E56Gqas1deaMIEsgfLsjbWXfHdebowME5+xfvCr6t9qwWT7xgjUflQntgCD2TIXYQ/IzRPt9kI5BJ9mjOX4OGjkg1NsA4NEHvHVKQ6z1aTrnhB2VIhHOhYwskYan23uVR9G55tXVvPqAALD4lO0YZSUAkFUQLe1AdcmJjYoJ9AO4Oo6kP0n78+Ze9/fttuPJpmHE6mZ414Qk9TaElYhVEKC6Ny9/gnAtY7Xf8OCdsbRgkKUlgdPAoM6BSvKE1dzpP4Lm+ejtINWQoUByZK7qvduI99p+bEP/rysd1FpVEnqwhYVVfpbVaicHYQn+ptyIkS0tMKgPUADlv3LknbSMdhPZMKWnl7CMONPZgjMvtMD3gha5x8Uoh3pfj0V5XaatjvHqPmPFWUyvUs/BlniP7q3Sk7x94GF66Ns5BxjhUoKHbUbqkJkXrnwIICqlKz5AmeuYSVbAGwvR1hlaz2lNi7pY3VJDkMehKe4iWUQjUWsAZl7pw4Og+CiBfh6rRM8WcQSfurL+/bCczwbj+aZQaM4SA6LRWsQUh1eUU1geoTtQvxL5VAxi//IQVYH9aqABZinyRhY3n4PZ0dJ9wZKXVmCDXgNNOuGr46zpLqWfbWmtM2RUKO4hfjYLzuFcBS+0Isojo8JUK4mo3kqeKuePhJFVEx5hIDn20b6YSxOPJtertr2eerYVEnbEE2lsS+WocqtdUQMeaqy2qeFJN0yiLAk63wMCttbz+asVPs5aDdc+6wGcf4NDWP4U31XyJ/QtzwQIJmSdKLHEhEUlxXjpmrxroSQ4EFFpG2YEbYbmtaCrRSiimE89wtyiImjgIsl0pAjI+p6pU3OQm0lL9dezxtv/v8Fgv4+lkbJNNDFs2poPDkQxueEcUB1Cslqm84QYbGYRux1np+Xcl++U870FUkYfNhujP6Jy4HE2EWV1onT1F5fpw6vfEq0AV6xY45gHju2pR9fPSBHWPq9cEwPhra2GMC/TaHD6WBcbh2k3FdQGFJHxz7ndcQGbdIlrul/kR3pZxhOkl7AQRK4FZ5wtoxQN6+OWdvvsrqz5fWWndrnTT/yN0l91TUT/nozE3COGOeMnzIqvimn4ZWB9l18ertMfvixADq4CwbgLBYkb0MMjnUQC9jPIZCTdJSCdQArBha8REetNpEM4WFfNG2bW60dw+3Y6TdjJG2pujD9KvUBglL5cz5zIPnjD+JhFVk/lleKoUVXaXfaQJ3jLXSYeq2D+A+ZjlFG5kkGXV0vNCCblJlgWJQUipQWfFjV5oZQU+Zsf/4f+xwY+zWRghFX3KdRb5FRopAD867nP1aSJ476ZvsA0TnjFoDln58gNXZ6Ysjvpx7jHVSludHOlqvJPZqkj1IxhCtKoNXCO5+RRr0Ukk8fEr/de/67oWjN4pduhk7I3azhGUHKwLewkhmL3vRark4gtbLWkFihawVfXCr9UWpew6cNTJFdAKdEK8+8lC5orrm5YAf+fY21YMJIDjyXzr/OB8eMZx54TpbHLF86CJTsUPstjiNBRdC1ydEQtoCIjRUJEhwdYI8ZSUkWhI8KGxIGZzQj8HibW1Xzo682sNQYDMtbgErOEeJlDX4EvIh0BJTOntpwHpK/HEv8cXvsfaxYNGG6HafZzvHX336kN7iNDMgMjtjBxFsDrK+OkGJKIQ6QrpUQgKsvms16ii667T98v/EloCB4RYA64bZJOtsECNTV+RJdI736EXvKrM5OBr2HpjxFaFfHL9LB6FoozONDKZpJgv5pqypRngkvHCPua04JQ5RgsZ0QpjKW+Uhho8xBcEj7Z9F24UyoM14z/c1xhZ3YybXwf4J8uPpKZZARiU+PVS+LXANL/qmNPWTSaavPSOEgz8p6OAzoSgm5oECbDTdKmc5iedaaTKqWUAWRH5zeQCgoq8yEtA3qOEs7ceFT+8YS9kKobzhjoWTuPonTxw/VGD1FQRchQjWKpKsTL22G1OvTfYTDOG3bahn/JUl9DA8wFR+Qwi56ApU684PvQVy+e9X8JC8VG76Gn5lFG5tFFdi4d64/eazW3aTgeTJOWaLAEUWUIZahyefNVIUxIl09b0NaA4KNs72lnP2v/9ik23srWcX6TDAHlYQwUBPCBK9BDy/Fer8k/74lTyEkvLpw8lpFtXdZ7z11H27ib3A2BRrXxnCKmYYxlLRePY8lhiJ41cvFd7rRf4q6cjhCdey/iTJy+hkJcwoswyEN/sOid0dUh0SUrgvDR6Lp0pT9BNLR1JTcNCUZRtL3LvbsBZjAkZX5Fvwy18Vb7wc0Kh4SFI5a2WxwDuM/cgdlpyfvzPMaMoju/+Q/YAnmFgpah9bLYjkH+WZYXA/ANVFS1LWijxAzPnmaSldVUwpQbpErxaeTlsXeynsZJeew+j32gut0ztZfE8AG/yL+pCD8K6/XoIRsFXnJU9kTFlWgcp4Vys9J2g/HmEv+RF2s1+zpv4WkixX6LEieo5GizyEMpiIKc1Je8+cvxp3a6wv2vZtXWyJSYGyKlVr/cuzM6ESu7EoEtn1GIEsIZxbYJz+6gr9VOk7sqLSyMA4utfw6IyNsiJW89yzqCnatYZljh6Ph6yITifUY3oWf6owU2yRacovll0MdzUWMMzLaZdw5szJS8VeN+YvISIUS3gRz4OUSXiQvGmLUS1Db2sIm338/M0XbOvmDi90T9uDxzACV7wC54rSI3HSJkCjiNcbD+bomA5goXcNtQ8zS7a2LzETOIf9q5vCOM/gN+UU6XaIhuiIaRnAutautGXUohGUcdv1XA4VqYOtoHpZtxXMNQPviKxSNpUYFbhySbQlErbitvSBeFwGk3/piOqA0Xqg15RZUsJ26CfY2IwB+TE6YbNzAMc7H3jyzMUciSSBVuwHoHR8mthJRaZkeSSQlnyXtTcm8aoTF/RB7m7WGEgKYNWzP/ldsboA8WQAOTEWGR+cReHWqlBntuvPiiuEVa0I0vTZA7aqLyqt5HICKWiAq006gkWSdDsuwOp3HgNNQXIFril38WsSl4K4qwA7iy3xLEt12DjtZ1ts59YO5RQPCs3PI8R3qkIorJQADcNrMFNDlueuF+mYPrSz7PZzf5DOFSuHw0pptMk4IhB5R0hFV4sqd6t84EFCyqfMVCrYCeSwIW6b8c2XX9/X6TNZYfiqWp6BByGvVc6Ed/1dPWDJoDKuItZP2daf4ak5O3Nl2L74hulbpjwnOUtgThvHQazPlshf8M1f5UYheUr0IfUWtdOgDHNdMhNOjPYeJ+S5lu9MCOGUtUqBJHFJo/GROeLIMPGsaWYtqpP80M8lluLV5ekqL4rv2QPWSfKEQqEqlVDbdQMmXvNhfAIiSavIFSEh8MgzTMB4VyTp50C7prk7mmbt0K68/W8/3WC7trSS8+TyhBVMZRYqqGIQX7UfgsA6yEYalzEVPHFuDDvXIXbDmbVirs236kzGjTy8p5zQK/57PClJGJP0nEQyiV8+NYSVZ9yzgV0hu9rKGLy32E8PdtsOdgtncMhLx8uUSISvlQFLKkGHjcnWuqs+igBJyOTiQdJEY3Z9bCZ75tqQ/euHtzA/02a6DM7TAcuxsZmDJYbxOBRDAnlJ4BAxWVNOBTDuC6gOX5S6gy3GIeA5NU6IA0FRhfACbQCr6qQ6fEFi63MqHo/DAz3bP0oixsizQFp5x12YddLhXfgXXoOnCNoYQbwrhhiLiphKjj7Z2TzHhml19ndv95hvaOxpu5wNAcmvA9b5hxO80Jj6EFt+XmInR81eXrgxxJg1nStmLzOFFpJR5RaRqA1UMlEU01ZOwjtO7q67LmgL/8Or/hK2xJZRjUy7rmH3nB1bGu0X726wbSziZF8MSii0NopdaTq+korhTopw0SXKnghYZVYA80gp/HCaC07MN5fYFYXtR9gtBnNE9mo6w1KKX31yB+NobbejdVEwwLfohIEu4RSLfmJCBByvAhUuAdyRyJBihGtwJUxEuOKpgFb0JXE72PFNwWgXvwBYMSOJN0avEJVn0fAML5GWis6lqlw8S/pC2u4nwhW3JIB7qYRdTKM8BY8OWOx2td3m63vZbhPAajM47aLkcsv5REruXeqRL6X0uf9RBtQ/Y+OQY6e0GdwcU694qgOohUYfZRGPg2oT7uGZaBW3IlTcSbxVeuUeqRMN4rgUMvRs7Cv2vtDO/r1r/TwGDV/VIayy2nxBvPAKElrCheqLJ6LIKteqAEuUTqvI0Vr9gBNAogQZPC0xcwReObhjzn6PPnuKmbC796fQJVl9mmGHBzZCZtCCREWAgErN4hfAJ1oiWPXMVQGiviSVpOKuB+dc6p6A30WXe3TGaoA7MEDpKquBjWomq4x25+/+J0YUeZvUgvjqBRL9eP5xEZ3898qYkijBseLZaapyXl+JtRIx1ZtOTAf7jL2RAqw2XpbeL3iWAYVLd9515tokC0se0ewfPdUfbAIea6NqBI6PXxNGKykoT58YkEqnvIjOhK9BVsC7BLBKKlIb8lIlz4ewGMKUONvO5MCRl7owu+z2LeAL9F80YuA6vcehsnlGgBXDovwSr7LszuJUSuHUKIBe6TDNAOQRRghOYdmlrY6+ZYnNIFv/lOapubKM0llRLmVDT9O7bg5MgadSCjyLQ1ECiwFq3pUh+UmzKPXsDCWMc09/kvgETH/Un+AWCj2qNok/vj758ogXeSHsAueYRjrOpCKpkjohFCt35dFBi9fY4w6RpyNM4qlUQr7hFPIjfwJsGZUAwO6ps79/p7eiEqhCligb7aigwf4yM3qjY2zLhBA5yxabx7AHfjQsk0tGT1DbSnQEi/QlpPZnfX2PwJqoURJQCwAL7Qlf09JQ9Au0gbMAkgmiuqzOjZhjJmste/h22wu0ANJbfTWDAOs/cuK4UEjKWXF7XCFG/U1fjgSYJz81r8AaZ7H4BZaEUB5SgNWHsIAxb/dYifrNlSE2FxuwCxhMTE430QljClcbcjDEBD38JF2Rzi4B5KCk9Semo8oQSAq6qMiUjzSZ8Zm7Hj0LwFHPHl+4C6ChkHn3S+kFD76ko+I5fk98uR/RE6trSM8licJIAqXChkonOgOtCuf7WMEZb1Hwr9ZJxDi5gC1IqkBwpZicWMURwC3PylPcTVBhtLujQkmOdrLZYAWwmzmUw/2SIvzVWmgt1x5l7dX129N2mh0pTzDG+mgIIGunRlSAeUlVWsoSP8WdZVsi5SUCtqICJnSohXT7YQEr4aNzE7pD7kUAu/uwN5aMsV/aWW9//ZPNtn1TO25okJrpIAX9C2ohr+Kj84UYPLLETbfUpU/+exJg5V9JxMsB4S9JDvRR6XFzjQXg3O3nnCiGSD786j4bMmgLHPbnYo+uYpFCQyRLKmdYu+OFECNecA8pOu3OFH9a4CO8BJjo+Ql1biH9HhXxO4NqxJs4yT7GCwfAVZd6K6t8EFiTpe/y5UGkfiCVfGbHQSWgMsiOnqkZL21ol2VMU9PBQmCJoTw/GE9+8SG+OjiAoSZZXAeHRjVCmkjReVo6nki/MhvpqX5KQ+9i/diRvep09WL83ORu5aQyaEvRfrZdOn8TNYBdvi9hwKK9BuZoJd0mAEOgALpQAQIRyk3CBEk+0cBPlyoVyXoY7V8QwgYa5UernvMSRKUxRi9m0FsbMHDawVaZrCZG1RBLA68Um2LSFe+pdMOHZf8i8ZeXsMuG8g8xMb0EGQF/ObWl5KD9+hzjs9+OMj2KjoukLXLckBcOtHl/SKWxwrWwyVzOM3SE/8t5SLkvpDn1IXmE6ehYbWxS18Z0oVbRTnAayzBTltpT1ceYNXsDYAPAyIvyoQJEY3PAKqakFdEq/gBYgEeFFdglyUqkoSU5wsJCwErCBcD6wXYCLKLAJb3AHYGulMhKl0tYxmHf4ZwuAKtil8HzOHPU9zn2SDt8n+RgwOvstD3AQSQCK8T5z3V8nhyoui+5nDhc4YN/SwALRRGs/gE6ZKqpzaYzpUkmM6Y4VKPF3kEVeJMJgibt8uixLEkAB5VHiL3W11pu3wOwS6NT8tKbxrBAucMOuZ9h7XOGFZa3H2nfJulLkE7hBsH5rABLotQ5pb26K/pcyig1U03sn/U8hw3v3NpgdRiyPhicwxaUZTWcETDrOrwAG6egyY4b7ipOATYBBM1xVH3UuZCBu9dPJK1rBngL2pUkVZCi/iAwJMUrqRtMNxU3oMVfUAlCXjUHFVSCevtbALsdHVH2rJMIjFscyiywfnOZk2qwCRhl9srHxwFHZd+vyAZSVLy6qhzhvfI9ukYH0ZiAlkxpR8MsoxA6dyKHdN21pQ4LtTWAdS1HGOXc2EdceVbXswVskk+BVksrTl8eY1OOYa/lOv1Pu8iEQhU/IgOWz8rqJCzhnwqwT0gPFaAd6frqrgaO8uxkNq4eA+YZ36n7Pj1snRGg+fGMfv6PPKjQBCg1oQlgQxErfypQmkm/q4IiK5PmVHeHiCow9IdLABYggpvcq9/kQ98Jh7umszvZ4PmNvfX2NwxrbeWIpkkW4t3vn2J5/giCYow1eTO0brJfVceXWUiAVShQBuJXJU3lIaQf0oq0JCT5LeWmVkL5dPJdEUR31sYiDGHVT/lu5ToXYgcbuMkSbHnpmo5/9c/QWKF89aFq+SRPIaogNbSm6jFGMtq68cvTOk9gnOEvLRfXvD7Nnue4VkRVN4Fidddq4L9yTC5hsbDatr6AoQrjmnV5ezjAaluk1SAGzVrbJAmorYxkOCKI6gAQn2nj2UEsPR2yVdnED/9JvCKJvNj55noxL/Lv27LjFnmncxl8tzN59vApTiVg9eld9FkB9jW2jP+rN3vd3vY2h3ucOD9kF9kT6x6dq3FNs+rMBN+BEvtfAYiN6kSvaAgEiXBPLMFteMa15hXQEkpG5MhgvcAp6mva2CRvDwcbv7aWzS+aaamSZS7Egrdndj1DwJLR8J8aTaHwY+YWHXaKcb9hdvXu84MnfHkNY7Ouq62QDQfACn7EXiUc7it4XuGz4Kj1ZRg/scQ4pD4pHZbVojJdBJqSpRQ88ooetbazn8fcaV5byqjQybNPD/t6GPXjGXEknNOmb/xklVRmPwP1zvUsAEkyI/yET5pQVeYgZbUxm0ZgAkhwJryWt0ov1kxXO8Pcr2D8fAhr/XlsMc5i/3vx5oz1s+ZqgspFCoRVi6DFkFQk/aOieeVYwDC9BAfxID7zULmid1+Wjauml9Uh5Jg69hnTsaf19pPX19l2pl07OUFSJqPSk0Xys7yeLWChzLMLlfCfWpzBKAZ9lsN6v8Ly/xQn8d3rp2PGyYrz2stqhewEyKycXcE1MnRl38v7kIR1wNKZ8WPoKZRJFuGp05XDlq+Bo+kbtJQNsJXphWuUuLGg7TYBLaUnKM3StExyVtsEpo7TqBA6T0DApaMMyDMcRclu2UxX1jO/Xsc4VB7gl1Bop6kYOtitpQGJiD48wQzU0DgdKAb8tflaaIajiqFd0Di2FGutHdjYbuGIy0lOPLzEuqtHI9ochDQFTNKMS/hDb/9J8AkcXA6w4pp8lMm7KmyOnw7KaCcve56v9yOoDjLe2sYpfNpk2c8jALChlin0s7meHWChJw0cBy4cE3DH0a1uPRy3D798SEdARw2J3VpqrYJYnok/PGA5OpJO17YNedvDCgGB8RHnIFy4MmBNzCmu53jM9Rgcl2aLNjY8xdhiBst57U5C3ikk7eUwMkmrwpTnrXtjfrbsDKMjkphoF9bGRv3r1tTblg111t2RwbwSaAIsorMRllHPIsbXsCqhjK5/+0EJaUmH9TG7q2S1sbSadnGLZotZJA281zHa0N2WY5k0VlYMug4MY/7J7GIYKw2cdcXF9Wv4LAQ/8aLUSCN9BQAHF3XOHLCkrSGsetSB7es5zPhAl73BbNb6Hk57wV2TGsHAJ6gh6fi+7/MzA6yAufAKGVeXRAbDalq/OT/MoW4DnGNLrzs5sC6oBmKLmJkwVHzT20r8TRJMV5SFNDzdm6pRe2PJDu1u9A2LW0HidUDz6dEb1gqQdnCU5J7dXcAPw0jOlJfNdHd7g+uzbNfglvuTmDbe4WDpU5xpex5LtvuP2c4IUGrj460cEf/SXmZ9tjRYB3sW1IPBsOkapn5IckntZqaDtMznDMNRn54cxvxv2IrZVkCrFkk80VCZFAVJMQAPOHL8pPfKVlkb92lSxDnqfIxSzjmqGDyeNGeCi2LXT38Tv87/WLJ6EWC1eH7abXzXNJXs3VfWc/QSeUJvbZXJKIBVuQVrPZjyjK9nBthqdgOFnlcyKHeNGmg+W3PZpzi07nMNZN+ZRCqETkFJOlaiu4mh3nyppivjHsOTc/0sAdtJIby+t9F+driH5rnBz7L68Mur1s7OhALrgX09SGGabIa5hoY41n1gErUBiQf4ujizYePGDptjWcZZtkP6msp59nI/krTetgHWfbvY1WRfNz11JOr4DNPXEzT909be2uiSureDwyeIexrQn8Bc88NjdFY5/bvIag4dTq0RAmmmarcEiqCVisMBVD4CIaYlV2Ch3uMvgjFxkj9ns+IQTBWPOB506DDeKnfCywvf59m1Ma+DVdhh8OUdrfY2Cyx3bGxlZov1ar7TDc0M3oNNgh4U7mkuT2iZAMJG6J4u42H1zssnIzjBBDxoqvAmnbATnML32amHbM7GDniTnPeqbdo5XVu6mxeDmi7ntmL10E8k5FkD9siLrOZkh+1mAHv55qR99NUV6+R8rhcB7Ev7e62JdWgPof3CFY52x9hH4KvnkKxtz3fYG4c2Y6icQTJPsOr0McvM71lPZ6u9zGkor7zIiePPtbDz97hdxCTzxt0Rtv+Z5nsjx95zDtgLXbYB2zudDXscwP7ha7ZWujbKNKuWqshcU9ARqPQkUDiU/N35j2MsB7FPV/QRkJNU/0UgAgT4JE7diTMAFtCqVhCRCxBPVpJ9zDrbZtGd63zVwD72EuhtrUc9CaMjkTavUYp2UVqiafkrIXpZD88QsMumkfpA3WOoha3a2fLyd0fvYiQzRMFrzlu7B7LPAStwHbRq0hywsXCenJE/FmAbAewljJw//uqyH7m0LwFsAV3gLGPMx04N2inGmXUuQBNmdLsxo3vvra22b0vOHlAxvzzxyH7/5R17bn0n5nXrbB+H4eWZVFdlPXGuj3NfJ1CX8lSMku3fsQarpvX2KlJLZ2edYD+AD44P2lkmLbTMR+OoAlIErNi6qnHqCqg9BHEsvRxTmq3io0DqY8F+l98AWLQOZrLYQb2OZS7b2EuAs2BfP9BjPU15Dt/z08GWRqzEnhqwtSiMUf/AgBX8pB5o+vYGM2H/+uENlmZMYKDRgN5Gx4LzBbxgvHcpKaKmL6n5keYa9z8GYH+ChA2AnbRPAGxHa872c+TRqzSB+caCfYWZ3pcA6vyVSTRKjvSsn7UXGCx/5/AGDnprsqHBafz02Qef3bEdW7vtnUPr7IWtbb71z4fH7rObyrA9HpTFWyMD72wkt6mVhXlr7L2DnQ7EE4yo/H4BYKWbSoqJi+FaEbAOlgQxTwKO4mWkwo1eKIE4o6YpZs1kSXZoObn2zdm+pWCHDrTQYrTSgazjVHVjJbRWvYq2JyUSqa51F0jTQNVz7biemUpQi4zFbpGkIpkfQ9Ie1xkDp2VDO0KnrIWCZ3pR+xzI2ADPDlYeQpO1OLbq+7MFbNGOsA28A7YRCUvT/gkqQTvLsx2wL6+jY1Ow3318laM2R+zxEBZpSMk6tjnftrnB3gawr3Gc5tAwW1J+089CzQd2YNc6P8Bjw7oGtk/iTLCj9zmlZcyGOUQuJ1WoxL6o7ON/EJXhb99aw+6fGXYIHF8CWNkihDnekPcVAeJlzp+k7CP/q5zTk6QW8WpjERneOOMZcfbOk/Rlfgxf1TNPrKG+w9gHvLqvjY5jI+cQ6OxxjV0zeMYPyC6MelVvkarF99px/aCAjfSLNE1YPmJ167HznKfw5X27xpz3TAm1ANM37SGgnfREcqJ1xaA1788csPsSwDbUoxIIsHS6WoKEfeXAWux/8/bf3//WTnLc5XSpF50TCZOfRMIyunCY4yZ3NdrgIJv+Ymb5GXrswX0bGfbptN7uOnT4afuQHcAvOWC1Yhh1CPvRdWsa7FWWPf/DT9f42OyJS6P2O3TYC1SYks6ZQL4F5AUJuzqwKki14CMkFjIxDVilobaf0tGPUtJeEnlGJjSrtuO5ZjtycI3t5OScNXRCZTKoMQjql4NVz4FGbunEqiS4j4V/okfd47N81A70JwGs6FK/Shu23aVZPMFGw//Pr86xqFE2mq3wmKXGvtuDiIahop8rnZ3gEv7W6jcq/qe9NKyldVKSsOp0NdC7jxK2kxOl9+3utpf3r6UYc/bP//qNnUDCTpV63Aqqvg7regbxf/r6c/YqdqCP+yZdwn5xCsDu32hHXu7ifN06xlWLrDTuA7CjNoC0Zb96X6inc3Rf3vczHq0AABNFSURBVNVaAexRhgB/yynfVznsrkynVMN/rsOmVIJl85fO+6oByzSIS9gqYF0dYBeb1oYZDLBz9u4bPewy2MkIgXawQaCQjuSqgBp/XrAqsVhYkZZ4X0J09BjvSzwscPjTABYSJCdE4iSzO3f6Z+z/+/1dO8+cfd8w+wmwvAbNiJ8amVBveanwQM/p69kBVpIElQAJK8A2SsKyy83HSNhO7Dr37VoDYHtZfAlg/+VbO8Hu5FOlbma3jJWh7M3PZMPP3thih3fVM+EwaZ8D1g+/vMfJ4+vpdPXa5g3NGFAXkbAPUAlGrB9LsHkmCbT79IYeJCxz8Vo9kMfy/ygG17892o8BC4CVbu9gghdpwC4LghR3VgQsfqXD+k9zdyqVIGH9tHWGsZ4HrIcPtHNIxkZMGnM+/qwpnwBTiPD/ms/DTeqFfvGKNMZ7dK/cFY+ueA9vy/39wQEbyQoNWwDuGJMKlzkG/bef3sLKaBxTPuZGNWrgma+SHsPGe+WLhmMWXd9NwqYB22uNjXUAdhTAMqzFWOm+XT0Alg1DXMKeDRK23AlgWQRUmLGdW1sCYHcDWAzZPzv+0H7zyS223Fxr7762gaa0nU30ygD2HvYVAxjWMAnAhEDBplAn2th9eq39jM3j1Nx/xdlYvznax5mvc6gEqrxhyC9wLMmsekMrXkJTQEvat/MHh/BFagEsl6M8USm0+bTGWzf1mr3KodCHyPd2xlub8CjFIezpRbfYxaw6xwpDqapixXJT5PG3LJ2Rqnhf1qN/+EEBK5LSv8CsUARSDz766rZ9gg3tuZvaEonZHVnxe20NuV5WV/0jAFY7kwiwlyuAbbD9APYlB2weleAcna5hdNhOVAJ2sOHw5B1bAmBfRcL2MaEgwP7q45tsJb+GUYL1tp9hrTqGxL46Q0fzwmMf1tKkSauGtXauYYoTP0jpIhXg8zNIWKkE9+ZQCTTcp2EtqUexYLk7YOP7cgUtaQf/+B99Lq7MgMClowyxBTaZ3BTymAs2T9nhlxi+YqPhXVvbrYkZO4absX1Nklac+tEh89k3SX8BFvsJpeX1JCVsa1NYoar250WufxLARunqTQgEqSA0RjvMHvVfnHpk/+/7tzgUREYc6LRuJKNaq6LiX8IkhdLFa3hcBFr5e9or6LAsnY6dLgB7BTXlky8voxIA2N2JSkBF+uf//4J9rTHYYptbZDUkgH339S12gN1Y+uh0SX/99af32Pys1UcADh3otK10WG5z+opmwC5fH2RrpUnbvJ6e996gH/YwYzRF7f3sm2H7DYf7XUEl0EZ6krCClTNAeQccPlbtytWTciq1KjDDecdzNNgOPApNuZa4uJSlcLRngCzBnt+ct5+/vcH3BOthlCSPBzcqF2BViCDS5YkDVvRQii5hJWj4nNSVJ1EXy7F6f7LvHxSwIkUwE/D0NwyCi5khZ1NMSd5nD9ozF+hwfHbb7o/lbZL1YNrte55xQjHYLfU1ws0lBks6JMXhbt/nj4ytO5qxJWAc9d3XuplSrbOrGtb6AsBiC7CfOfOX9q3zPbv+268v+QrU0Wntv5BjSlWbnLXZu3S69u8qMCEybZ+dHAKwj5BWdZznUGB4q8UOH+yx9nZZZzHLh43tLOpQK4PvbZjktbMxWjub42EcZp+eHrX3v9B5AlNwSsN8Aix3pJdzUeDQOKlnOPAj5j1dWYOAky9VeIGV0IFx3IU8jbXyRY8s46njuQ0xKguwQ+ith/a32Tr2bm3wMwcSf+nkPGrcFScpBHUgpOrEBQIjaSvckzjcV6B5cYAfHLCBgNC4B8DKRRlkXyzKYAodT4X9wecP7CTHoN8dkhWUhroY2sHO1NUjZ470rqB7qSicWX5XfN/tkpxvZYO6AzsbaAZpAgHsLQBz9PhNwJS33dvbbS+TB3Mcx/7bj25y2jUHlUzTIcJOQmOSOrXvNcZp97yQZXx2lj3HsFA7NkS5ZRjDLLIfbt720bHaSrPfrgPTGA/yugdIynQ+9b6+p54lRhmmZfvt/c/6WZKt/cqEMrVHAqx0Wa4EsOGl1l94QrDYismHAOtSkScHLYlrgWMELIe5WCsG7FupXNpt8U2GsDYA1iZ2SJShjccgVqf5HKKUY7j8u3vmXR/jh9XcYznKrwIuDfwnAqwIisTpHohTwZfR3yaw0/uWGaRPTj6ybzkGvW8MewOpBhyviTlQYDYF6MvOCRsAqzbKuaXIv9OlCtSIeeFmztySRVUdvfU+OkZXb2BeSKFt5PytTRvY2Q998sx5jv28N82meBozll1slqM7MXLZ3Gwbesu+e+J19M+z16Z9YWMzowgdjECs6S5YL/vidjBM1gTI1cxqBYDOsO3qaLS9Ozp8N5YPvnjAdqYPMcTGOJusSZfXytwwGwW/FE6K1NIyTfIe+Csj8TRfgkELLoQLklafqQokUodx+AZOMX11T4sfP7SfQ/IQrF6pPBn8Ka6QpNLn4kUlkDjKRV6SC0EUPEeHFe5pWhVwaeAfFrCVjCR0R3pwR8bANxxgijodA6PMhJ1l4wedJM3Q0pg21mV8Flu+wBBJGulLLp2JQBKnyqkkgae9qTDQ6ZJZHi0j0WIC7aqvNVQ6qUwdiRwnJ+rcKlmgSePTGbRZF/3QwLilNpLI+mF1LAnCCq25fo4lLHNs3qwe/yx7W01jqcbxSzT9RG4tTWWmbTGO2beB02d62UHcsEF4wO8xw37ajER5plo6YAGu92ZCNa1RpkmmQ+Gr1ag01wl/xGYHA/HIOFw9/jry3IYx9r6dBcaSGW/exYpXvuub2r/QqHlBJUkq/uRyenj2eKOj7gr5NFegOYRQZEsiVGvg1eZpYv3uflN5TEciEgRYAU5LMGTbKaOQ+31sAIFl16fMyV9+OBeMZARaL0ABVr1RZYpw4qhzNR3z0z8LBuosRJrUcVYlAlmkpNRYF5WXkXUiYfSZ5zherDVeWsaSz9F8+1KZMjogs2QsZdnOdGYjxtbXrw/YAwzax9mUTV0iTftue77Ldr7QbRvWNXM+AxZi2BscZ+/dcqYjxC3lHd8BrGroww/HmlcoamimnVclhCj/uTsAU5a0KFFryHLap4tdZLZtqvfJgT2sZ1vL5EAd/PQVv4QMXA73KptDKv5RVETg6tmv5Ht8XfEuGtPX0vA/LGBFy2Ka3ElAlYTkl0hKjfZNTmfYLHnSjl8YtI9PSp9jdJDdvn1SAbC61IFbC5o3vn7vK+FTqMuxSoh0wRVoesEIsACB0uNgk6SsBOnwzzcN4VlDRGvYdfvA7jY6Y21sk88J6WNTrFiYthnWigmwjagb7djCNrB+RnsKHAOop7Bku3mftTacI+Fz/aqk+A15TcAqmwu51ciwQCWgLgCsu+Eu+tV6lFhMgx4ra7GtgPVNJjdeYratt71g9P/CqICvIVMK5Et8gQ7ngr8kjEpuSwFbg7Dv6fTDA1YEu8TSQ8wwRa9VeNopxeewMb7wXnEdA+1mN1gT9v7n9zksYtr6h2X0rWXL6jWLjfwkMUIJKdLvfSnOeAkOojJtHA3TAuVJL1tURNjoSZqCwsifANtMo7AF3Xc3Q1p7X2jmMGWttKLY6eRobkmZYLEBqsCcXbo9ynZPg5wrxn4CUwJkM3UYkAgg/C97R6kK2ISSSO6CuwDr6o1LWD4JbMTjQNZsFqsHdILjRk5vfIVNht97a7P1tLJ0h86fJgfUfol+J5Bnz1cCWKFX//xaIlmDc/ycvD2T2w8M2ArEAvGJ1FDGXMI6WJlfdyaJXdgUoBqMsP37Gfbq+uz4Yzt3ZYpVrJgi6hRuJEwArGp/kHbPgive+hKR14EEvcKLCkx335WFlH30GJod1D7epooDHFwY8l3ARkJpirOpIYPBSIHp2QY6ZyxERKORhVMdWwYVMZ6ZYC2YZr4u3+5npo8l5SzPLsswhnxquCkAFtAw5hkqKImguwQVoVaulbYAq6EveCNeIwTUactATxagFtgVu5AbxQKrGysz7HXp8AUDT+0nwM8rHAxQK8K/ANgEqM4XmMG1rCFO+FyLuO/s9icALMzzGq8cS4IkTR3MDRZC6olQ+3Gfp7DKMFmL9B4Nz9oJmspjbH907tocQGbPLoa6KBIKTYCVJFDcNa4lEiBBYQ2vlFMY6+VbGDbDAe++tZDAIncQqc5I2N2FVoGSDOd+qRNIdfOpoJBPgUYRSJ0tsEq2nua3jjOqBAgZm7A3CiMjQJ/fLGJ2fJpxVyqiFh0q7yXAmtdGeiKMfJYcsFDBaIkD1lOs/SdIUgFWGYDXTECoc6i9BHI2wfkS4wzTNdlbbCu0D6OWTuwESNWlP10xr5ii3QEb2CAqAi1ihC6REf6E9z/y3z8hYJUzgTUCVowR6ARW3eWu6Ug25eHTNPaz1zlT4SSTCl+dGbWHg0wqzCGB9R2flUqwAJxiL1dyCy/6uwyw+SIJql+4wosKRBJcU5B+AViXnri5lIW+LBIxDDlBvfy5Xz4AbF3+V62A8udSmfwlEq/sTX7wxbpXgK3hOxpjKkKR5TJ5+dNnABskLLEpn0leQwrysPjSF3ipygVEORSTVwCJQUt74wzDd1l79whn4jJ8JWsxdbI0y5UD1P4vYYRiqfKEZMlNZJG+LSthF5PzDN5/YMCKYhVaZLGyLWCKp5JYgcGhAdK3KIHlgYV7HF9z9c44nZIhtuOZYg1+FtBqNxlUA48yFmKIU6wNnE3SU5TObL0nbnKKF99jNH7nj0sPj0dSPAlD6YVHvQNaf5cES/ISwZqkEUIJ9MpjyL8v0iPvPpTnuoaIUAVQz514RAsBZWYp8AQ6RINUArx6XvyPAta8lK54WWbkQjHUaxy7yCk+OVY4MNZ8hD2w3nqly7roZOUhX2PCqoDyG4bpkvi5hbhCssE15MoTXiAkapLyzBz/BIAV7TGzixke3WEyTIv1WL4EBT9TCv1OnbA/HOPkk+uTmOtpGTmqgxtcBICrq+CsFaNdEvFaiZE0vGBiWvq20iVaqpfrk9XX5ElUxvykfUeP0U13ftFrfIifk5Si1NLwWcWrh0yHjXHXviukOosCrJaCa4+OXIlz0jiF8DU6Wb94ZyPDV1mdaOqX59J5k8SnmqFfQoBXFD6l6Ul8/mC3PxFgV86f5JAUA11ipHgqiaM1+zqN8QK96a85W+oc07ePBgRmdcTCfLsA68Xs/A4Mj/DXlyCOFwLBE3rinwDaIOnSHmPxxXv8VkFg4pB+j8/xHsMsvbuP0Hws/biCiwPMt0ICsOwl0JCbtHXsKHhozxoOI+62PVtbOazatY9EuxDXU5dHkMpX6lG+VqJ+kfdUxN/98UcLWIFVPzFFzaQAK7BIr5tmJqyPgxUu3R5hEeMw22FOWD82B1Oz4bvvfEKIcOADQINzYp7krs/du7Tl5amvWATxrgj0nH5fHGks1niP3/W+2C1+W3gP48EL3VZ+C3FnZLSSZdUANhIb12APwULJl3d2YdvaZt0s+8nBHG/RkaxL6SFfDtoktUXZXIn6Rd5XJnkVPn6UgBUjImDVL5dU1ACWdCsZghQFWprK4ck5tvSZsG+ZDbtxh4N8R+fCnlb0ttVJ06ne0gC9i06kMlDWUE2QlavgzhIvsQjiPXpQVVjuqgWEWNTxvlzY4P60gJUOrD276tjkqpHtkeo4hXEd68n2sffBXmx213c30OnSmix4WlGZVO0W00M+VwHYxaFEtTi0mEshN9/v748SsMpSHCtQp0GMDFuqSQZg1w4TdUAaghapymZtSNsRpjm1bPo+ex7ceTho1249pJM2yz61+Ne2LD6cQzwCbC0Or5qPtYrijwvYqMKsSKLAR/4aGhutu6vdNmE4vplTXHi0HjYCWd/VyNAVWyRheiXrKwkCXzFAxMpVGNVenIq+/HiuHy1gow4rwAqmAmxgXZADDmNAqyEvDf3MsKf7FDv9TbBb4gi7qQyMjjOCUAr7Tbls1sCOAPt9a36tAqzlFgu5Vu2o5Rb917oHLtT6Et0iBeJHjvPTGlmiri2QutswD2R5ayM/7dmqY1JdqCYBotaq178ANnLzqe8RpoKqfpKruvQWOC3A6tmLnj8an1ffpMSfImON00UOoOBZqoWgLt+KI/54/LO5PI9PoFb59kt84EF7wOZQC7SHrQ7EEEglUcWD6FUv6XdxUu9Lr9quS/39MC4/Qgkrlka2BmbFN7EksjXtS1JFPn3yR354l+4r9SvtT7AVYH9cRQBBK1zKw5Mu5ddByz1Kz6iaSv3xZ/eDCsBdTJDuWuWDHJe7qr6W8/FDuv9ZADYwJJGmvIi98ReZJbbq54Un6ykgK4dgmRR8+Y7QKr3vcz2pbJ8m3qcgw0G2inTdi09xy6IsybtogikygVTnbY7vkr76VXmTRF6TppqOT5PTZ+r3RwjYwGDP5QJeLQRs5EIsx7RXMhU/B9DG1+8L1mqsP/hTOktPTlyZDXqq+4t550WqVZhR1PeEY6nv7j/NSHf4cf35kQI2YVJlbFBcDJxczN9a7PyR87wWyX9ct4Dh5dOITP0zYNyfAWAjn/8MuBlJ/cv9j8aBHydg/2jZ/UvEf+4c+Atg/9xL8H8y+v8C2P/JCvzPPbv/Azzk851sp6sWAAAAAElFTkSuQmCC;" vertex="1" parent="1">
          <mxGeometry x="274" y="205" width="28.99" height="30" as="geometry" />
        </mxCell>
        <mxCell id="I2gfO7rlxJFu91sXPex--3" value="" style="shape=image;verticalLabelPosition=bottom;labelBackgroundColor=default;verticalAlign=top;aspect=fixed;imageAspect=0;image=data:image/png,iVBORw0KGgoAAAANSUhEUgAAAIgAAACECAYAAABLeGMpAAAKrWlDQ1BJQ0MgUHJvZmlsZQAASImVlwdQU+kWgP9700NCSwhFSuhNkE4AKSG0ANK7qIQkQCghBoKKHRFXcEUREUFF0FURBVelyCIqolhYFBW7LsgioKyLBVFReRcYwu6+ee/NOzNnznfPPf855//n/jPnAkCW54hEqbA8AGnCTHGItzs9KjqGjhsEaEABykALOHG4GSJmUJA/QGTW/l0+3gfQlL1rNpXr39//V1Hg8TO4AEBBCMfzMrhpCJ9F9BVXJM4EAHUQ8euuyBRNcTvCVDHSIMIPpzhxhkemOH6a0WA6JiyEhTAVADyJwxEnAkCiI356FjcRyUNyQ9hCyBMIERYh7JKWls5D+BTCRkgM4iNN5WfE/yVP4t9yxktzcjiJUp7Zy7TgPQQZolTOqv/zOP63pKVKZmsYIEpKEvuEIFYRObOHKel+UhbGBwTOsoA3HT/NSRKf8FnmZrBiZpnH8fCTrk0N8J/lBIEXW5onkx02y/wMz9BZFqeHSGsliFnMWeaI5+pKUsKl/iQ+W5o/OykscpazBBEBs5yREuo3F8OS+sWSEGn/fKG3+1xdL+ne0zL+sl8BW7o2MynMR7p3zlz/fCFzLmdGlLQ3Ht/Dcy4mXBovynSX1hKlBknj+aneUn9GVqh0bSbyQc6tDZKeYTLHN2iWAQukg1RExYAO/JEnDwAy+SszpzbCShetEgsSkzLpTOSG8elsIdd8Pt3KwsoagKn7OvM5vKdN30OIdmPOl/MMAOfoycnJljmfP3IeZ4cAII7M+QxrACC3AnBtM1cizprxTd8lDCACOUAFqkAT6AIjYAasgB1wAm7AE/iCQBAGosFSwAVJIA3pfAVYAzaCPFAAdoDdoAxUgEPgGDgJToNG0AIugavgJrgNesAT0AsGwGswCj6CCQiCcBAZokCqkBakD5lCVhADcoE8IX8oBIqG4qBESAhJoDXQJqgAKoLKoEqoGvoZOgddgq5D3dAjqA8aht5BX2AUTIKpsAZsAC+AGTAT9oPD4CVwIrwczoZz4e1wKVwFn4Ab4EvwTbgH7oVfw2MogJJB0VDaKDMUA8VCBaJiUAkoMWodKh9VgqpC1aKaUR2ou6he1AjqMxqLpqDpaDO0E9oHHY7mopej16G3ocvQx9AN6Hb0XXQfehT9HUPGqGNMMY4YNiYKk4hZgcnDlGCOYOoxVzA9mAHMRywWS8MaYu2xPthobDJ2NXYbdj+2DnsR243tx47hcDhVnCnOGReI4+AycXm4vbgTuAu4O7gB3Ce8DF4Lb4X3wsfghfgcfAn+OL4Vfwc/iJ8gyBP0CY6EQAKPsIpQSDhMaCbcIgwQJogKREOiMzGMmEzcSCwl1hKvEJ8S38vIyOjIOMgEywhkNsiUypySuSbTJ/OZpEgyIbFIsSQJaTvpKOki6RHpPZlMNiC7kWPImeTt5GryZfJz8idZiqy5LFuWJ7tetly2QfaO7Bs5gpy+HFNuqVy2XIncGblbciPyBHkDeZY8R36dfLn8OfkH8mMKFAVLhUCFNIVtCscVrisMKeIUDRQ9FXmKuYqHFC8r9lNQFF0Ki8KlbKIcplyhDFCxVEMqm5pMLaCepHZRR5UUlWyUIpRWKpUrnVfqpaFoBjQ2LZVWSDtNu0/7oqyhzFTmK29VrlW+ozyuMk/FTYWvkq9Sp9Kj8kWVruqpmqK6U7VR9ZkaWs1ELVhthdoBtStqI/Oo85zmceflzzs977E6rG6iHqK+Wv2Qeqf6mIamhreGSGOvxmWNEU2apptmsmaxZqvmsBZFy0VLoFWsdUHrFV2JzqSn0kvp7fRRbXVtH22JdqV2l/aEjqFOuE6OTp3OM12iLkM3QbdYt013VE9Lb5HeGr0avcf6BH2GfpL+Hv0O/XEDQ4NIgy0GjQZDhiqGbMNswxrDp0ZkI1ej5UZVRveMscYM4xTj/ca3TWATW5Mkk3KTW6awqZ2pwHS/afd8zHyH+cL5VfMfmJHMmGZZZjVmfeY0c3/zHPNG8zcL9BbELNi5oGPBdwtbi1SLwxZPLBUtfS1zLJst31mZWHGtyq3uWZOtvazXWzdZv7UxteHbHLB5aEuxXWS7xbbN9pudvZ3YrtZu2F7PPs5+n/0DBpURxNjGuOaAcXB3WO/Q4vDZ0c4x0/G0459OZk4pTsedhhYaLuQvPLyw31nHmeNc6dzrQneJczno0uuq7cpxrXJ94abrxnM74jbINGYmM08w37hbuIvd693HWY6stayLHigPb498jy5PRc9wzzLP5146XoleNV6j3rbeq70v+mB8/Hx2+jxga7C57Gr2qK+971rfdj+SX6hfmd8LfxN/sX/zIniR76Jdi54G6AcIAxoDQSA7cFfgsyDDoOVBvwRjg4OCy4NfhliGrAnpCKWELgs9HvoxzD2sMOxJuFG4JLwtQi4iNqI6YjzSI7IosjdqQdTaqJvRatGC6KYYXExEzJGYscWei3cvHoi1jc2Lvb/EcMnKJdeXqi1NXXp+mdwyzrIzcZi4yLjjcV85gZwqzlg8O35f/CiXxd3Dfc1z4xXzhvnO/CL+YIJzQlHCUKJz4q7E4STXpJKkEQFLUCZ4m+yTXJE8nhKYcjRlMjUytS4NnxaXdk6oKEwRtqdrpq9M7xaZivJEvcsdl+9ePir2Ex/JgDKWZDRlUpHBqFNiJNks6ctyySrP+rQiYsWZlQorhSs7V5ms2rpqMNsr+6fV6NXc1W1rtNdsXNO3lrm2ch20Ln5d23rd9bnrBzZ4bzi2kbgxZeOvORY5RTkfNkVuas7VyN2Q27/Ze3NNnmyeOO/BFqctFT+gfxD80LXVeuverd/zefk3CiwKSgq+buNuu/Gj5Y+lP05uT9jeVWhXeGAHdodwx/2drjuPFSkUZRf171q0q6GYXpxf/GH3st3XS2xKKvYQ90j29Jb6lzbt1du7Y+/XsqSynnL38rp96vu27hvfz9t/54DbgdoKjYqCii8HBQcfVnpXNlQZVJUcwh7KOvTycMThjp8YP1UfUTtScOTbUeHR3mMhx9qr7aurj6sfL6yBayQ1wydiT9w+6XGyqdastrKOVldwCpySnHr1c9zP90/7nW47wzhTe1b/7L56Sn1+A9SwqmG0Mamxtym6qfuc77m2Zqfm+l/Mfznaot1Sfl7pfGErsTW3dfJC9oWxi6KLI5cSL/W3LWt7cjnq8r324PauK35Xrl31unq5g9lx4ZrztZbrjtfP3WDcaLxpd7Oh07az/lfbX+u77LoabtnfarrtcLu5e2F36x3XO5fuety9eo9972ZPQE/3/fD7Dx/EPuh9yHs49Cj10dvHWY8nnmx4inma/0z+Wclz9edVvxn/Vtdr13u+z6Ov80Xoiyf93P7Xv2f8/nUg9yX5Zcmg1mD1kNVQy7DX8O1Xi18NvBa9nhjJ+0Phj31vjN6c/dPtz87RqNGBt+K3k++2vVd9f/SDzYe2saCx5x/TPk6M539S/XTsM+Nzx5fIL4MTK77ivpZ+M/7W/N3v+9PJtMlJEUfMmR4FUIjCCQkAvDuKzAnRAFBuI/PD4pl5elqgmX+AaQL/iWdm7mmxA6AWMVNjEesiAKcQNdiA5Eaep0aiMDcAW1tLdXb2nZ7TpwSL/LEcdJmiHhXeBvAPmZnh/9L3Py2YymoD/mn/BdOgB0umdQWZAAAAimVYSWZNTQAqAAAACAAEARoABQAAAAEAAAA+ARsABQAAAAEAAABGASgAAwAAAAEAAgAAh2kABAAAAAEAAABOAAAAAAAAAJAAAAABAAAAkAAAAAEAA5KGAAcAAAASAAAAeKACAAQAAAABAAAAiKADAAQAAAABAAAAhAAAAABBU0NJSQAAAFNjcmVlbnNob3QOosLfAAAACXBIWXMAABYlAAAWJQFJUiTwAAAB1mlUWHRYTUw6Y29tLmFkb2JlLnhtcAAAAAAAPHg6eG1wbWV0YSB4bWxuczp4PSJhZG9iZTpuczptZXRhLyIgeDp4bXB0az0iWE1QIENvcmUgNi4wLjAiPgogICA8cmRmOlJERiB4bWxuczpyZGY9Imh0dHA6Ly93d3cudzMub3JnLzE5OTkvMDIvMjItcmRmLXN5bnRheC1ucyMiPgogICAgICA8cmRmOkRlc2NyaXB0aW9uIHJkZjphYm91dD0iIgogICAgICAgICAgICB4bWxuczpleGlmPSJodHRwOi8vbnMuYWRvYmUuY29tL2V4aWYvMS4wLyI+CiAgICAgICAgIDxleGlmOlBpeGVsWURpbWVuc2lvbj4xMzI8L2V4aWY6UGl4ZWxZRGltZW5zaW9uPgogICAgICAgICA8ZXhpZjpQaXhlbFhEaW1lbnNpb24+MTM2PC9leGlmOlBpeGVsWERpbWVuc2lvbj4KICAgICAgICAgPGV4aWY6VXNlckNvbW1lbnQ+U2NyZWVuc2hvdDwvZXhpZjpVc2VyQ29tbWVudD4KICAgICAgPC9yZGY6RGVzY3JpcHRpb24+CiAgIDwvcmRmOlJERj4KPC94OnhtcG1ldGE+CkAbHicAAAAcaURPVAAAAAIAAAAAAAAAQgAAACgAAABCAAAAQgAAMl92hHqaAAAyK0lEQVR4Aex9CZydVZXn/631at9TqUqlslb2EEJYEkIIIAFkFRpB0VZBEZ1Wp9ux7bbHnrHtoUcGl1ZxQ1GEFlRQBgFFkZAfEiAJIRsJZKkklaQqte/16u1v/v97v++9V5WdkCEwc5P3rXc595z/Pffcc+/9ypNmwLs2pJyaeU9NDcU5z6nJ+nTJ1fPuBYjAkYt9DyxcjgWWNGWunxt05dzlZue+1jkbOffpu+L6XQ4QFyQpgsMVtI+CsyCRvNMGRFkJe5BkTMXWWy/Pesf4aZ7HAsTNkjHereH/AYC43QwodgHDb2RpwaFLvXe1ip4KHAKJ1SIeCFD8CSBjw2EejY3yTr9/lwIkCwqj/x00WGuLUnVaftIRsM9FC+/TnjQhkjAAkf4QeNIGQE7kMRLX08O/GRPxHXr7LgXIGGk4eDEAERgo0TSVRkxn3gsgxIUJKT5P8kZ6Q7rGdjH2nRPF3ph3Fhz/HyAZlrzDLlyJOkCIxxPwB2wXM0LQRAmG/kgaGzeFsfrFZvR292Pa1DosO38C5s/0I8T0eURKkucU4/uYj9fJy2NQ4RZAoNgH7zAGHZvcd7cGceXnsZ2GBC2NEOV5IJLCk8/34H//fg1GYiUUcIkBgd+bRAC9qC6J4JpLG3HFJY3IEyoYpGX8ukwnqXnY8XilZ7Lh3QiS0xwgkrDGGdZkdE1JVyRjXTijBGSTUqocwXiSiFPsSSbsocb448pB/Pp3GxHxFCGaoNADeUgmEwiF8hAMEECxIcTCQwgSLBWFwNWXN+KqS+tRQBXipX0SIEACBEea/VRuFzSqfJfIsWfRpWAxZ69P4+M7ACCCiB10Wj7KoLDS95iRhdeMO/ROWt6CSMNaGZegOIE4L8KJNJ5dM4T7HvwzIqlaoqIKnrwCJOIxBPzUBgRRgOohRUAlk9Q4SQo/xe4oMcQM2jGxxotrrpiB5UsmIMhy8phvPjWLSnFlbcAio4aEGFiP7XZEUG5wE+Y+O82u33EASRs9EDFqHp4Q0qkARx7kNJmfSCSRH5TaVywPBvish+jYsDmC7/5oJbuWMiBYDF9egHF88KYDBlAeY6Gq21BKSZEClnYgAOUT8SKGZCKMeKQPNePKcO3lM3HF4iJU5zNeIoFUMgm/188cbZejkZCHSPU4XZOVufI9XDi9UfKOAIh8EFIWlsXSICP8SZQhGpAUitEkBAiNDGkBxWvtT2FtUwLf+8kT6B8oQkHpJHgDtDO8TO8N0+qMcZQSMEJ1RZdWOUKJCRJcrvCoLSj1SCSKwd5WTB0fwUfeNxvLFzegLMR3zDbNn98AY0xSk5+br7nJOeSWkfP4NLk8TQEiZurnCMm5dWVnNXeaw1S5tBiEmVQa7EVwsDeJV7cl8eOHVqJjKI7q2unw+Yuo9YOIx5MEUYQgGKGByTTSIB4CzJHR0QCSYv4CYjAvaEAYC3dhoGsPpjeMww1XzsfiMwswrtiLPNLkVVT+DJ22zxOV78hwmgJkNC/VMg2zxXiBgSpcPX+Ugo1SEtTwiCdSeH5NDD9+4BkMJApRWDERYXYvgVABuwjGjUSQ5/czKT2lkiBzcBSPAxBpDwlW7xQccNobK3Dm5PP7WF6SI54UfBR+bLgXiXA7zphZgYvPb8TZ80vRUO1DyNgnTjY82Vxda2p03k4Rp+XptAdILBJHksLICwUIEq+5TlBASY+f2iONPR0JvLghglUvbcXm1w+guLwOZWXjaGeEMBhJEAR+tmiCghLy0Avm5c+Totbw0nz1xfneIM4ALoONw4nKoMlRNXovMPGf7BMvNVI8MoTB/i7MnT0ZF18wDcvmB1Ff5UeQKFIJiVSckEsQVCkOlWn/IMj701+9nL4AIVelLdRS2V7hYcsdYR8S4FBT5+b2OP7ySjeee2k7djZ3o7R6IoIF5RjhuDVNbeLzB2lzyBiVsSmACBgCiM+c0xzCenyxNw8Qo2EIOo/GSRI8tRMtmhECZah/P+ZMLcRF507BkkVVqC4PIo9DH/lT8ohUQYaUMF0O4Hh3OoZTDBApVv1OXKXS1UB/FNOSjykyNkIbIBxPYS+B8eKrPXh5QzM2bW9BYfk4lJZXU1A+djNp+jDUXgPIzy+kzRG2msOMSJiROYseAkYqxelqRJ9R/np1xODUgWrGmsE2jYnOvBIJaiPeeAlk/sfIYDsiAwcxd2Ydu53JWLKwFJPH56E05DUufBmzowY5Ryz37X1xCgFiBWEBotZi/RKjZGCY7TJAbzSsJOMlY8pDvgu6IwiMJHrDKTz9XAvWbjqIA21heEPltDELqF0oDWoZL7ktbZOXV2i6lWg0SlUuzcF8NdJh+cKEoYc+D52NXaOCVKZ+o4hT3NzggpwxcyKaITbT+tiVJNPUXrz20IkWpL2TSkTQ29nM3qwP82bUYtH8KfyVYlptAKX5XmpDU02msGfX/rEONzHB8kS0v13h/wJAUqym9TqquurK3WpLYB6NDtiiNYeaotxoBmq2DJoraU/GsXcggedXt2HHzkHs2d3LCIUoLitDYVExBoYixkAVg43AnaNyVLC9v72W9nCNUvk2xgYJ1orJfTP23n2u3O1PsMoNNn8LNo2qLE3yyCQwPNDLuZwU6ifUYOHsKlxyXh6m1AQJFHpPCG5BIMH6CuQBqiCv6bqUh+wVzR+9PSA5ZQCRAWedWjoTIE4FsyxVS2S9KSvFUEgQGOxFMBKOo6UngcdfasKmPb3Ys6cfgWA1CvPHkdl0mbOlaj5EjPOY8apJzgM1hnupszFAcx+Mvjat3TwSBWMBMfbeTSta7c8CxL0fHd8Mmd0k5sy6cbIwwtFUwBPGlPEJdju1OO+sajRU5aOogLaRNKoAovkgH+tnKkNwSAPK86aizLNRGZ/Sm1MCELFbGsEeRb/Qbxno1s++p0jZ7EwvwPe9gxG0dMXwpxdasXlHH/a1DyLlK0CA3YaAkdbog6Dw+zWiIUP5z6plVyMcP0ByASGNknsvim04XKt1AaEU2Wu3fm7KsQCRl1dxAhpqcyQzONiGvEAMtZzsOWf+JKw4J4TqigKUFtCXQoAEuQbB8op1pvZ7mxSIQJvTobq1O8mzBQiP5J+9dsHvDOxY8ySBoWU5Mj57+2MYGI7jT6ua6OTqRUtHlMAoRX5RDWIceaSpMcwqL3Es7WeeBAg55jUqKFdILlOdChxFg4wGhAiVuJWXGwg/tdpDQra8owKEFLqclU2hvAToFB+mZIETJKlkjJOCg/SZxFEciOLipXNx/tn59KMUYlwJux4WJS2iEqUoUzLOSKfN7xDCTsmDUwIQ1cgwWzUzV2qh8lrwgZjOX5TWZweBsZdgeO7Fdmx6vRfhGIWfDjKNDFr5OYpojkhbRPmL8bkYJJUb5Hu3n5b2UEEOOI4CCkbKhNEAYWrRrJ8TQ1jMnZ3VPR/wYMvS+VgAYQKlcoLJ0bkmzaoPCzQy57B8eLAXZSX5rOIQlp83C1cu8WNcWTHGVau+1JusV5yAkg8nGNTw3eaeW4KT+Vt6OnUAEbelusUE/kuSuSl2C4mUBz19ERxoH8HKtW1Yu7kHfcNUu/5i/sggBi8n523qENMIIHIyCSB8mgGINIjUtgDidC3HCQ4mYE65AuM96UyRNoMS2/krmo0lDWBudBRl9vemAcKyXEPZNBpmF4lGjOAHB/tQxJVKhak+XL5sHhafk48J40pRWqquRwN48Wc09Hh7ysIpAYiwYWFBNcqbBBlMfyO6+6PYvX8IL6zrwJpXuzAUoRYIFlEm9Cp66djiUDEtocuCp7ClReQJVTOzwpAA1SfzGZ/YWVgJ6zAA0WMFI1l7mXvMAkQRSS3pNHQ7Kty+t8ldTWLPNr7SHA4gbjonpVOk0ogQ0a9HpN3Ug1fsXtJsEKqv8JmU74f1TUdHuJyAa08QxaUXzObwOInGhmqML5N2NTkZoCg3hSNU0748iePJA8RU2FLomjNiktp1nFQPs8JdA3G0dgxh3attWMXuZCDMbsRXBF8wnwZnkCAiT0w+TClg0EizAFFb4Y/vLAN0zSvj1+Az69hgHFcsKtUG80pRMw8oFGqGBKfntRJM5cl3kkgMc5jpaCLmnUgoHld7UNupaNk6dmU74aAuRlqKPzKOb3idLYAlCTKi2VJrz5kI9rmpqHwyAjnfUTvKE+uhwaHG5PUFCRLmq6wTMeN9TUb76EvpwWUXL8DSRXmoqy1DNTWKbBRpFZXAwY9ZEql0RgGKBJcMXr7ZcHIAEWX6URrmH6/NI9kYJLR1IIqt+/vwypZerF/P2c8BH0cklYwjzaB0/NH6UhoFY3zZnHIql62lxYPubQo3C5tYQjNX7msjLlOOCqJw/cE8DA0PIUAXfDzGFkr390i4A1VVQdTWFCBEbnd1p/jzIhzlfA/L0SxwIEBbiMYykUN6JQH6Nui08Tm+DocJjK1Rln4CiYJLkL2zRz4zj229TFMyhDNfE+xz58YAkXqFNUhgoK8DZaWFWH5+A86b68PkCRVoKLcISdCpmMdpiDQnKGW8e7U2MicrVwu6+R7v+eQAwlJMgxBs1fLJnCT1ZOdgAq/t7sfqLQexZvNBdPclyfxqYqGY8WVginilYQZqlU4wlcjeuo8z5wwAVB6DSW4urCAy7y0qTJwsahhfGoPOqCTd4oj3o648jcbJhWhsrMCZC+o5Z+LBvtY41r3Sg9d2tKGppQ8j8SCXJFawdYfYyqn5CBD6TC3vWY7H2EGaj1EQ2GklSDtkhD4WJLrnj/9NVU28sXFMZpmD3o5ECOiCAuNIC/d3oqwwiRUXTsGCmQHMmlyJKi41CDGejwJJaHF2UBoqG94WgIhw+5PAUhyZ+LGnbRh/pOfz2Zc7TLdSVFpKJopYGpVkcEot0WllaTOiySLiRAFih7nMzgkZgJD1ttNR3rJPSF86Tq0xbNacFhf4MXuSH4tnFVFlTwT5jhi7wiBbHXsg451tOjCEVa+0YntzBM0HE3yfzzxDbJ0yjlVv1oUTdOoiPB6ucCNoLEDYALjOxHay6iod4jInh2s8mVfHCZA418z6fOoaBQDmy/SRkV5UlKZwxYV1uOy8csyaUAq/uinTgJR7tvC3BSAGFqovKyn9sbctgoef2I1n13YgESzn4ppSM7OaZF/qlVoWNuT0YStTN6MHoxq76eP5+gghCwCrQcYCxBgz4pwYQxsiRWDGYhwdeKMoDiXohIpj/uxKTJ1YiUWzizCJBp+X3YT8C15O3Ekbpjj8NuBi9zPA5e/b9wxj8xtdaG4dwa7mMP01NClTeawGUeVjmzVGdZRpBBB1LwKIGoRyIZ0O0RYMeiz6bLDPdJ995r4be44RudqykSa9cWppj7+QQOXa2VgX1cs+LF9UiU/edA7qK+hflpfZMPvtBogYqrpR5r2DMTy+ch9++dRBJDiRxubIetPYS7A1yTFEX4aMMethZEXJSAWt33TDm9cgFjCa/TV5UAiyH6IxjgLosq6rClAVhzCXU/BLF1YRmikuPOawkVaeJgE8xkh16VArVRuUFpL+YV680LD8pQ1teK1pELtaY+jmgtcEly5rRbyXdpThgwGIwGFbuq2XzTfbk+pe4NE/BlN/G8fGP/xR9XEDV5RwZKgOhaDBEE2iQTMhePPl83DLZTUoIril5bJluilP/HxSNojQnKQLOUVkr3+jA9+9fxsO9tPOCHIVl/hEBqaSBIKGqXQMSc9IZRgj1YqGtZBwc5iYBT2fj7pxGyOfW0BkNYi9lyRjXKUuNZwX4HLDsiTOml+HWVNKOZuaj8pCD4rZyOMxu7g5rdlBlm8Z6QjAqDRpEUeTkHatdJflEeVcUXNbjNMAPXh1Rwfe4JB9YJhjHNpWXmqUpNaaEHgCqWjQSjcZ7wrejLR0bwGi57kjMd27QTEULEzVgTn06SE1lHio7RzwjJgG6KeROj6/F1/57BJMqeVggPyXrj7ZcFIASXE4pnWeIyT2Ty+34vsPbiEmxtHWyDMzlGk6uZLsj9UapW4Na0wXo2qLAXzitiCeDUtcTOiVeeKySHcmB5uOxyxA2H1RS8UiYQoljrqaSsybGcSFZ5YSHCUoJzASpNVH4efTzlA+aQre+ldYjhGeQ4/DUQMQ0qoVZ2naGSrZpOQQO5rwoqlrBGt2dGHLjgG0tiTp/CM4YxQMR0p+zuPLWE8SUK6gLUBc+t0yncLMSe9yg2WEtWVGA8RLuqT0UuwWk36hkGtQ4vQphffgC59chOXnFnNhku3wcnN8M9cnBRAxOUkt0tyZxAPsWp5/pZNEU3vQzyDhpWUHEDwuk8RidTE6Z4Ah1rsgUQ30SmfGs/teeCdB8anXp/0qdDebVs++lsPVFEckI0PdCPljaBhfiunUFouoNaY1+NDA/lhWvUZ8cWq6IKfRecucqMvoOFA5GtlkAWIK1sHQqTLVBVIMJo1tkUpN24b59LPVtnBYvI0Tixu2tGHv/mH0DrEb9eZzNVsx684Gwjiycfw0MKWHNA8jY1NUqNqm6iowA1LdKPClfqyrudOtE5RGQ+wU0yQ5tDV2HQkKprpw/qIQ/tNH5qKS3Yx1yLup3tz5pACiysbJ6I1Nw/hf9+1GW1+IS/3oLieyZZSKCcYTyvOoIJAYzghEeuMwg2f31uxJMS8pFgMQRmOeiWSUDBbj6KeIRyn0NId8aUytD+C9F0xHw4R81Mg3QKOugMu2WEFTtKVA5ZpbczCvMgDJPnev9N5SZunKdhOMwRfGS8zLIZpX+zsieGN3Hza90YsdzYPo4X6rpIeGrId2GOn3B+kAY5cWT4h+dUMa6QgkDn1yzIk4OQHJG+NRdoApejJA0o0KN+lkQVnQp+IRau1hFOd3485/vAQzKu2w10Q/icObBoiqJWxrDdVazsD+6w930eov5chF8ynq19U/ijKn4rrMBMsUc2TN1SZNpc05ywyXeWKaDMc4F4v4KPR4rJdrPMOczEqxK6nGWfPqMZXAaKhiKyXjtEiZg1AyzOYlQSio2zDBAYnu1XAtSO2rsUdDoyXXxFVSCcsVmF6xJ6EogUG24tbOBLudLmx4vROvc4FT76DAUQ4fNYpkmiLAU5qd5jIGLVnQtEJmplraViMgEUQ3u55bvmTL4wMGcV6UOI2HGae4ncPP7iadaMNX//5inDOJK+sV9STDSQGE2tO40te81odvPtDMDdFF9DrmkXSpb/Xdok5axFzkkCq26qdgAZIFiXnkPBeDdClNwL5/JE6hp1HDbQVzGz1YOr8MjVMrUaGpcUrMWO6UlibxrH1C05LFaMGyyWYUQCxdouxoADEJcw6KnwsQyUmdkJlHcao0wnnFAz1xrH/9IDa+PoTdzTH09JM+XyH9MBbEcRrw6oLBIbidjJTQ1RD4nJmabtQAxBZuAZnlmUq1IGE9CBBpU2lWT2oAn7/9PKxYwK8T2KTmve1GnQcncDopgGjP64G+KH678gB+t6qXU04VHFZqdTcJVXMhMA7P/LEVtSCxT913Sm6fp2L0fo4MoqYsD7OmlXE6nDbG5CAmcj5Cw32jBVQm40vpKmjVGd/yisw2zjk95b15pINY7JztyTxzL7NUmMeZg96bX24EU1fml3nG1WOMNMgWdLArhR27qVG29OGNpiHOXBMg8qFwHipN+yGZ4C7BzPJC2lpmuYMWQymzTIa2TKM5XFIEKBtHtmA8KttM61yTuHZ5LW6/fhyK5HonUfppKP5mwkkBRBPw2/b14NsPbsZrzfQHBMdxeKl9KKJdrYBn/g4FiVt5C4BMRVWDDJet2owTGBVFeZg9uQDnzi/HmbMqMZlrObWNTlsgVIZbjgw6pmIm+jlBdDgaxKhkPnbpcTVbVgw2hkudm0Xu2amS0SLmOSO7JBugOjfGgGRk+UekBw+2x7BpRzc2bo9j084BLsKOwptHbcH4Mtytt5kaxdAqaKukbLAawKVUfFOuqqc9J9lafXLc0SZsHDeAO/9uEaqLqMc1i8dwygHikuaSrWIFkE27OvFv963HwYFq+DkRJ/1hVbCDWN64AhGhNii37M9tLfaJbdfedBR5qV7MmFiEcxeMw7xZVZg4LohCfp7BzGCSLwYcytAlylj8br4SHPMyhbsRnK7GvWUG2dhW0CaNslR/dZigp/bHlEqs4FZQFTdrWSR0De81TLZiFG5iREtLewpbmrrxEo3ZTTvaaXRrfiWfedJ2MwaqI1Bju5nczWE0PerCNf+j0ZXOLI8+mECgFDH2b8Wpnfj3L1+IqXX0WIsHrKcBXKZKojNzY/I/0uGYGiTDAycHyxxVmvtUWPu1NMi+/tPN6Bwuo4FaToCwaHXIbqvV5SG0KFf9yAwy1XRHzhNWlaRzgJjqxzVLS7D8rImYVB9CKCAm0HNI97m+zaGGoel6aQ23sqYYU3cnfzXfUYwYDRAxzolp2mH/UAxNe3tQXMwV5w00LN3UOfS78TXwVm5uW7fP1ZrtvEw6na9a8N7WP8lRlTGaea9llK93JfDwH5vwykZ2zYlS2kz8iI2Mca4PsfYHc3Z5yDSjASKeERima1KZ1JtcpuD1cm1N0oei1C585TNncTqhgABx+CQCFQyIzYW5PdbhiACRoBTcfLOMlgCtIu8Ie/DESz146IldiHA/bDCPm6TJFtNqDSpyODuKEuYqQjXSUQmMa9LQT5HkMDARG8CC6aW44/0T0Tg+REBoRCKfC5lMgHBcYFS37A/bPm05TjuxJWUJt/c5R70ydSD3ElTNHi4k3n1wBE+saqYrvRsFxX5csrgeV/BbIDL0NEoRDGWU79zXj43b2lA/vhgL59SilB4pwUD8slyhLaA6aU5GoxJeKchrK8NZmJalNMA6P/PKEO55YB0Svnp2yyyJ9LhrYbT9w/LRpj/EyDTTF85ggFFSIpKUKF2JvxM3XlqJD17ZwHkZW1dzNGzSA8nQNhab+5GPRwSInDoKbgVVgIKtvJRbGrvakvjeI22c0u9EqKCEKk6ztRI6w1EBYiIwM8VVOba1xGlseTjrmhxpw0dvnIWrLxiPKi6/87NCYr4BgEGFpSWXOuWooDeZymeJN+9GHVi2aI3RhzHM30NP7cejz3ciLLe5P4FJVSlct2QcFs4azw3gHq6XTWLrzk6s3ngAezjTW8VPjVx54XRqOC4TYF8vA1n/VL5lvXXuWRL0XG/se9VEjrYtuxP413vXojfG7Rz8WI0BLRuCnHM+ag+eMiFXm9iHeulGUEpbc135E12YXjuE//GF5SijGtQIz+2PzdwXo9IXm8n7aBdHBIitrkuKS4hLkvQE8Nq+CO6+fz/2HOTKJ26WlmhcVSiaLNG5xasSbhDRykV528rJK5tO8dMMkRZ84Y75WLaglpa4VDmfu32pDI8jBPeNFYYiuU+cBJlqqGwBJMqFwH4c7Izj7h9vxstNHhRUTeI7rjYf7ERFMIFaLiYK5NGDS/Xf0aMdfmwa1GKpcD/m1Bfh1r+aifMWqItQk5HopeEs8zPFHYZeqf4D/IbJ3Q/uwKvbY9SQskPYdapfY3C7MHvHY2Yklnky6sJ2eKoxNW20m5+i6ME3/9sK1OZrhQrp0io6pXBYcohGGpVb9uaIAFEUt4ICi1q6vbcznWr7m3cP4s5793CBkPaqyMnD1dcc5h4puCh331ttZHOVwtH6kHR8ENUFffjcR7gOk4ZpSCCSZuF7W6kxQncz4/nQNjHmiS2KMVUjaqrkCE28PM7MevEfv2vF79ldJuir4ACVLTiKSu7eKy4qwPDIMCflokbT+ENF7Os5h9rZhXr6Xz59ywx+9qGMIwi5DF2AWClnisuhMfdSyzF/8FgbHntmN6cNypmvFmmrfpZTWoKQCccNEPpEYv2cf+rHVz+/FHNr2SGTf4Y7Oaw7eYDk0GYAYlqISvDRyOJXAkfSeGFjD77zi+2I+yoJTBlJ7AFzxttjAZGprC6Yv6WXMBEIqHLUN6ci3bhgPlvmdTROa/OtemR/q/yzlXJrmkMksxwDh0Of5ETXZL3c3jIYI6kQ/vTSIH726G4M8wtCc2aEcP454zkrWoCCUIie2zj2HwzjhVfbsePAMCJJCpL7WRZOLcYn3j8Ls6fy81P0P6gGxnZgPVwKVdWxQWTovczZx18M4577V9MtUsflCZzD0lBV+Tia5Gj5MGImZDUIa8bPZYV8A7j9A/Nw7ZIi2lGizNHnsvdMa8skPerFkTWIw0yBz0xJcx5E7SNFVUtsoKM7il8+uQ9PcvVYoLCW6tpOSGWF6LaDI1RRhBornQChW1kgkYpNDLfjE9fX49pl41HCDc7mYy+GCDHVzcuFglpGNrhPj/hkFEC0zyRBmPgwHPPi96t78cAjWzmXU4zbPjgNUyYUoZz+LDPVSDoH2LXsaAnj6ZdasPLlNhRwVHX18km4ccVkfjJTzJftIOtHVNqjS22WntFX4uPL2xP45k+eJw3liMa5iJtahBnRcObLXCNkdNJD7lyAiOuaXPRiGEvm+fAPt81BKcEmZ5od8os2hkOZdUieenBkgOgt+W+0k9CnFkIGxAQQ2goH2obw3Z9uwcY9XG9aYgHiM15UJbTh6BpEALGWekrqWSDRegoaqF+6bQouObvGGKeqjaqs41sLEHosCOoku7X9nVH84vGdHJ3swyc/tpQu/BIUsK7qtY19x5I1co+y3lv2jODBR1/DvgMduOn6M2ioTkQJwWKoZByBQ/rDCMHhw+FOSiFDtYme1u/+fD22NsU5A0xjNcmpCnW15IfWoRxXMIXllEjatVp/UlU7vvvPF6OcXZUA4iXwmDHzZ65vOUCoQdIco6nFaed9ExfL3HP/GzRUYwgV1xgjMrd7UcWOByCiVGN//bS+hMsq8bmba3F2I1uTHAcs0w4fpWEUdDSi45XYbIOuDxWLTeHGUXRj7DJPsV5TBfpM1Vq6wX/+qzUYP6EQn//0BeCHgeDjmNaU7xShUZ1cUsP8fvdTz+zE06t2YumyGbj20umoKRFVVomrfZr5nzFFZ2hwLuSi0YaHPpbzg4dexx9faOfwegpRw26G3bR0m/ng3tiEx3GfZv+UYPdZW9KGr31hKepLzc5m2lVK/FZqEOVnQMycaYOIDepitFZz7bZB/PhXTdzaQDUc4phPbw00zeVxHMhB5mVAxNaiSas0p6zPaqzC7ddVcwGu1pRYtqeNQ0izmwrqnOV5ILBElh7xwDvmpzzNKz211/Yqc9QHc300qFWbTur4v7wSxh+e41KF9oP40PvPYLcxnrvaCEkCx6+vvDAoW5no9uzBuk3tuO+hDSirrsLHb1mIxgnSGgykV+AwADH3OhwmMD99Vkv7BaNM89hz7fjRQxupiRs5sKNwafPoQzSmB84kZyITVMHc4N6770WvABLHuIJe/O2H5uD8+VyjQ2b5jAwVn03JXV6Qm9Vhro/exTCBzY5HOWZ0olHXzbUOD/+hl5N0O5AMctV6wG6ZPFGA2H6TICBAyCraH524YcUUfGBFLdFP4ag8IZTDTi0ssBpCQtN6VorEgJev+cjMTRBwJhhe8eVoDisSPY6sBxfstPXG8Ivf78Zza3uoFQpo74Rxx4fPwEVnFcnpTQmyZHm1GEw3w0sBRFpn645+CnQrWrvTuPm6ubj0/FKzao2zABYcjGNSmoPJ4pCD9I0Aog96rt48hG/9dD3BUkchUrhcNunlFwwE+2xwr51KOy/kdRVhVlvbhwJImvIqRBeuXkxD+qZZbFLiNnWWWacjLTI2/2xJuVfHBIiN7BDFisule6A7jm/cvxcv8Gs/xdV1lAOdPCekPZSrKmXaPS/ZP3LrQHKwBZ/9yAy8d4k+ey10kMPGUJNyd7sYVY59gG3OhjwPP0ZnV6bIpJQXwmo7A6JckLAVMVfK3oONnDD7lx+sQW+kjJoihPxAP953RT1uunwy6PcyLS7BfEQGfVesH9NS9Q9zueHLm3rws9/uxp52DxdEh3DROeXUPLWYWCUfL4MKUTgKQPROtZKhuovbKr5531Z6c7UHh34UYkH1SOXSrlagYI1Ce82jAYgeix9uYFzD3WgHZtb04a5/ugx0DjOSNLVGhA4PeT5WOA6AZBGrRTvawbWLC3e/+fNmrNvWifLq8TSmbEGmhefQefTCWQXmJ5tAdPq4+LYg1YbP/nUjlp1Vx/Uy/IQUgWc+mG9AkrUxVD1pD8MrlSf7heqTiwpN1d016WJErhZJU63rgzMx1uHFLd24+4GNtKfGmSUKqWQvGqcl8c+fWwYN2i1d2j1HNz+7HBl5qmd/LIhHn9mLXz59gHNR3FAVi2FqNXDr+ybRq1pOoKnWJOoYfNCoj1YGtZQPBwfT+M79TVjz2jCdcpxa4O59bvjn21wButdZeVj+jr0XWPhGdCf7MbG8H3d+8WLUFYsbHIma0aIa0fGY0qwGGeHi3ZZ3yNElwC7tj5C5W+lB/dYDB7CrJcLdXvommPq0QxKSR0djFIXA7or14AiJwIt0YnZdAn/zwemYM502Db+EHKDH0kyFkzeyR1SE4svj6udUf5yTa4FCrvvke/O9VFNtWigEFDeXmQXKsgdMkPbgTwDRqrM97WHc9ZP1NFA591JSx41RMRQVxfCxG+bhxotq+MF+yZiFaZcaC9YmKXUHG5siuO83e7GVXz0qKKlkg0yjOhTHX19Zg8uWVJo/H6LWr6BW7HLXaNgcHglwCbZodQdD1Eo/+lUrHWY7UVJZxy81xrkKTf4QFxQmu+xB2sxwQ49c+WRf69Pg2g+Uz6FybXkKn7qFH/qdzYXNjCt2qIEJIjnkZBOPuTpugAjNsrz76Q/4Iz2OP3l8H1tfufnqMDHrZDsaKEcFCFVimmNH7bTz0iaIhw/ivYsr8dFrJmA8hxFGdbJAH1utWR0uTvO/aAhyQa6+fCwTQcAZ4XkLNzU9/ed13G0Wx4rlZ3EZYgW4G9HYBIY4pheVYorOQwT6q/zu2TMvHEQnt4aG2XXu2PE6u4w8fPi6Bbhs2UTWmJqN6XTW5yu27R6gx3U31tMG0dcKfH5qgHAEZ06txW10uZ/ZGODEolqwUjC46ODlKIAYjci00ko0SqPkxaN/HsCDj29k5aoR4WojH1fmHa7VCXTqdrPa5VCAqFwDbtohWsx9zYVVuPXaWu4FEkD0RXmjW98KgKhwsVM45Uwrz229I/jxI9vxuxcGUVw5nS80e6k3CicGkBRbn0CiLZkJAuRzN4/HdRfV0oZkuZSkqsEJXHY1hi3OZzFZGsEhDaIZXpU+xN+d97yEVav3ms9f1o9L41++eA2mcuGucVGItBxhiX2yWgZpcYa5uUpfU1RNdzUdxM8eWoPBkTzMmzMdZ8xuQE1lPob5Se9du7h+Y8s+HOhoR/3UKtRPqUF3VwsC3AR+7UX8Zvu5DVwkbdu86iQgGgcjzybkqlgZlsYCYRfL6XnOA2LNzgSHu1xX08NPYQQryHX+UyZjgmtzHAkgSqJGoyF6NK7tpmEsnDKEu76wxHyjVd4dxZE5f5jsx5TGOEfvYlQRCV+2Als5czzQFca/P7ANqzbGUFEzk35/iefNAITYIkDEBa+Pfe5wC774sQm46oIJbFU0pFhJbR9UVyGIPrtqN9as34qrrl7KrQ3ldIHrvYAL/PYvQ/jpI2sxGC1CBb+A2NOyAd/72o2YP9FZuGsxTjDqwrJFji/NkGt8JPjRiqF9RUFt7cb3HmhCR9cwysvyuUKOU12seGQ4hZLCIrzn4hosvYBrb81flUiigMCrpOFRwHtN5xtvZQ5AbGkqJHPFa7VkZ9jOv1YRJw+ae1McybxC4zmNfP7hAfkxLGyZNiccD0BMSayqjHFte50zgRN3XxJAVFc1u7cUIGxr2slFVai/8baDm7Pvuncbtu71orhiAlsAd3blAETozQRznXOfeWEvtCtPbxOsRF0l8JkPTsDiuSVmv6wFSMJ8quqp53rw8ONb0cO+uajIi/MXTsflF9aSJi+efaEXq7d1oZvfUdVkgFpxcqAV3/7qezBrPA3S8DCK8rlPRbOZ1BRikYJ6ARmJAyw7GAjxmiAh2voHU1jJv0T12NPNCDP/BDckachbU+7H9Vc1YNm5/MsR7OLyxW1mpwG3uhV2FsqVzGff7gJEEZzqmy5GBZtgASJq5NORIDWa+fqP1uEP64ZRUDGDfOWaWo06lEducPJzbRDbcWYj6LXRX0yWpHZK0x6ZWRvG39862+y4M1tGRCfLdLIyiUfTl5PfcWkQjTYIkAH6hp/dMIj7HtlGgRRzgokuRK7fsO1YmRKdgmcm6CaXjMwLc2EAwlYX499hOXN2BT5xQz3mTgpy1MBUrKCfXUhXfxL/9PVVeK2F6zSKKvlR/gEU8s95lAS4oy9Mf6OHi3/z+ZejmEBfKBJTY329uPNLy3Ee/+6cRkNBDcMpZP1FF9OSRRJJE0hGqAHahpNYva6N7vNWfqRlEXrbe/CtH25D2FfGORH+fRlaxuefXYg5XEm/6tktKMsP4forF+CMWcVmXay2MUgjyJPspWFt2ijpl2Zyaz9aAAKIndwzAGEsYfe+32zHL1e207qeZBqJV76nscHNkM+ZxPwOF0WazPwtHQ6H5DB7/yWVuHZFPellybR9tCovJyujscfmo/vj6GLUMtTFeNE2kMLPn+DfeXt2KwrKJrLvlJoXmYqjcGIA0ach9XHZkcFWXH1JAz589STUcce98T0wW3fz1Xce3oknX+5nF1fB1s7pd35IxcshnD/NLy772c9yXtQXKqS24Yo2fh0xzlZ/7pkVuOtT/OtQZKGUudwAtCktR9XVULtpC8oujmb+532cU9reimDIjzNmFOFDV83HPT/chP29jEAnYFlpPi5c1sCtBV14+ul9xtirLxng6OBMnLtwsslUBqu6BPXxVoGLL+KIDWqv7rX4ZWwMc2Qr55soEfLc+iF879fbMBDn0s0xAnSyyWbIByrBlpJ5ay+MdlDjlAZJIZQ8iKVzkvgvnzqfX1S0xrFcCFl6xI7cu2x+xwCIIqradn6wjQtc7v1tH55cuZ32B4eGNBDUSrLhRABCQ5Ho1h8RDPfuxMdvmsaZ0UZqBubBLI27mkNPVZI+LXz52y/wq4gc/nLfSIJLAjQV/+GbZmDuNE5uUSaS/fPrk/xcdzM3LPURZP14Pz2yH71prvnTYVLWecxXk6QGKORHmJ9BWrV5AN//zQ6u6qL/lBOSpXkjuPWGRSjIi+OpZ7lelA1jFrWbP8C4f+lBN430ZHQAEwo7cMeNjbhwyXQyl9rLuLFFxWiA8IEJgodEpiCOWa7qzj6N0mB+Y1+KYH0FLX38NiwbwhFklgGJzUd5jA0StvJlqWoM0Xac2xjHf//8BcZQFQ/GhpMACPsy5qaPN7T2cObxYX45aP0BTizR/8FnZjiVKe3EAKLRS5qzjsH4Pnz6A9PwnsUNzt+BY76m9gQmJdvH/O99jBNaL7VzzUQai+dX4G9umcWddXn0ebDNkh8apOjXxxbzlW9sx/rNzRRyECEuGaiqqUJ8pJMf1R+PO26ZbdaZyucaY4I3OIV/172bsJ2+nVAJv83K0WV9VQK33XKO+eIQd0ziQGsav/xNBzZt7UGoqIh/+qOdBnAMt3NZ5Blc1KTytZNQzYjw48+FQoYx5NOhwfLPPte2hSit7r/7t3XYsCuCwhLO7Ar5TnAFSOVgg+rMK/0ODYpkOzjTgLmAaN6kNP7xjgWoK2IKdl36NlyuC8zNf2xex9QgIkBWxhD78C17ovjOA/s5B0Gni5nIkkp1uxdlfWIA4VfsOLztx6TSPn78ZCrOm1dtBJ7DA+P36OLk4H2PvYYnVzVh0uQGfPnTczCxMmRbA6lTl2S2DFAtD5DRccroptueAkIzkOT3xdLshsKDB1BXEcVnPnohls6WepVRG+d+Yj8eerIdf1rdhCBtHKn+MJcbItqPxsm1HDbnm+HvUCREoU2iJ1KA7MMK2iQfvXoKPzFBMBAc8lLaFn98ABHXVE/TznlDs8D8gaS7OYXxzJoW7pmpYATjlmUsXjrq5HgB4u75EYQ8tMMmVvpw2/VTsWQWPSH0HeSFaLupRTnBzd+9d8/HBIjZoEzi9OdEn1rdh3se3MS/zTKL/glO0Ws4agDiguT4AUKlTO4EMdLfgeVzQ1wk1IBpE/iJJ1KmoZxhBOkfoZ3TQa3x5a+txN4DI/jADUtxy6XlHHLazk0LEDjiVyqO+30cluaZ5Qi/fqoHP3h4M4L01XDtGNVgD9d4tHGJ4DKusipGMkIPChtoz0gAj6/qwyN/2EYw0RCmzSEaJPARgjfFPwQUKsg3X0saicpe4PLK9DBWLCqgU28itRhjEyAaydkRnFq9chgdXNC7T12AcA0d+0fWhT/66uhfiuNnj23CcJzfVuFG+MMKzsnMtAs3w1Fn5idAmXgcvtPX46FxfxX/EOPffngmPaykkAb9WwIQsyOdLbODlv4vnmrBz3+zFXWTFnLwwkEirXuZgG/GSDUA4RcEh7r307VdhY9dOwnjuJVSrFUrlo9CTbKbY88nno/iZ/+xijOmIdx60yJcxhlKJIeRx9GE+iLNBJuWwt30lDs3dvv4QZsEvvSNNfCUTOHqt2ZqJm6laKzE7TcvxBmTyRyOgPLz/NxDS8P7991YuWYX8grK6Fii44xfPdZfkiopIWDZYYe5JjVKX4jHV8I41Rw6R+hb8OPjfzUZC2aHrCOP9GoBkJgu17y6Pp3dkHPpPnJgRIAonQGIh3+8IIm7OdxtH+ayRv5lCwlyVMjJ6PAAUQSlUQNiDK3jUc9Hh9nFZ3jwXz85j4aqzfEtAYj5xAObWlt/HN9/dC+eX8uFLUUNxnmkAsyqJ7Z4G8jEnArIMLModl6POumtjwZqMz55Yy1uvnwKfRjUQMxLezy0au2ZDSP481p+pGV7GyJDYUyuCOG2G+dhCafkfRzq6s9mmPJIhxlQcoipfzJttzQl8aW7VyPiL0VR6QhHG1M5s8mNWGcHOOzlpxHIJM7xYeX6Xnzr4Tc4QipkVxVDeSiFWQ3FmDGlCuNruECZ/dcAv4Lc2jHMTU4tXEkn1z+/YkA6F84qwQ1XjcPUqWxA4TReb45j374BNNbnUZWXcPG1ne+QIG0wIrN+Eke6xvFFWjQRKLr5B8Hxn//pGeyjQZ7wcyEzpyGkRcRrK1CH12y0Nri8d241gqFhbTdhkZdaa6Nn7GYumg/8wydm085jXJYvCLnhsJqKL/8PAAAA///wiT7JAAA+wUlEQVTtvQec3dV55v/cMr1pNCNp1IUaEkiAEEJgU0w1IHpvprquS5KN42QTJ05sr+Ns4m6DbQwGTLXpmN6bJBCio44a6mU0vd223+f87p0ZjYQA/82f9X72SHPvr57ynue87bzn3FiOpD2kbC6jrlxCb23o0C9ufEtrNsYUT9RJ6YSyvJeN8xkrZBFTLNaXGWfc6zvf6YhXsumUSrRDXzhnlOYcNkIlsW6J6sRixZr7+jb9x28XaF1brcor65TtadWgeIcuP2d/HTazWoMq04rHsmSfVdzF52JKJErVzXGG01eWpvSN7z2ueFmdTj/zAI0Z3qMH73xdoxvqNHniUNUPKtPW9Z2659G3tK49psqaCk0ZU64Tj9hLh88oVlk8pqJ4yFad1Mn5rtmQ1WNPN2r+gnVqao5TXlz1tV0aNaZE29t7tGTVdjXtaNfYhgr99SX766iZDSohD6dc+Bcdx7MQxXU2AaFfjGdSfKQ5TXP933+yQC8uy6g7MZgyiqBHDLKQQ+gqv0SKJ6LvkEn+0F/QIZaLk22Sw6yyiYyyOd5JdWn6WOmL507W1HFFSlIOufa+6DJ2l2LvB5B0NquOdEwPLmzSL377tEqrJyidKVPOFaDcnMHRm/cHB4gr19XRAjGL9PlzRuuwfatUlOtWlvLi8WI99dIG/fbBjVrbXEv+ScWyXeps2abzTtlH559Qq+qStGKJhOIQqDgLWLJQmfc6oXIbLb3x7g26+Z5F2mviRP3j10fp374zVxs2tShZVKn21jaVFJWpoqQKOidVUp7Q+NExffaiaZo4MhGIV+RmZQFrPE37O8m7SIlkqTpB3/MvbtIf7n1XG7eVqCeXpmO7VFxSprLyWiWTZWptXK0rTm/QmceOUVUJEHbHmkb5TogBkDCmfDkMMAMkBjigCs/dcu863f7Yu+pQHfUt5hnygC79ARKLvR9AEqFvcnEAQtHZVKeGlO/QmUfV65yT9lYxZcf/vwLE7UplMmpLx/W7J7bpF9c+rNHjZiidLabRHhrxPmxwZir0ByJnEWHCvZ0/Yozz9rYtOmBqvT531lgdMLZYRTQlm6Hj40mt2ij9z6ue1eJ3syqrrAwvd3SnNWZUtb562ThNHV2hJIQDpioBIIlsAnBA5KS0bEuP/uU/52lHW4UO+8Q0XXp2TBdeer3GTT1cPapURwfZ5ZIyiROZZo2q69CXLp2hSaPjKk9SZyhabLxxyJjmtEs9gCWVo7Pgbj2A5OFntuj2+zaqNV2m4vJKZTI5pXtScLOsWrcv05Vnjdd5cyaquhwI07kmjDvaqQCQXloBkhT5A3Mei+mpl9v1k5vfUEtqMMArDe+YC0QA8am5rOnv5O7vl8xB+OcBw1MRFwGN2XSXkumNOvqgUv33Kz8hhnhof+HNP4mDUGd1p7Nq6pGufahRt9/7kuqHjKPBSWXcYIMkACXfcErrX1C42it+XJVQ5Xyd0mpt2aDjjxypK06doNE1uQCQmIcQowOY6MkXNuvVxY1KMIq2tHTorVWtau7o0oTx1fpvF+yt0UPKVYkcsDhwMY2wjw2tGf37r9/Su5tSam+RDpo+Sv/0taH65+/coY0tgxAXg2E09epGmiVgwbVF23T5GeN16pENgM2Qj/5c92iEuXPpHDoiwxX/pWnz6i053X7/Gj3/8iYyqpKSAKerRYPL05o9rV6nHDVCe48tUxEozJoTOcMCIsLodTf6mj8sWhgcgYPEtKUtp6/9z4WUUay6+iHUtTuAK+cOoS5OfXTeGSChGIPEefFc4S+d7WYwNOpTsyr01Uv2Q1wLevelvvz6rvlojyLG9eliZKzcntKPblml15Y0qqq8BiKhf4BgNzHGyA180Zn5r0CE/HnoOY6j1A8gMTqwda1O+fQYXXrSZNUX96iYd5PI1hydYO3C/9s6eYeea+b7yQWt+v0DC5H3nRo3bphmTW3QfhNrNaw2qdZ26Zn5G7RkTYveXr1DxWVDIUhSFckd+t4/H6CqqiI9+XyjHnp6iba1V4HrKvSaNk0Y2qlvfnGWxg0xN4rA4YLdFte9QGZDpKBHuP0dmZgen7tFN9+9Uk0dxTyc0r6TanXWCeO0/8RiRCCjGBYMgU2U0BZnWUj5EgqnfLsE+Cr93cH3F7/1ipZvIp/qQWppbVFFRQUi3Xm9P0DIKKo/36alWWEGUZjt2aEZUyr02bMna9/hiT8DQKh2J1rTvCVt+pdfzFOyYiztYCy5YLNLRpKVoT8NID3KpDfp1BNG66yjx2t4CaICIoVxm2eflt0ZCjN9U8htl3nbA+t022NL1SlGLfpGVVmpykqKTAZt3rIV/QgxUT1YHSgLpclKdbeu0admD9JXv7S/+0CvLOnW7+5dqdUb2lWOIP70IcN1+Skj6VBYLk3xyKNryY3HQ2egE3HFnWdy0/Qw0l3P15e26erblunNd1oAxxBddsYoHTytRkmAZfFlcAQg+NXdpv4wcc7mUzG1U8/v39CkZxZuC0qqX7V4+iAACc/6eSuIrjei1Ew+a10JRb++OqcLTfMj61UcWuNSqSBEdjUHVnXPHIQXOnpyeuTFJv3DD5/QmCmHwkZbuQqh3ImUHDNA8tmGAtyb+WSy7lyiq2JCkGJUuGurTjl+uM47bqyGluUCYeMBHJH8zKJboFWExsZiJYAkoXlvd+mbP31CsaopjApGbrpb6Y5tKkl0oHSiTPqd5GC1wqaTRdXKdW/T5BHt+v6/nqriZFZtqbhuf7JZ1/7uKQ0bNkyfOfVAnX9UKeAEjPxzxwfRSSe7uzhxZcNfqHlg3Zxzsuiddl39hxV6Gc56+KxxuvzUUZoyFmUWyy9qJzTqRw8y6ZcCj8xD0YC0kmpQSuuaU/rO1Wu0aE0KxbcSBoBYQzeLABJBNVQp5GYg7Jx6a0t+Boh5UzqbQk/qUTLbonOOqtOXz0FR9WuYgGZyuT8FICZXZ1dOtz3aqB/esFBDx+5Lp8DLIWSf/mE10VXKkzEQNJxGV7nVC4rocv4Tpa+jXSMGJ/RZRt4nDqxWEbaXzdZoBBskPs6igPIKYEzH43r+zSZ984cvKF69P0pjFotjhyYO7dZJn9pbsw/EEiqKae7Lrbrtzme0vbVIw6oTumTO3jr6E6MYRS2KFdXo8cVt+sk1c2lLlS46ZaY+c1yJYCCBUHxSWH40Bfs5AkmAdgAH9eIRK6WL3ukEIEu0YMk2zT5orC4/bYxmjC9DGUyRBQ2nvib8wOQ2mf1ZkBqQyhVRalxdIGRHZ1bX37tKz77apo7cIO4PfN/v9E8Dz6M3wluur/84yVjHweCIpVt06uxyff0z+6CDmaxuL+lPAQjMQ5tB81U3vqPHFjSpvG40CO+kyhQU6hXsgD0CJNYPMFFN+j4TdHp38yaUOjrqzPGaiFJXHEMNDJU1rMze+QOp5lhp/p57Y5u+94uFas2OVnFpsUpj2/Stv5qhaeNLkKmx4HdohdDrt2ZRcpfrEzMnaea4BIQBkFgjbblS3fdCs358zZOqrh2lk4+cqC+fNRhF1yMpwADwu1003gM7dGKhzia470Qwfmtlp35+21K9tqJVY0fV6uzjG3Tc7DpVQBxbWAlbRLtJVnVjsPzIY2OdC3MZncbi/PePbdYfHnpD6aIRysRtvQ3MYyAgBp7n3wAVftMA8UEQ1wAknm7XYfsU62sXTtYwBmc6zbUEIhF/i5Pf8V8h7VHEdFH2orXt+tf/ek6tGqeeeAUGRorG0UDnYOEGFU0wJ3/2B8TA8/BQv49MipGWRiVLNWrOUSN19gnj4Sg4cXgxyicios1C69zdAGT5ux265vY39M66MnW0t+u4w8frynOHqQZ+aYBYSYbWgbuYNiXUzwCz26CHUb9kbaeuf2CHXnx9AwAr1fS9kvq7z+6t4TW8S6e5u2TRZRETRgHn5BHhPOJohm07ovXpV7fohrvXaH0jRiN5Tx5dqtOPrdf0CaUaNqhEFcXOk9dd/X7JprBFZwQ+W4Qo2ZDihdeadd3vX9em5mIly+ohbxAC/d704UBADDznkQCOnQs1sIPDDICMr0thOY7TJw8cjI6XDZZWPBgHUVF+s/D2ewLE7eqAsPMWt+jr//pHDR13qNq6PSp8JyJUzjpIAEkhOzLuxzHC1b5b+UL9fpSy2QyExYbOdKumNKVzjh2uEw4brsFYHDGzPoDIB2WYm8SDM8nQ3NKR07PzW9TW2KojDh6mccOTONnoXOoSh61nQVjaugiyqRi/RSdu0B0tGS1etVn3PNmkBUu3qqIGkYNcH1TSpL++Yn8dOrUUzoU4MyWxZ9yOguUSjUXXOWq767ChBV3m4VV6DMsoEx8eRE4KfWdwVbemTyzXqUcM14GT8GNEaPfLvSm0xuBzE+FWGLF6E+BfdeNrKM8MOHSoHCM66Hm9bxUO8oBwVUixAOLouPfTIyNP7b5reYBkOlVbbIfZEJyOU4KlhVQOXDsYHxwX3g7f7+VJdfnNqZzun9+s7/7oEY2ZOFvtmJrJpDkGlYSAAQsGSW9l/Fa+5qGK+dL61dLEKaSoqc6HfLOdqi/p0CWn7qUjZg1RWSm5+oF8lmYiGCiICThBPgN7O/1nNTk4/j1ybF3xnM3FLKZ0CvneikVzyz1rddv9b6p40Iigy5RVDFKmC4M1vQOQDdKlZ03U8Mp4xL3Iz6qD1dS+f655JFq6EQULlnbCPVZr9TrEWkkt+kM7yrG7GlGxfbXOPLIO/8o0DasrC7W1+Opreb5DAmeU1m7t0c+t7KIbJeKDoC6cAwUhjL18W/u+IqoVxuHuABLESm+f5N+k8OBsy3SpMtmik48YrItPnwzXpTTqVpS0MuuhHwHEsgESuG/CkOFw5+TGbEXGXH33Ft318FuqGzohKKxFllX0XGC/eVZWqGxvb+azCsBxKb3JJO4jk48KjYkz4nNYI/uMrUQfGaf9JlXgwyAHHnINDQ7TMwCFC87WgzPBhby32q2JAOJ8aWkP/zoByIYdPfqHbz8EGx+leGm9ulLtKi4qVQ8KYVGc+aD4Nl142lQde3Cd6qojkOS1EHJyWzMAM4ZbPYFnWVq1oVN3PbZezy9shcmVwHWygK5b8XKblOXqQq+66LihuhiRWQc3DG5ycgqoc93yx93k1YLhdeeD7+qPz61jemuYujEK7EmOFyPs3LBdUnStQPPdAcQipqB79L5OoRFAuuGqrVhdNbrkjMkMCrzG1CiJDHbOFs8GxwcCyKb2tL573UqQ3aKyslo8ekZaXj4zR+GKRNZMgALZuumh+XxDD3eje7I37QqQ0OOBC7l/u1BJNupTiI1zTxzHvEgZE3jk6Mbx7b+QOx0WxjLlJ+i0nG+QUFGiP47t3U5lUoibIjX2pPXDX72sl15tUWn5cJ7PqKKsSj2pGGDhGbyMQypbdc6nx+nQmfWqq3Wnm3DOFO2fjkKqqbErplXr23G4rdP8VxrxMldo6KBSjaijQ3h4S0e3NmxpQefp0NfO30dzZo+iMwAqntA480ae3DPNXF1mBdTOx2MvNuv2e5appQ0Rl6xSF6iJUec4vv4/HSDUu5f9mDYRHzRAstkemtSs6XtXweGmaL/RkcMMNf5PAEhbSv/yyxUodphkiTKlehhxRZaNgIORZ70gli0JlXE1ohS6MByGa303drkfLvjx0BiLKrhIpo2OadFpR4/S6UeP0FBGIGoFZlqE6ihjiAhI/J4B6no4G4sF/xn9lqcuOnQEL7/8xnbdcMszqqsbpUnjGlRTUwtAslqxtkmvLWunY5pVA0gOPmiM9tl7sEbW1mpwCboN8gtGo01NXdBhh159a6veWd2qVCqhUcOqccKN1H5Tqz2Xp3Vb2wHQdsCX1OHTh2h8vS0rqomlYH9DSADEqnA7lXyJcn97+9tatwExVTxYXXDsZHE5bYUr4rMJrDF6q/cz6sbeU9rrcU/KZx+d5M8ZPMEiCxwfxyQ0s26WSzVp/IgSXXraFB0+rSKI6SJGF/BhMHgQ29Hg/oCGexIxm1p79I0fvKE1W+mkonJMIups3mtwwFKDMpcrpzdQ6jgbmMK1Ai8ceLP/OQRxd7pz7RxL9zCPWZHSZ04ZxdT7YKb2KRQ6BGWKJyPb3aMieq+Qld938lcATP7bJEwxp7RoyUZGcVL7ThlGOWhSKCobGjO65q4Nmv/2RuVwhqSxqqoqSzRu6HCUuSKVMZI7mQHcuK1L6zdvwxKiZ2HH5YkuzTlyhE4+dpRqK+Cs6D6eQLNt4rLtTS2mDHOiCK0cBOTCtZhIe31zj268f5UWvLIe7jyUPEvhbGb2DDjTAhrHbX7tkvKAyF8PAHEZA5PFME6yOCLQAzqLIzEN10+j+OdSLRpXH9dnTp6sI2fUhHqWwLX8XIY/+DJVDTbhngGyrT2j/7h2tZ4m/qGqdijWOx1lPk5BuSBijNAS/oyaXVPor/cFSL5XqZbVIXeaTa94FnNseEwXnDJWswkFKCGfEvsWCt3Pa0FgFV6n+AJAdq0JVyCi6WhxFfQgAwRR042K+/Tbbbrq1iXaDqsoZeY4001oQVOLsii3OWayi0srw4yyZ1ZjiNjWlu1wmG59/vxJOvSAWsXsoSTXIthIQRQa0baI4gDKzC5wEOrvSc7NrVldw0Tfs5jJilUwIMwBAQf6UpBVPB4DHOaSu7bpgwKEPLIMbP4CQBjQaUSlAVKEiDkQHe/iUyZrn9GEO1B6Er0nh1Jvxd4DH02MFplD70FJbcFTds+TrQQKPa+q+rFYBFacnBG9QodFGZgV9eslsi+kcHWPAPEThXc9eukQExUQxmlMT9d2HbgPFsbJozVheJGqSvMTTAUaQfC8+hGK3JWYhZpAd95JAz6Dw6ZwgocNxC6+397Yrn+/ehHKrFRRRfwJsROZznbVlFWgzOKngMN1M8efQoOLIWq7mW4YM7RLl589UYdMJ3gKN7bJmcSf0QcQz/t6LEUAsXXleaUd0P/hFzfrridXoDRXYB4XAxCTIQJIjDyiFOBMXf3dPxUaH13bLQcJHJnS8yKYA/oM8UIdM3DoykSjjj+kWhfAQWxkYTACRCjDM0F9CBzEg572vhdAXLxl76I1Hfr+z17UFmZAYyWDkVEQGsKanSZQvIIIHNiGqO4R+gv9n7+2p6+MARI6EBaHmdfdgxhLbdUxeCcvPGWc9qpnziQ46fKgJO+dyLWnsqhjAYDFxYAcvSSFGe+Z05fwhP70t4vV0l3GyC0KkW2TR5bqsAOGqbysWG09XVq2slEL32pC3OB6Q9n0LPGZx+GJPWqcypIRGDwKCwCJNCO6xtyDP3eAZ8affn2HbnpwCToNxC+qYsISkNt0CMAwOAwr7uXbUvjmYj7lW5yneZ8O0td462TOI0rRtz/9SoYJu7H1nbpwzigdcdAwuEdMGEzRzaCreBAV3n8fgGDuM82e0R8efVc33bdGRVVjMTchLHMNcUZE0uFwUMRse3cpNG7XFvZ71C/2vezJqKBZ+B3Lc0Z8NtOu0sT2IGrmfGKkhpW50gCI8v3YTgDpl/PuDt3sQrIO0o0fpIURfevDONAeXw0LriTPLNyK+aGz99ZBE4opB4xiT69Y36Vb7l6hBW9tVwk+lFTrVqYIBuuSs/cljJHgIyqTtJOOAjyAw/ijaS6HZghDijw69es7lmnROkQ0nCg0wIokHeJ2F8Dh7yhswt06MEUt7mXMYYTyTFD0o2cDRalPYCS+5QPqESdiryTeouM94OaMU30FgoT2Qcq+FDLuu7BHDuKq2FxcvrmbOYcVWri4VUXl9RDBOi7ykfuxIDfzGfblyx1EUOjonS72VSQcuSmhOdF1kNZ3xsjivBjN1KKmrqpTF502UUfPGKIqRnCRRRzfrmNvCfmXC4SJMu373AUg3T1q7orrV79fA0AWqahsCBZISicwFf75c6eqivzsUU3DzTDo9NR8Bsrdi7Sd0V+CEnnYzOG64LRpGkPYZPDJABBbW65QDP3G8SBWaLup0LJ3U7rzkbWaC8DSRbV0GqDgmeAm4IUQutlbVYPfrepf48LNqJF7Aohp6vwcHuG4HYvXHHKsKNekaROTuuz0KZo+GhdCfpD1I3qoe6Ekf+8RIK5KhgmeduTKC5hkv77ldW1rrlSypIZCHc8BEZiGjzrIn6aMG2X9hFoFgOyukTwSkkuIGhyd9gcIdyzb6ZwMfLqrfbMmjy9C7u+nGWMrkKNYCB7eFBlK6JeVAbI7kPSvSQ6qpSBaN2b63Ldb9eizq7VuU071g3t0/pkTNGPCIJUGcQYHwXRzFNm7W9p0/5MrtfydVk0YU8tE4FDtN5nJOXRL5023BsC6LTmChCEukqOESDbptofX65G5mxDbpUpgyoZOo86BnbvuA2T1zhzEtN057REg1orJz+DI2gGG3pHpatZeDSldfAae6ukNBF5Ggsg1CMlfoR4Dy3kPJTU8xgsGSBpdYzsOnKcXbNcdD23C3k8RlFMdTEczSPDP45DI3CRY/h7X8FQAEjU05BbOoyM/71T4HnDskcc9g9BHWWR7hsDhHCFzhx80QhfgRJswrCiYlnYQW+e2Lhdec1YGiL/7I2LAaRSMhNbOhFgbyvjm7Rmt39ihSkzWqZOrVQaBHfjozDLBy8hcEOJ0S2OPWrFC6gYVY37DSfBXJNH8I0sO3caFe/Qyz2NpbnA98PxG3frQGm1sQn8hqDlOe2yPRSg2/ZxcYyssUTLdAhPhNPI2F+7kv/MjoHfuq9+IcH9YbGThsD30Xya1Q0Mq2nX+yeNZPTBazChAMxPMebm+A/Lud7pHDhIyIBMrXnY4NaKPPPjcNt1073KUuypiRcuDKVcYNzmm0nEmkD0vxfDYGeaBo0QlhnqEVrtm/iskk7XvPDrCxW2nDo+4g8ITKcvQZp18zHAUxNGqxbXtKDQ0hXzMSJRf4CAc8tpOqT9eook4RhkPu4z+4HI93aboTqg1z1gxjmodrvBS1DxMELcVV2ouzALzFg+4vl4qsWDxVvwdS7VsvYE2CF0F0zPoCwU1NqpiVJYBEpVnMkUAce2couvRsevbvzXcLTzGA66pXefdmN+pHKAvbtbpR43SOceNxbeDfsSrBVgW8nuv7w8EEDfYIHGDNxAfctuD6/Xw8+spaSgF2aFicULjAgexg9q1xajysC4MA66EJn5QgNBjFgMWOmaTYeaYYpIEG5Ylt+qy8/YjyKiGWFYULYqxTymQLPSa509ctEsMpfLd/8g1jPIOVQ13TXTXe/epd0TzSOASAVg+svFojmkLJDJRbZQAGTy0WCz3LyZkgo4CHPZ5hPUoIY8orrdQWgQQ5xPV14MrIp2vOe0MiD0BxGLLIOnuaWH2vUWf2L9Gnz9zikYwz2SxZ72uUE7Ieg8fewaIXzTRyM/VTHHcgt6xeG2KYN1VWrSc4KEi4hbMLoMHzgUXhi0NDABxJlEKTf8gAAn9ZIC4eN7iHR+XMMHmSPT2lk1qQFe4/KJ9NWtKlappcAyTtYjnPGWvOKLJr4UO60/YUIN8bQCIM+2XBp73u8VhxPL9hv1AoW4cR4HJ3AsjmusUxxSP1mzP6sa7FmnuG1uVSaCUAg6H/yWDYmr9AIDsFIMRcu4t8sMDxG2L2mPYBvGc3q5JY3P6/HnTtD+ToEm8yXHKDYFM/UnRW+quB+8DEMPCfy7Y44QIMCjTQlzIi280ApKlepfFQ8Vo/zEURju4UsjeQgp16FeRgI3w0Z8YUaNoUr6cfDPdw+EPiudvJe20wmY0Z+lq34hGXqwvX7GvJg0tEcIt6CFBNOAGD8kij3r3plC2z6IyrSj2Ja5Fl/su9T/q1xhbCFn/mSLU0WtyXFc7wnIo1c3oNHc/tUH3PbUeNwF6GcHTkZeU4WOAUJBjPbKuD38utn/7XWx0y3cKlUQkmR4hFb7zp3y54+0AzED/NGtgcqz3aahp1Rcvmk4g9TCV0djg2WUABzLkyVrIYdccozvvCxCH8obKh85KQATMTurcxCKmxxesh4WuJt7CsaC4nO1qDpp/gdIRAXor4VqE2vl+9BcRxk8UrvnYiRZYrkH8EFEGML1KzFI6ixxH/VOsexOxqA268NQxGlYReVltXsYS6AWBmNaJQmbRB1nulGiHOcGHTlQrA6ey59EAiVNHjwt3ZRZu9hRrZW57+F3WtaBCE4WHI5s77hHz2jC+wyeNCEBxFXYFiIllcrnFfrXAmcPpLh8GSJKJ1O5uK/NNrOjbgVtgkk755Gg4K+CAW3n+zwzWaqE5XaHpLikqbZdsLZL2RKJIUltSuPVGsJ+2vzNFBNcWHJ2/f2a17n9oLabUMFhXNSWZAG4UDwYwuGGFxvrQx84w+usjjM/7J54DIF53E884D4+6bhx1tqo8v4AstaXQvk5XnDNNpx0zBFGDjPV0digCCkC0nVJUjb5L7tHeNLD83hu7HBS62Dcc7ebmsqhOLMPRayyBuPWBVXp7DXqHAAeDJoADgPg9161Qjeg7okAfHaLiCtZfwVO6i84R6GeqkAtVN/fyRKQnOkviW/DwNui8kyailEInTBpzLPejQ0xchz8TQKJRAalBpT8imuc4cQh9Nybbos0dYZ3JgpcbQfCwMJkVNdach5rgQg6N4PXQcVHvRZmFO+6Ywh+HvSlqOEMQgGAW8kgu3glDIUoMNu4GJ5lF7mneTjxpRl+8+EBc46WYvlSUTgv/yGKnFMqmHvmLHhsu2cnXdhkqvQ+GR3b68HuuU1iITefYylu+sVu3PLha899qYRIQT6nNWQ9X/iJQUSvbn+Fdvg2ufHovgBTu7/TtchmxroPp4IHreSWHN3oJyOzp5frceRM0opbZaMROgjLdfaG+oeI+4d18pq5FX03yFwv39sxBIoCEDEJteCugxUMPRxNsbzsxDK+vaiOkb4WWo60nitFHEAEJamOZmIZ4hdJDJT4AQKKlAhHJwghFubOrWDFkKz4H37f0se8BFqhsdxvBRSXElk7VyCEOzGHeA5ML903EUiPM9OrPAWy8b2sjMBE+PLo8NR9cz24j96xNeU4ojXvU7nLrLFwOyd8RQDjgPesdf3wO6+6ZtWrpIo6kmPUsCUx+uBhSDw7rl4FJcGLxDpwxKPf5HKPWhqzDRx7LfRf6HbnNkeVENuTvfJx/tnOLJrGLwVcvn8EK/nI8p56ljV70G2FRmEcBmTt/jkIqtCl/utPX+4gYEzDKppBJ4du5uM9QjNWCUvL0a1t1y/3vaB3rSYtLWLXFtLjHpxW5QEmeD++GljvP6K9v5ETlON8wKnxA8jGaX/S4I1Jz/BWSWWcYS1b+iJIaFyOanOcpqLUNVsveCzHPLma9VBmQsRWCMwo0o6Ny6CoBjJjndCmsmJDCzmjxVQ+OOc87lVQ4gMecgAXrns31+73arY/dyoR2dCf0zsYutRCFl3R8J8Tp7sKDyTYZSfxFSUeJWQEw7ABK8JlQqjtudylu9IVUuF84d/Pw0VCH0HYA4idy1Le2ZJu+fOEUzNp6FpIB7pAHJQROFeVTyK0gwvKFvOfXBwCIG9WXbF87GYhQF0LQZE62QYxH5q1H/rJtQcrbFgxi5GVwlfNgvrHhzQ8EkN5mUIhZaKTkReqSOzlfp8C6IbaVRTwPSYhUQqdmOE4R9pcoMiHphByBl45bMdggq60gvAQcepk/8Sdc9zS751NS7US0IT6Hj2jQDrYBaGKxOBNQ5FUWOEECkBgghoXjcqORDKeMl2LO4raDICyBUnlJhvXAVpJLtX07oZToUXGL2zwtIsXVANl96gNIgHOoZ/8nA0DcfvKME4VXEduqc06YShSel1TiEvBHAKTJb2AXaBrl8tEDxOUYmbTQxHK3rd7egwxepcfnEwhTNBK2zMg0m39fgITMnKEP+lJAPgRihJsQBqPBZueUvyMfCZ3kjWdIWZZVmpxJr/Olb3rS3inELNhzHw5sClTjXTu3EIfEolo6FwKi0yzjJFJIB00epGOPmaSX396hJ+ZtUrKcaXmAhmMXJmSz1uCgPMsl3g8ggfugpQcx1N3ZqL3GlOgE1vpU1ZTp7ntXaPVaXiagORIr7lj+ePO90vsBJHrP5cdQzpv1qRmVxPGOVz3u/xDd5rp9nAAJFcwDxO10VduR1Y4f+f0jazTv9VYlSodw1aMzIkT43ImDhFz4MKmcQ/9k1mhE0MHuWEDiyUEvrUylmrVl64ag49isLsJ+GzK0AYJUci+t9o4dKNFRnGmSybLycmaAq+vVQ9CP52A6OprChioODArF0rHx4hKixspVHmtirmeSZs0aodv+uFr3sMqtrGoIYDdA8TNgRpqDVDDlXwRX6QBQ9lgaKGWlTCLybI51PuPHZHXhWXtpcF21fnXtQi19h7jeZC38yiGABi0p34E+HJh2BcjO9DG9ilj3kwaMM6eUI1omsujMy8QsWpwbz3/sAMnXw1+gIEx1txNE8srydt1wD6beCqLIK4dxD78Flf6wAAksHBDG7PCig+whbmnaSEd068CZI1Q3xEogc0SNWb315jI1NiM4mFScOGG4ZuzPbj+lzOUQ0bVubUJLlq0lilwaMmSQ9mUybsvmVg2tK9eIYSi0RKu/s7ZDry9Zr0+S70VzRqqGSYtXWZz97LzNamnOqbaWVfvIoCF1mPjoXIuxVFqb09prQq0aRlq5RcxujWsZwUfrN6zTpHExXX7BvqodPFhX/2aBlq2C0xQBNMeeuhvdeXkfR6DfgI9dAbLzA55PSbVtIvSxU9/40iyWixD9Rs4Wek4R145E8cciYvqqW0A2hhej057WNnzNzy7YpFsZgZtbCMIhcspcJAII2OaZaOhGuUTgKeQTXQveSox2P5oAIA7d62YLqsHMtp7Ndg0HzKzVyq2MFpjLCBTTlxdu0q+veVQHHXioLjlvjIYCnoVvZTR6ONFfiKPn5zfqziff1rT9xmESj4GLZLSd1XHtdP6kMXG1dKSZyt+kquIUm7/spRqCehev79bbi70DURGR64OCg3BbU06LmWJo3NioyWOKNW16vTYTqui21dXG2KesS3feO4+dirr0uYsPBlj1+sVvXtbSVTxTXIc5jMIchrjFpAXz7pMFkDMNSjqP5KV09DBE6SEksr6sVV9gz7FjDhmMWPHjiPpAZAuyPnp+jABxJfznWkURYB32GGHeduHM/MNja3THE1uw6AbziLdvQk6TrLO8P0As460MIvMRMQnMpUTXDp1x/CideHSt5r3KFPrDC4kQ79ZffelkotBLdNPNS3TSsRM0ea8SXXX1U3pmQaMmjhmqf/vrw1j5ltV/3rgKDrNJP/ynw9XY0qPr71quF+e9qpOOmKg5cw7WW+9s1B9um6tTj5uu/WdN1u8fXqoX587TRWfM1jFH7KOXX9+oO1idt7kxjQd3gk45eoLeWLRJdzzwttqwmk46YX/Nnr0XXGexVi/frDNO3IcF4kMByCtaupo2A5BM3PPP0MvgeD+AmEpBz+HRwlwP78Zpc7Zjg84/aXp+vzYGHwDxoPKOZO6NiNIckD5SgERFvNdnv46mAUFZDdwBtQ22sGxTt25+cCXbNG0N8zU5gmWs6FlIBm0+oL0v74Ku0neFRlvEoCN0t+7QWFajf/kz42DfpfrJb17Sc4uIEcVUnLr3CI0ZVso6lhLc7g1asSan7/7nPQQkN6BU9ugK1qCeeEKDrr6vSYveeFa//Nap7Ja0Qz++eSG6TJOOnDVal11wsNa9u0XXXPO8Tjx+H806dIrufAgAzZ2vC06fgU4yTfc9vFx3PfCaqmvq9BkWHR20b71uvW+pnlu4XR1YcbNmjNWFZ05UB1Hvry14R584ZJyqBg/TT6+Bg6yF3RcR08tAocvy7Tf9dpO4HOkRNsUjq60I0eSx18mkZDK1QcfOKNFXLpmJUhop5kGYAJBCjuBlp1SwPne6+AFO3tfM/QB57PYRN6sVpfWN1d266c639friHWj0ozH3MFmDecYDAwHiCwOuGSDeibCzeTMLkeL6+y9N1qBqAILiN39FtyqG7sXs7g51bF+Oy302G8cN16vLM/r2fz6ikppxeBZ36KSDhurSiyfppkdb9frCp3T1N0/VS4ta9YMbX1UrouWwA+sJH5iuze9u1TW/ma/jP0086iGTde8jq/TS3Jd1zqnMhh4wlU3rlurBx5dq36l76+LTxmtkfU63PrhW895gmQRzU3uzd9plZ4xWGZu0LJi/XLMOHqfKugb9GB0kAKR4EB0Yud6DBbOT3OhHRno5cAA4jD3HTo58NxRa2po0ejDLNP75kywq8/YN+F2gjxe0FVJEwj5C+qjvrPDUB/v+yABiJBskHSitL7zepOvvWKTVLBYqqfHSR0+29VU5HHNa+HbVgw7C6LHPwqOnu3EL2xZk9Q9f2RdLoUw/ve5lzV3RqQQWSrqzVU3r3ySA+EBdccEBhBBm9cNfPoUzoE4JLJ45hAZedtE+uuGBVr36yrP6ybfmaOGiTv30+iWIhpQOZ/Oay9kUb5M5CAA59oRpmnnoeACyWi8hgs4+eV8ddPBk3fnACt39wDJNmjSBibDxIeTg5vveYX8QdALaOXFsFZvhjFUJK9cWzF+pQ2ePVVndMP0IMC9ht0YaT7sYIGGYM6bDt1s7IHE9GTgxYhY/kr3GjBLCBnegT23Wt//ucO0/hiUTXcTGYM/bmOzPfSPKRp/O2Ud9Z77ywdNHBpBCFTzz28z6iSde2sTmKGu1uR1w4A+I4ThyvEZhbsLPDwRIJumwPQCCDtLTuF0ThxXrK1dO1KjhZfqvq57R/CWtEL1aB06boHNPYnvLrmIdMKlM63fk9IWvXq8EFlRNaVKfPW22DplVjU7Upldfna8ffus4vQJAfn7dSgDSA0AqdRlm4sb1m/XrAJD9NQvxcP/D78BBXtFZp8zQ9BkT2UDvHTjICo0YOZqtE8Zqxj7luu/R1WwBsU7bqd+hsybqc+fsq47GRr384kod/okxKqvPA2QdVkyJV+5HTj9Pmhkou+24XoAgtpEVBkhXqlXl8UZ9jTmn42lLMehKsSykuBj9DI5sba2Qojz7cvZR31nhqQ/2/dEChDp7ICA2tW5HWnc+tVYPPIentRu3tucqUNhYlUHtB0pMc5BISXXD8UESENSjjqbNOvaTE3QpG8Y0NXXrf/3sERZQJ/U/vn4MO/yU6Z/+4xGddfrROmxyESN9ua679REdcdiR+psrp4XtPP/lv5artJgN+f72IL25qEM/v36pWlBWDz0ADnLxFPSRrfrltXN18MGT9Gn0kMcefFNPPPSULjj3WO03ex/d8sdluvfRVaobNkpHHdqgU46pUyM7QN5083NsZtOkC8//pGbu36A77nhJK1ds0dlnH6TqhmH62bXzETE2c+toDQMkzCHRQdBltx3H9VJERpq1EmXl5dq67V247g6diGL81XP3wnqxa46HTNy8dchRb3Kef6rO0ZtJ/uAjBogbEXW2Q/8Xb0jp+rvf0sK32b2PbRgyGZYyBpDATQZQyg32yLHaFccZZpJ0d3Ur17VZxx/eQOT5JBb8eANadjqsKtEPr35CjxIGOYR9Rf/H54/T/nvHw56qISi5KaNvffd+dKIGzZ45Xl///Ai9Bgf5yW+WoDtkWb4wRJdeNFobNzfrBz+bq5rBMf39357ATGhGjRvYRJegn0ENxbr9EUIbHt8QHGcliW50l1osKvwxbAvuEd3akdR9j63Ws3OXa/SIKl183r4aNLwGgOAoW0kbkjU0yACxyfEe4Mh3TBF6hfcU82Rbd9sG1t5k9P1//KRGlDKpwLaYpVWV0GfXgeXX/3IAYiqEPzqbanfR4wuXNOk3d76pZaxoLy4dBkgsalC/QIi5hltXkM3BYAMcyRDjQaQU8tvbF5TE21WG16y9Ba8qik5pBbtBd7LMgJV/xcSKqGsLi67hXIxWrz3J4f1saoEdVzZQpucutoflCPEiFk3bO9rRSpwmLJtne9B5vO44XowwwDEWA4ExZoaTsPJ0UUVYWZeE+7HpKCOcTfFsfqOMJ3Dde9kiu73CKUpUWcJ1bKxuHBOpXAVaJ2IV8RJCFIOrHvHh9oZkOvWehCvd3Ski7EvVCtesSTbqhh8dw2Qckfyw44QNIZ6PXP3h8Z0+nNNfBgcJ1S6AxG4cPJ0Q5wn2/7zuniWsM8E1AEi8VCIoWdh25iQBILwWGW15gAAxb+LiJRClzET1dLFmBqdTF99p5mLKKspwxUN02G7SYKOjOwmeSbJz+2jM4y4cM23pasxE4kjwKoVwQWZYE/RSDi7iibyuHuZnAFCytAigsO7HeUHqsM8ZrssUk0GE37Dcg3qw94i9lXEU6JIEe7cBGNgbDMKxphYkzOSyCLwLMRFnj3fvDwK7DiGHoWWUFznBTJ+8QkJZfaABuAYgfpsffOtIzWJuJ8fmMgkGht1JNO8vDyAFKARc7ObDUU8mhTfcv/vRN/WHJzaoOTsKIlepuwOLxBHqTJUbIPZERxzFjmlPrtkJBEv18DCKILZNu+bmZuS03dees2EJJLOqba1d7FBcja7TyOZ22/Xjb84i4Fn65W2dmvvKWpWWovsAkjSdHnZ2Zo7Ga3XdiRxRrrlIEiCIrRmYpWW5RRodKMnMYzwOEOF6adbretO7OFtEeOlEFoXRUwExFrqm7OyBG4VJvUAHepQ6R0OkHxjcHsrjbZcatc1XAI9DBLMd63UBG+9fPGewKuG+bnrUfh+QCqw2Otvps79Vs9OND3nyZ9VBdgcQXyskNzBaYS+t39at39y7SM++weRXMaYvneuV52FUwvbddpu6waEWiNc/J+cI2BjxXUyWJRxsybnXerd7woVRPqSBjeX4h02jH3zjUxoxNMZWFo0AZA2KKtyICbVmfApeZ1xWUq6aQUPYfagOyyDFwqjG4F8oQlT0kKnFWpyA6ZLyamaJ0SPM8Zjo62zdovZuJuoQRaXFFezcXA0HQgyBLHsvi/Aoh07ljQggriXtCB0LOIJ31PfcNv+5HT7NaOumlSjB07BaRmoEPwiA9AqJKanwlF3p4bXo8i6ff7EACRu30Jws4uTNlWldjxPtlWUtLAwfCQ1hsV4Ybu00sNtoNO+OEo4sTLd2Mq3O78lUE+LH+t0Gdg9KMDnTQ/jXijVb+MWIDtVXsbn/3xyp0Uyofe+X6/X0vLc0fBgbxIyo0cg6dtdBJLQiYtZvSWnF6vbAURqGFKsSZdAiYkRDPeAgco7tpd7Z2KTmdkIJWH5RkmvTXpjbNWzb6Z+G2NGc1Zp17WpsRdPAnC1GfOWox0CAREAwGGhr4CB+InoqzN8B6qSaw/YS//jXB2lEZZJVfjwBdkwWBB/PUyS0ynvhw/nAj79IgFhumhSeifRYsY9w/lvse3rXUq3i1xOSKIGebQoAQdB6aUHYLG83Q8UA6djWqK9eMV2HH0lADyMrg7PKyyIr2V1505asvvm9+awq69G3/+oIDUUf/c7PVuu1t5frvLNm6tyT+cWHNli7RQsbZOxA4b3+pg2425frb//qcO01Cr0FMBR5D3c2GkvBEZ6cv06/u/0tOEmVTjt+qo48pDaaHEPclZSxfvnlFt15/wqWZ9LJDuCmqwudX+AgBYCYDgZIYVGYldcEIivJPEs5wT8/+N6hGsH2W463Aqthptz0cLC4340AYhG1+/QXA5DdVz+62oN14GCd++cy4fX4Om1ttB5QDVuHAPwESHASecTsDiAQtBXvqudJzj25AkBk9L2fL9HLry7TV644RlecW40Ht0f/9b9u0K/+40oNrueXnK5aqyI2ofnGF0ezfSX7o/79w4QCrOYHBabrb75ykjas38o+Zq/rtNMO0MwDh2g+zr1fXPeCymrK9bXPHafReHJvvWsBimiPLvnMUVq2tEPX3bJIa9bv0GfOnaI57Bfy1Nz1xJCsZnbYm9JZHOWnzYIOErU76CLU3wDxslKDx+uA4+zdkeQXGf7+K7P5GRN+pIB4WAPEkW7WjaxY+2dDDDp7kKIlnFGeu3xGkzm7XP6wFz5yHeS9KuRR4MAwu6i3AYjr7349bCvZlR2s7hTmLESzmelArd0BxBbB1g3v6sqLZhNqV6mHH12vG//oLZ1YeJ1Zoat+fDzexywAuVdf/8IctvEs0rd/slKbt27D4TROTz/9DCEmI/SpIw6Bncc0ZWICgGwCIPN0ymmziCkZxe6Da/XIM69pODPCZxy3F/uFlOiJp99QFZvXTdtvf91x56t67NmlrAuS9p9Soy8yeVY+aKh+d9fbemtZBxNt7FYUuIjbkFcyOaSvg7nrdmVYFmEumUBkxfHxnPPpWTr16Cp+lcFbXEAgdLOQwtZQhEfiZLNLwJsG72bcRM/68/8GgBgkaaLBDYaNLezJestivbyUraewamxFhNBCo8gU3Skx9ri0ed06XXnhLDhIpa65dgG/BGHzdZA6ti7Rz394ooazx9lVVz+iMz49U2NG1+v712zRggULdNyhdZo+ZaRmzBhNrhksIbZlqi5hdf9G3XjzXJ12yqEaP2GE7vjjRj3x/GINH1nDJOAkHTAurldeW6NBQyu1//RxBB2xI8A2m99xDRmcY26GCUq44s33LNf81zpYgrl7DuLmeG9Vtypjecv+YY2blmjO0fvoyxdM4KfDvCFNHlr5psdi3gsJ7pFjFyQHcfM2Y8S42336vwUgiNSgB+TgFq/ibfzNHYu1hHmLNJzAbYwWDpkKZsz+Mos1QOA86zfqsnNmsGNwpa678RU9+SpaDb/+1NO4XFf96FSU15yu+82jmvOpaZpEh3/nVysJJBqkz11Qr6bt3Xr6hTYtW444aN2kc849Dh1ou2763TydPucQTZg4XL//42Y9NW8J4YxlOvu4MTr6gHq9tngTDrcEymuD3nh9q5qw2ctqatSyfbvadrRpMz/PtfRdfhmrm/hTQgxtfodqhybke5u6h/3uuWaVM8l6n0mjc/q7K6dqVE20jDS81O+DvRY54wVCJnZKznd36b2u7+7ZPVz7s4qYgeWYHHmShFuu80715qZHQeEhrFsm9TbohnvXMHfDDwZ5Us+WTSAyAOHlSGn1kseMmjZu0OVnzmC7zEo988I6/YptsrqwA0dVb9N3v3kSekBW3/63G/W9f7qUyC4Chn67iAiwiTpiRkLX3/ISomC5autqdfJx45hvOUDvvrtZv7vhRZ190kxNnDRSt967Wc8uXKxhI8p19okTdeD4Ui1Y+C77vJeqATP69/e8yY8vrgrljMfyOflIfqIkXgMn20gkHSGY/rUG6u/UGwIY5AIb4rF1dwlOufbmDo1vKNVXCEeYyY8AWO8Iz/MRvRlO+TCUSIF7RIe9nzsRtffqn+XgYwWIeYHBEZgCh6alV6hd+4fFuv/ZRkIXGYEJE7k/OOzEMgfJaNu61frsObPZBZFfr+T9r373aUL+1ul7/3i+JoxL6IUFbfrdjX/UD75zngYPyeknN67UaETNyUdWE/W1Xtff9qqGDWce5ryDmJkt1pKlG/UrfkfmzDmzNGXqKETFFoKvl6iuoRzdYLw+ue9gPfzUCkxZR49Nw7SNs//7ci1ftUnnz5nM78ENJdSyS/fiANyGNRVLYpUFX4hHQcT5zBG9TMOR96lutvTi73PnHaCT2HVwENtKh/HCRx4nvPceyQ86fYTgCNm/38q6UIk/8SM0tt+7bkuhPb7n8Dh/h19p4ABHaxg2WzEvf8FInv828zcxXPHm0t7SgTmSwEVQ/Kykbtuwkp8C+aQuObGKAF72ZSe/DlzpCQC08M0e3Xb3YjhUSv/43w9UBc6mG+/p0qo1S/WFy/blN+oiJ5YDkrpZHWiNr7ktgxXUqqmTBqlyUIJp/O16+sVVauC3YE781FjtPyGpufPRS55br5kHjOCnSIaxbSazMFYayWIuv0Pz4JObw75ncX7tCnetsU3y6Lc73yDBHuHb+6ulO1BKjx6n804YpqGY5mYuJoHT+wIkeuwj//zYOIgJYU+njTfvt26TzU40swL/hux2QHLt7Yv08qIuZmUBB46O8McyhjSavXc53LF5lS4/71BddEwl0/LLNe/NHUHBTeMl3bitnXyGBU9pw2BmUnGjN7aXheUSDYNZJlHNmh3Ks9OrqakTjyiTY4MITGbxlX/yJFFSqWbCTVo8g0zwRjmLsAaVF/GLF1mu469gV6FBSMHKStYD40XtZDO8RvSaHrbJLMKj6jmbjC0NgyNYILh5cXNl2WnQa3JibBR85MHjdOXpo9RAXQqAMEjMDfOS6SMHwPsV8JECZE+F2wvg2ZXIG+DRA1kgjm19j7M0IGni188eeeYdPfLU66yDq2XdTQ2bwJWolQm68kp+OXvTO/wY8mG67Nhq3XTLm7rt8ZVsTlvJ0k+mO5mTKS4bhKLr+RnW82I12MXkPdeYZSFK3ivxPA/iH0um/GBNoDET4uclmZ53STA1n7OdDRi9IUsKz2rCe4x5lV0WM5a1Nzn2bPcvPhRxvQjvqV3sdu5k4B5e/+JdqWOsKY6xaVdpmWeIPRPdpuM+uY+OPXSURppzBCpg0tPmIuOJ9geAFNjtngj5Ed/72AASMVOzXvMSCJkHiDvSMjrs0MdYcqd6A9q1G7N6ifW/815ZghghyozNcJtYI3POKceyB8ZgPfTwIj360hpmbHGDM4HmPNP4phMEVEB6SgluJgDipZFcJ88K+yCASycd6s1xXVouyY//ARIvjsoSr2rvhZVnV8/LOsJUanDOpAAeooJot7j3ZSM/kMJD1B+E2wkW5It9GXCQIUOqNXWfCTrwwEFMCcTZQVFCisGJaCti0PVwOIBlqHGB6hK+OfxY08cEEIPCqfANSSLlIlyJLBWPKzrHHRWucs5joR+47o1rLZI8te9k1kxXIFJYu8ZMrZ9N8bBDGl1KoSRP4QfI8K7nONzxnTwXfmPOrIvzFJl50xqPZk6JCyUPDgpwNlCcazG96HXJztv1cU187Dr62FXzt5Olp+8ZY/7w9tfeToufH6LutNCrBxFLqFAMDk8Hoktx5eNOHxNA3GxTKv9lKtKj4Qof0SxuuMvsL/oHXeNp+UBxKJ0Ia2y8ii4NJzEZ853DPe8J6p12HBfSfz4iX1ooI3QaF2g85+TOCI5boXTPAI4AUBARdgZwNei0/iw/4yAkLrtOBpyTAeJkjPnPZ+ZbUc3yAOHRiLv4OnoR3CMOd/GzDuS2a4zNACIv8v8DCPToTSZyRGATEHIFDhBRLuqA8CiPeEQXPqNnw4Xow2wknwoAKYCkcCcqpfBQ/ju8B0A9zJ3y51ElOM2/ZK4Ubkdf4bOQb+F64XyncvLPByzlH7DIczv9Fw2NqGVhg7zAjSwYP/70MXKQ3Tc+GpAFMu/8TKGzC1cNgvdKAwHyXs/1v/5e+Q0st/87H+a4f/79j51HAYSFgfLnKvPD1G93z/4fB5D+ldyViDuPy4H3B75rIn8YQr9Xfh8mj/51GHjcP//+x35uYBkDzwfm9f/X+f8DSD9KD+w03/pzdlT//Psf766cP2e5/Zr4oQ//N1eY7VQJsY11AAAAAElFTkSuQmCC;" vertex="1" parent="1">
          <mxGeometry x="267" y="98" width="30.91" height="30" as="geometry" />
        </mxCell>
        <mxCell id="I2gfO7rlxJFu91sXPex--4" value="" style="shape=image;verticalLabelPosition=bottom;labelBackgroundColor=default;verticalAlign=top;aspect=fixed;imageAspect=0;image=data:image/png,iVBORw0KGgoAAAANSUhEUgAAARYAAAD2CAYAAAATfqh5AAAAAXNSR0IArs4c6QAAAGJlWElmTU0AKgAAAAgAAYdpAAQAAAABAAAAGgAAAAAABJKGAAcAAAASAAAAUKABAAMAAAABAAEAAKACAAQAAAABAAABFqADAAQAAAABAAAA9gAAAABBU0NJSQAAAFNjcmVlbnNob3Tj6FjKAAAB1mlUWHRYTUw6Y29tLmFkb2JlLnhtcAAAAAAAPHg6eG1wbWV0YSB4bWxuczp4PSJhZG9iZTpuczptZXRhLyIgeDp4bXB0az0iWE1QIENvcmUgNi4wLjAiPgogICA8cmRmOlJERiB4bWxuczpyZGY9Imh0dHA6Ly93d3cudzMub3JnLzE5OTkvMDIvMjItcmRmLXN5bnRheC1ucyMiPgogICAgICA8cmRmOkRlc2NyaXB0aW9uIHJkZjphYm91dD0iIgogICAgICAgICAgICB4bWxuczpleGlmPSJodHRwOi8vbnMuYWRvYmUuY29tL2V4aWYvMS4wLyI+CiAgICAgICAgIDxleGlmOlBpeGVsWURpbWVuc2lvbj4yNDY8L2V4aWY6UGl4ZWxZRGltZW5zaW9uPgogICAgICAgICA8ZXhpZjpQaXhlbFhEaW1lbnNpb24+Mjc4PC9leGlmOlBpeGVsWERpbWVuc2lvbj4KICAgICAgICAgPGV4aWY6VXNlckNvbW1lbnQ+U2NyZWVuc2hvdDwvZXhpZjpVc2VyQ29tbWVudD4KICAgICAgPC9yZGY6RGVzY3JpcHRpb24+CiAgIDwvcmRmOlJERj4KPC94OnhtcG1ldGE+Cm59WpoAAEAASURBVHgB7L0Hl2THdSZ405e37aq9AbrRaDQ8QBiCBAiSEkmARiApzUoazWgkjdFoz57dmd09Z8/8hpmzZ8/OzBE5Z7gjajgypERSdKIRAMIRQMOjG91oV22rurzLrLT7ffe+yHyZlVmVVZVVXeZF1cv3XrywN27cuHHjxo1QAU4CF0AggEAAgQZCINzAtIKkAggEEAggoBAICEuACAEEAgg0HAIBYWk4SIMEAwgEEAgIS4ADAQQCCDQcAgFhaThIgwQDCAQQCAhLgAMBBAIINBwCAWFpOEiDBAMIBBAICEuAAwEEAgg0HAIBYWk4SIMEAwgEEAgIS4ADAQQCCDQcAgFhaThIgwQDCAQQCAhLgAMBBAIINBwC0YanGCS46hCYzeTktfMj8tqHo3J5aEa6WmNy1/5ueeRIr/S0JVa9PEGGcyGQzRVkeGJWro9mpalJZN/WZklEwxIKheYG3gA+oWB38/psxTw2pU8l0/Lm+SH5+vMX5cX+tORTaQlnMhIBrsaBtH09zfKbj+2Xz9y1XbZ2NEk0vDGReK22YC5fkLHpjJy/PiUnzg3LmYEpSeXQBqGY7GgLy4MHOuTI7g7Z2t0szfGNNcYHhGWtYmWNcmVzeRkFsv7q7JD8+YsX5NS1Cbk6CSKTi0hTNifxfFZCYpYwIiAknW0xObg1Jp+8dzcIzC7Z3d0iiVikRuqB93IhkAcxmZjJSv+NaXmrf0TODU8qcUmmCpLNoGUKbJ2YxEBf2iMRaW+KSU93Qo4dbJXDO1tkGwaAGEaG9c7JBIRluZi0SvEzICiD4zPy0ulB+cnbg/L6xUm5Pp6STC4LRAWygqWO5kXCoCnkS0haeOUhRYtIHtOjuBzta5dP3LFdHr99u+zf1iatiY01Sq5SU5RlQ3NGnObMzGYxzUnJ6evTcu76jAzgeWx2RpJ5cJJoiEg+IrFsBHeKNUHY2UhooXwIjYZmiDWHZUtnRA72tMnhHR2yb1urTmk5CKxHIhMQljI0WVsvNMGVBhdyeXgaMpRh+f4bl+WtixMyMpkFMgMzQzm9QoW8EF0LQFi7FGtBTkKSjYQlDMxO5DP4FpOWlha5ta9VPn93rzx8a7ccAhK3YtQMb9C5/kq1KDnHVDorQxNJuTI0LacvJ+XsUE6GZ3Iym52VSCED6OdBOEA8UAgS/CjaLAKORQphDAS4of1yYbs4MITyUbRjXDpammRHV0SO7myWg9tbZVtXi7Q3xySxjqZLAWFZKcxbRrqUnyTTOSBtSt4CQfnGs+flV/3TMpUBggJdo/geEiMqgjsRGGiJXyIsSAyxFu/kWPRRy0K/MMLE4BeV1khGQFfkqw/vlifv3ifbOpvAwUQkCkIUuLkQICxzICazmbwkZ3MyODqDthmQD6+NyzCmoqlsXLKhuEYMSRokPqvEhG2JlvI4FCUxGqb0U0B7aEthAIiizeKSC4FLQfx4OCMdibzshqzs3oPbZH9fp7S1xKU5EcZ0iYLfUipr7SkgLGuoRcgyc4WHMpTnT16X//ZcP+bp40BadPYwkI34B9QLkX1WdMWdz/TXEdCIiffCwD7nCEYJG0OgOiRUhzAt+sK9O+RLD/apwDcRM8T1Rd6Uj5zm4B/TzbykMd0hMXnj3Kic7J+RQazw2DRUG8UoOBqIbeRagUBj/DwaqETga4ESQ4NvQCilUfAGk7ByMvv7uuXuQ01yy852aQGBiUIeQ1naWpsuBYSlVjuvor8iMNBxBBzK37w6IN98ZVDevDoteQhiI4Uc5uXgSjA8GXISkUlQgHCYAilh8crK74bmSmUqauAIS8mbI2Qon8AUH8gZmZGd3U3yybt3yFcf2SlHd3UZwpaCb5onEgO6XD4v18dm5G0Q9zcvjks/pjzpHKY4mMqQfBihJ6+ozQECUHL8pu2BH5cev1obot3KnCMqZZ4IqykjElIuRDGt4nfGDcnW9ia5Y28cnEyHHMB0lrKY8Bpa9QsIS3lbrvobWeWrw1Py1y/1y/dAUC4O57AkiRESc/QC5t8qmCXKYopjoxixHldDCAumPhAqhgsxdhNkkZZorAChYVQ+decW+TKmSXft65EYlq43i+OqzshEWt67NCuvnp+U/pFxyLmSUoCQPMSebb1bCbgRCUKGXEW5awRhKaYIohIqxNFCmAtHh5SgRfLN0oS/OPCiqz0uR/Z3yfFbOmTXtrWx6hcQlmLrre4DBX/9Nybkz549Ld95a0hGUlHJZYCeWUpKMD/HlQN25jHfNtmJDlc+4sLy4gtpjFd0kpzFOTdSQsBL2YzKbdhJohAUxqWlLSePHmqRf/zoITm2p0c6mhNrel6/uLqXQnOqMzk9K/3QMzlxahTEXWQsAzkX2iJXyIJugEuBoJXEQom6khWl7R4HUkrLwswhMx734cKR66jkWty3uXdySHqRgIVSCIAWL2BliRfbDf9REH/I4GV7e1juOdgpR/b2SE8HiE+Cg8bqu4CwrDLMJ6DUdubqmPztK2flH94flHNjORmhUDYSh1g1jKlPHhfn6kA8YgSGxTxY4rzH5qLBfCVeLmHxJYXMSgjIaRcIGjoTZIXShxHxdszpv/TgXvnIrVulty2u0yR/7PX2TOW1yZm0XL4xI+/3T8jFG0kZxWpbaiYv0+iwuTAkIwprwpsXheXlBIFEvdKVE5YSRG1a40KXp+N8a90tTcjDgAvkWvmuOIHkyTV5TJT6x8HltkfT0t4Wld6uTjm6e4sc3tUp3dBnaoLsbLVkMQFhqdWaDfQnfo7OZOT9y5Py9+8NyLOnBuTC4IRMQ/chB2JCJNGpDsJxrFMuhMQFz7wUDfGBPiQs9DNHOYuF4TseG+iYC4SO+OVaUlM0JD1d7XLvLdvks3duk/v3tatMJhpmide+Yz1yTt9keEYuDk7J2euTcnUkK+NJgYDc6hABsDPouXkCltJ0dR4hqIOwWHgHE9dSvLtnplmNsLjvloK/NY2wEC8sXS0agruZWWlKhlyAH7FCSgljKILJUqwFWtdx2be9WW7Z0S77trRKN6a6FNCvpIpBQFhcO67APQNWeiKZkXPXJuVHb9+Q7755Q65NJiUJtXsiFxeIiXAczaiRSUfUIXKEcTnkIgI5QZ4hmSE8nxnLYrrQ8Gio49SIZcWyKVTRC9EmaPPG5WFMkb56/w45vrsb2qJguaFj4crR0OyXmRjBmMLS/ShWca6CoHzQPykXBmZkZDotKQjFuVjPJfo8LptykDdhu8BpGxCujrAQ7t43PLGDV3d+wuJBpaz3cwG6lE55K7oUS98dYTGhsYU2nLA29ydNnzAE/gUQQU6jqddEvxDq19aUwGDQhjZrkUMgNDu6mrDSBD55BYS+AWFx7digO9nnNAgKuZHLIzOQoVyUZ6EpOziO5Umd3qDRwa4SbbIY7dnwmPxo7oaORAzryP4ikU/x8yqVRIVha+K5P6ElPJvSHfVFqZtBpEXng7ZoS1NI7jvQK3/w0YNy995e6cS8qSkOYbCuZiwhoxWIQqLy+slheeHdURmamtXlfPJh/KPyGutCjpHkk8RbIY/VILYMCQvhTD0TLhnrC++eW5iwuJAkLh6BUS+2folwVCcszMfyYhnMOYLFMpmPhvInrd6oBT94/qydRSCuYUoF1YUuyF6OYwvB5x7aiSlT4zeqBoTF2mfZvyQoVO1OQQ/l3YtD8q2XL8rPP5iQa+MQhUJ7NgoBoITAb0NuwdGE7U705UhpowqxwJDN0NtDjmLJiPh40R/DGA9viiGY5ko4lpNYSoGy1gNvWXAvJIy8t2EvwcN7m+QrD+6RT9y1F1qicWyCRPibTGDIcLx7dkS+8+I1GZgCMVeAgViAU2GnI6G2kb8EOQ0DwsIpkXIs/KRhSYRIjPDuudqExYXgnRF8kfQTE3dEwn1jRs6PgbQAuJfKVv7dUMH/lbHoiCIkLDoUEQhwRpwMh4hv4VxMWtF+9x5IyFc+tV85Tg3YoJ+AsDQIkLOZrLz4waD8xfMX5MXTozKcwuIghIAcCUU5ELK/bG3e3bOHVN7cWYuiGECkImFxSKdf8OMRF8V0v7DVvldDMhezUXdDVhJEpIjysXOyO0RQrwiUtW7ZuwV6MPvlGWwZ2IIp02oJC6vVbwrT0K//9IJ8cG0KOkEk5uxxKLPKTtg2fGc1PO1lrxMWSFiYYFHG4nVzhF08YalWMvo5IoJE1bH1nB895hIWDkKLcw4jLA9HCI3IQHcJWWxtC8mXH98rdx7curikFwgdEJYFADTfZ+qgjGOu/sKHQ/JnL/TLiYuzMgOCQiFhHntzoPxAvMXAR4LCRuZlRMOfrkMt83NheIejwFAJjx+pGKM8FoN6Mfi4go4C5Ll5M8MC5+pRbLYDm70T8/ffeWSvfB76MLtgFoA7dlfb/eKdQfnbN0ZlaiaJlTa0h8IsjCVkK0mxGh4xR2fQD9oBfUTFlZvhV4awVINNIwiLK7ndywmLQSMaKWBDapP88VO3Y6tA4+RkAWEph31db1yqvD6VlOfOXpO/ePGK9F+YkaEU5CqkARgRudLDZmNDRhA2jBHQliqZPBGGV8mVoxWRm9897C8GW9uEhex1DoTF9r1AYxh7WVogLOzriMpv3L1NPn/fbtnT2wo1dAhnVtiRPgxgqef//v4ZuTaaIa1Di2AKijYJQaAZEBZfAwD5mpqi8gVs53j82PaGqREEhMUH44UeucpzdSQlz71/Q/7m1DV57cqIpCawcxg7WrPoVFlQf45oKo3HNIgDIYkLdVJs0kBi4b8sx3LCQj8/YWF4hnAXv8+NQV+GXB1Xnj85GBV8wptCUa4i0bHWIczjW7Gj+mBvTD5xS7t8/t6dUEHvlPaWxgsMXd3ZTt/+1RV54f0JSSZnIawEScGlfywr4QdglbgPvLCxlGPRr8qVKSPjEsWdHIsfxuVQ8AWs69Ef2z27OxNwg08pRytZXYlXDeRPnQG0ymwjUN7ujpj8L5+9BSt8iYYQl4CwVG2CkienO9zRemFoSl49e0X+/sSQvHM5JUPQS4HtHiUacQyBtGLAGQuRlV0rRPkKvysaG3LY8jLT5rv58a2ywcu/M5wL4edaGLPclVIs91/pNy6DklPhnyupy5MrLhTwIoR0xzNyqCciHz3aJ5+86wCUt9ph6CjaEER2+ZGbvAQdof/8k0swuATuMQtVfArMqfDGtiH3yNLgxXVd7WHF9jBf6oxUIywun5W5+9u3WLqVycqlCqTJAlGzqO+nYWnwGawStWCX+3JdQFhqQJAIOoOlyutjSXkRMpRvvXYZQsAPJTsNCp9pBQVJoMNADAuENfLBhIisQEj+EYvVi93ddfnKOwPM7Yxzw7vu6u6MN9e51Od+WVkf41hq5241xHddDYPhhjAUtnp75HP3dstn794le3ubsV0gquY0l1vSSQhs//KXp+XND2cx5YHejf55K3EkfmhXbS/cXImtqYpvWgTVcnVeXqFcky63jLXj+9u3IvPakZb3BdlkAZNYJCHdTc3yL57aK7u3JJYtEwsIS0Wz0OZGChzK8GRKfvz2NfnWq9flJGxupKDNGA4PS3MaS6npHiBos8zCpkkWl0nziQgcl4kcJC109FsYQXxjp8Yq/yHh8o9k5V/9bwvn5A99c56p+Mfa5LDCkY1EZWdvp3zmji75rQd3yYGtrWrVLoal6qU46g+9f2VU/uPPTks43QT5Fld+0ALkVihjQbIUpFOdSAXqXibqX5Ehp7Ab3xmuks1OgMMO43770R3yWx/tkU5o5y6tFQxqAWHxsIdTHuqhXB+Zlu+9eln+7vVrcvIqjB8D4BRK5rHzNyKzZv4xlwBiYtMgEFZNCxaboJIAKFpXwU+vQYtfqrO98zWsw3t3Z1LzhS9mdVMfjJPjtCkXzsosCEg6jKkQEHp/a6t85shO+Z3HdsqR3bBgTzMAqFC9y9WEwwBMdX79uYswDzkrCcxNo5j2hJCXKsKRxJBjqUZYELeSG9kchIXIgGVn2EuO0MgUVQaaI/IHn9wtx/Z1LsvoV0BYAFpulb8wMCF//cJV+TaIypUJcCJAdlWkwvcs5ATUPyE/osMd3smZlCMjiYqfQBgiw7PcaSQX35ECfzw2tfYBjedClCeCYsADRdQyoL+UOX/8sg83/aVEWPI0yUgCo2rnlMGEMWqGpTOel0dvjcvvP35Y7r9lB/a61GfzlQayfvnBDfnvL12XPOaonATptgg0i61UgagQMGhrcix+HRX6E4T+9txMhCUMO7xYdwDd5dpeHrKvuDzzBAS5PZjyL9FtasJCA8jnsBntWy+el5++dUHGsbsViwggKlgSBcKzh3NlQ/eRgJUmOeDoZ47YSEwlgSGmeoRFvyualsLpE8NYeMbjhMD2/zCZCsLCRmZo7+4lVLwxdUdU+MywdK5oLq75rtFf1Nk0em366GRS3LcSwfb/Zm4X2NMm/+Lxg3LPfmwXaE3U1OQlF3IWA8M3nj2L5WUsdedApshlKgABDQcggiIgLFURgqAiMSWBaY3G5HMP98kjx7cu2RbPyisVVK3GzfWcxNb49y6NyP94+Zy8dG4a6t7jMIB8A7ITmGTM9IJqt0gGUM5FqCFrjh3YRjSHpdp94cu7bwrEQC6IjoOOaHjhPWJkqdqvIwh+v8pn5u+c/1lT9Xu4QGv9Du6Ef+YUuoAWiAHAlYFdminsfnj2w0kcb/KWHOtrky8/sFcePWLnI9EUo9/NwAbtiQ9HZBj7sTit4vSHZh/UIailTm7JxTLupfTu/DfvnWhJTOVgN56Nyi9PT8nenW1yAMa8l+I2DWGhDGVkclbevTQuPzsxIi/CoM+FiXEgMI5nCCdxmBfV1ClP8RBRkRfQJg4DA4GWBl/vRmx1glqLUQ38LjC/+Z+rhQ38yMcRvaMwrkS7NPlZyLzSBWwezMh7OPTrnrf65cnbtsnjR3fKThyTYQQmJKevTMg7FyZhKItEhXAEZ4n2Vofewk7DN21FPAQtYaCp/CVRIYyy0PW/iMWL588M44SAxJKOidnwUyEenzEKtfu3+8dgumBQnsNO1yHsOk5jysMjXvIwioP1Y4ydhoGhPC2t01q6TYUUPUlYFFE9rDRPCALZNJwK6QOeefeuIva6b56Hciwunvlh/KRHmWOSxSTwpSwMPmguuFeG00Qq4pYlvKZe/DV0BePk06adro45IDwF6LSQ2dsUlodgC+ZpLFPfA8v1rc0tMOt5Vd6BTdo8VvQwkVWgsIMYqEtTToUoGk2by90RQwmPB1NXis0jY3E15t1IewawTgP9+2AO4/cf2Q3buh3+QHU9b0jCwjn3LJYeSVA+xEmB3/5Vv/z0/SEZnEb3zCrKecAh6gIZIZjVrutRbMNIsi64AGynSaoISXmIYmy1TsHg2h3wYK4oP9G0nC/jluJTXuJ3+pXJwJW+sdOUHIugWcFro3UC1l9bRgHh7QTHM1uOXgkcAtYdTcnde5rl0TuOy5lBwX4gGrlGO4ZgtQmOq0kKO20ra0f9gB/ihx9mSljcR+/u/17xaUO/cgCjBjmJSwJWDe/c2iZ/+Kl9IOAQfC3CbaipEBGGugxUbHvtHDYGvnRJXv5wWCZgh4NISYsiRpP57Hf2bmE8usHP9AaGs0uXEK0yLgPO48oIyjzh/J88ouL3qnx2RGWRpalMZk2+V6u+wb80KExCHnYCJiXHcgOyvXsbdldTCExuhbIUdA+9WD0HoWqprsnq3/RCcTUtBiG3QGv5+mBSPrgwJvfctkWJdb2F2xCEhUhEONB0wT+8d12++eJlCPMGZTo1i6VissKsJjViSY8dovHuIRs7v3IiHNlKqGjfSwhpXIKLr0Hn/ugI6QvDdNVZ2nMj+IlWta+1/Ryxc7mVSlo7znr94upIpKdN4ASMFe3u2wdzmV1YAQKnkiPXSVhzwZSQMGhwtcn4HJcCuUDqHy0d7usVhvWUmwMWN86yx/A42PRMRJ57bUgOQ6+Fh6XV69Y9YVGhLDiSn8OW7J8/d1ZOXZmR6UwEtlCgxAaCYod7AeGKHd51vxLyVQdW5fdKwgAi5dgGLwFnOrCUnsuLPo7AEMFLSF5JvCxuZRjz3ey/HBg4LYVqIsxjNsPyGVbwsIu6oFMgwBft4ZatHWEph7VB0BHkzQ7PyvoTnQkb3hVDcceCm1yfCMlLECU8jjOn6j0KZt0SFqreXx+flp++e1m+9st+uTIuMg27BRHuiQei5UFUuORIAJFJVmjxjtHOnL9zm48iHKHKIA6y+okvRhiUPllw/c3rXiEmb2HmpopgRa4Fzzo1cmXwJTQnDL+Z6QVfqDmPVfObE2p9emh7AF4lOROUFLFa1AQZwLauDrU6r23rqkfYavtShuIGAkKI0yO2ET5XAIzv9Ker/Ga+K/3LzCsKtdJZ1kif9afo3IkMVGwAlYuR2Vn58VtJOX6oC0fxNquOUI0kit7rjrBQhtKPVZ3vnrgkPz95AYK7URmZoo0NnJ8CyGCKjXYi88sGcztUiWQe9sy5e7BQRERkbWf+uMtDSF/jk1Nx3ErxjvARqP+XnBef5Snm6Z7V04IqQeE7w3uuWg9w3zbh3aYyJBZcqytIR2sztvljuZkyFbSL++413hwIUeZCCOuFZwfppRES5AbiBtEw0gGWYaq9VEf7weTAzESpH3eWmuLy4xlMrPcYPNM4vggGzWYK8uMTV+TLj+6XVh5gtIBbF4SF0x0aRT4DXYbn3xuRH5y6Lu8OjMhkchIkFs2CuWAY9mSNxWVDk1Mx2mvoRCj4OjNRq9iXHcq5MPjmfaaPc8Xgnkfx3WGp51/2ikD6zsCec6Oje7e7h+wuXJX8Gc59Lo+7Cd4UHhAooqqt8Zhs6+6SZp6Ro0SC3RuQIbEnKPSHD4SWe3F3+vvgCG9HXBS25cEssP5yisWwDGVkjEQNloyLOfgC1/eIskeor6PpQC6kBEpLUSM+Czff9xrRluyNvBRZkS/ulGu9e25cHjyclEN9kQV3oq9pwqKHSmEb/MUbU/KrM0PyHZxr/MHljIzlU5KJzIIxwR4H8Mna3ORWtJnrAL4GIcAAdYdZvkazFGu3iEYrtnMpv6KXL6obAYpeCK7tVfSwB6fez7dSiqVA1fxKXzf+k65UwLxlb0eHdLd3KufC5rZpEiHPC46A0kd7IPEx5+78XB2a1X296LgZcWEW4J5wrrZZ97dYLnXFHcr2lJuiLydrxtXoIXT6Rh4FhBL6UzSZGYK9mpzEMRSibIwCAubwweGK4yHwdXUdqqf0FIWbhrrGz94YlK2dCbQDTsWcpyRrkrDwMO4pnCA1iN2q3wf79ZevXJUrAylsLsvAVAG5EVBMbjMD1O3oS9aeteSPr7qutYsAcB7uzuCAWNkUhvF934txF34gEXGIwNBLS8Xlw9i+ujjvTXS32pPzRIsDsE049rUbp/vFYuBd1IatkQiFM378sC8HE7kZ/BXBWXwoD1bjzdJlfJSEgxkuck8hlgEfWQo9eQFTpAJNNUDJMgTZBIlBwZtiK3nB1Kc5HoJsCLo42Nkdwx+3NWSAzdPYn8Zjd5PgzMlx05y3EhoUVYkK61ejfKvhncMqHIne2avj0HTulPuae3QHeq281wxh4ZIxORQqtl2D6YJv/fKM/BCHfH04lIV1qyjUvNF8qByBq3NrNKKBmqMBLsUubUq0NUPRg2E8xwamIpxiiQbGB9dUfHfP7l6M6B6KIexwMQtnq07FIK4YuPM7Lk26VA6+KgHiV7zYRjzGL4XhGx2nc5vZUVBL1X4qvsVjUelsb5OW5uYyuBCGJDyOxPBdR30PcEUFRfeOO6fMjsi4u6KFD9j+d4cRiIZ8QOCamuSuQ7slDtMPlLQo1wTcymJ7yPBoUq5eC8s0UI2kJQycjoN7acERKTtxSNih/dtka1cz5BQwVQDiQmJF0jk1m5cbQzNyrv+6nL88ADWJBFY2o4gJkgRCxloyf5vu+wq6Co9UNuQgnkV9J1DZ505ehTGoJtmztR2lqu7WDGHhYs5pHHn5NdjT+N4bV2ViOgXKT1CSP8FdaQdQiF6sjtYIP8AMhxyeZ/WaarNo5BrfA++1BgHrStCpwD6u5jgsnLV3YKQnt4L9GIoAdbanoxIeroAUeFModtj5sUYD+MKQgMWglfrJB3CGdQtsybgAxC8QQGyxkZ/gHKMXziRlEmu1rYU0NlF2ywO375B9+1tAHMmnYGjEVhPdKEkuCFGRpIR2t8nsPdvk3OUxeeHEWfkQ9wmcDJeCxT0uslMTi6TtZrgI6hYtTCH7qFy4kZHXz9+QHd0tkLWUIOAv100nLNOptLx/aQz7PWBc6Z0xGcGms3SGjURVegdEG498FAR1IJB5gYtxwUh9ajlV23cfGa/SkTuojO/yKIV1WekXvoATsnl+aTRxYYqxlB22Ny1rRfYchUqcSzHWpn5QokIuFRwLj2/dgnOjedIi1v88uBCI/vaqhLo2ThGG+ubB3bVX8aPvoYRLPk886ooj7uSAyGPQ3ovZfGF5eBF/8tLZFJf7b+uWUxcGIIeIyPGDmDbA7MOuLZ0ChttKzHrRTjLSCIGiqByInBnKR3Ozh7e1yZZHj8or7/XLy6evy3VsV8jAIBZ7AXdu+2uNTFfc6cBNoNGcCNQrcjCi9ebZCTm+a0puwYHz1dxNIyzj0xk5cW5EvvX8OXnjAtTuoeE3ge3yWYIPRIAApLMbGVC+lKYGNprRs7qz2L5vHlL5fOp+dGnxXuKO5onOgPPl5xJcIJg/B1+Uovd8WRQDrdMHti87MI/t4EbDHp4PzY6JlRSbIrL21aDiKsxv3nfelgEsDxUtYRIWeFiSSFSnKaUhEF1f+rZE5JbehBy7a58c6GuWFlrDg+CZ0hTGVP0q+MFXi6hTdw4+SJR5RYH/vS0R+fi9B6SpvUd+AtUK7nMjEbKKMPfVdVnKWEIdqHtKiezoMM7TOjEgu3CkSzMMole6uT6VIRr4TnCMY4rz4ntD0EO5Ia9fnpCBiSR2GlPxiXNVgpqhSMsBSJ0ssyEMKwycHoagh3tPNUvI8CVCYKH9ccoQZoHUmI4/PX9c/zMLwxFFi847PXzO5e/uLoA/DX7jVRlX372IDM/3Yjq+PDbGoxGWFiDtdoz2LQlCFVMgr95ad+3UfHLOQcT5uXdyBbUh5b7428ClyLthGtNylw1wynFoC7gULEQsFpJf+/gRaYXd2CiWxRUfENfWggy3TdDjcV/Eb5SPM38+Mr8ItnK3Qav4+MEeuT4akldOXsEh9sbV+Mu2Ws+qrwXip9rsQO4MzFmeH8AmX8w27rilF+UuwYBlWjXCQnuyV4eT8rWfnoIW34Dg1EuZgR9ZS1r7KqiQDiVSrgQAxHvJGYIUcUNfrTGMcymvVDGeBdFXh1iMSjcXiWqkgbCMo5cvCMvi0vB5F9GMfi4vPJa5yvAM5/crC4wXcqFKSHyBmP/NEORVlm1F3r36ol/Jlm5MgdpwBhHkKlxhoSDTYEGJAwHioOegzbuHOxqQJWTXNgkF32q3jH2t+qsNjnR1Su1wk0SCaVtJGI9v/Ont9PbVuGJpx7NhMw/cVqEy64kUGJt/VkKv8kwGXE4nOJdjBzqkH0bCL42O22FrCOJqzexWwxHSNGdR0HkknlC20VRG/uGN67J3B9qovfycqFUhLBy9J6CP8v/+uF/+/OUbWPlBAQFoD8wAEqg5eglPDDQ2l3dzrl3cm76XYO+FcrfyWP64jigZMXDhXLyF7y6+P6Timj+Tso94WXw2mkK1aMzLXwarhz/DjfPMPsgD5VuwrLwVspU45vU6gECAaM5ByA98+vFyRIUhnZ91fvrQlXRbSjCdH54uHabNy+Xr8LREtJSwMBM44r1dGOFx8sMslpOnUilJ5nCIGjgSrnC1QCZDOzOc5cQRnmVT7gAdl3oyPLBgV28Eltxa5MbYkMxgAkVi5nBh/nJbORrx6/JxJJSGt7GQJZdHCvIOFOceuXOb1sHltSqEJYN9PW/3j8r/ePUC2Dk2JhsKzrvZi0IVH6uIMdlAXhzd6KdcDcMjAQdhJuKeHRSYhca1u+Xjb3rzqed3bjpzY7nqIMti3Zzf3NAln3rCaJKacCnexn3CVABz+q3gVjqwtBsLwRgXOxw6FLWwqUtizgGEd/fMb3h2r+VI5sUr3XyoUvKc88QW8lqJuIdIzqdW2zF7mP6BXkpektDJOg15Yv/VQZwCMYqlZCyfJ6DsByt4D9x5RLb2tkkzqYvnSFgywG2tMTJoxzRw/46EvH12VlI4IcLIK4dlZIDvjht38VfrTihww+/P3hyWo4c6pbs1rgMC818VwjKRTMvfvnkJhqqpdg/FH8Cw2O4eFGo1ULFBq0KLqfhTYiq1U6qaxAKe/tQXCBp8bhAECPMYVPd7u7txcBZb1Ca8JC5uxGRWnFL4XWNbfuGU/djGZ5aGF0lEFj9TEJqcujwuL752Va7hdMY8NGzzIRyrAUKRHZ+UC1fH5PL1k/LRh47IPdjgp6gLqlHA8jqJBvkhHpxGZbr9WIou5McgNujEAkezDbQA1MrVGZWYz3Faippm0QaDKRzqd2ZEfu34diw/W4lWh7CkcvLelTTEJ9RXJMiQucd1sBg6aqCgNg3itiy/c6BDNQDI8m9IzX3WKERJXuaYLr9r+p4fla4WcqUUvHRwo58/nWppaJhqH7z4NT4t6O1kKdWWSSvLumBi6yRAPIGlZWpZo71YRyMpHJHQoCAwqn7mDGZrnYBXytUQIdi1/e1sKWgw/JTjjPMtv8/f1h6hA8b6CZ0/hSTUJp57Y0Refue6jMFmbyjcDqLCZS0sUICDL4RaJBSLw5B7Xt48NYj9N+3S1kYqirAoP/80dVYXCBDFqQVd2Fk8NYm8MTgrPNCHqKzJGq+2I05y2sbd/Vw4HxiFZry2i5WELbDibhwmIq8OQ+EN7B25FXNs7IUcQeZdilCVICxHGCVWSrAWSjf4vtYhQPu1BWpNwnHFwbqPwwcrvVmJ8wiKInU9OGVxG/FbrUtz2CSvkZpJyQcfXpKxGWjn4vhSJSrETSjM5fMQRKNnsi+kUW5Ojy4NYEOtDnrYsQ0/dlyTppAIQQMZkuztfbCUF8YeHezkZ79Y3dpWQoykjeXEhfL1QFnQD48V51iyQJCBsZRMw0K+0QYAHgUxEuEfVfwFL0cg+2IUiQCv12kqiwg/X7r15tug7KoWpd4yVI28TjwJPxKMLKwBcouHDizgZss5kGqVqcSZ4ghWLfAS/ZAmy6Lc9dwkmKNXYtAIPEEWRAzngMoVFasDQ9AXF4qsO/ehbjE8MiX5/e2q26KElNXR1KyP0I/6PCFwNNxHRPJlHD7D3RznihhB2XZ0NmGaVirHihOWaQDt7YujktGVIFBp8JiGAgAwYc+ywI/gdu5mCaNc/sH9JkMAhIX4ksXphtyxx05l4+PNLJdiKgpg2LtQSVDksoHUuBFHUIxYuDRQXaMhTJsbYotztVKvsFwNDjSxwCUOhLy5Tgk+pnYo3DYSFlbacytOWMaxzPwmzkBOY7jNw2YKHQmHFgE/CjpHWIoA9QiOV0gvFN5KgLZPriLuXowQPKxrCGB8hw3b1Gxacm1YjmXzljW9v739z6x0WcDGQKGYpMexoFPXcq40jMLVHdVXUW6FHAt8OR3SMnqJaueEF/VztJ4kLF4QxOcLe0spXRAVj9BaL/HSQcjVdjS7xfWfpmiTbGmHZbnVJCwDEyk5NQT7KWgLNyczgBiofLREQUjgOCCWAwoAVEDTl43DUGzo6qEZKnDrFQIkLJBTQO8jiykFu3F59/G3uf+Z9S0P2TAIEM8U15hfZZ7Vc+HZ1BRu2pSlgqAUcZm186fp0i7Vg2SFobhCRGiQWzFSw7ClcNVLsVK+RjRJTNohaO+AlrGPrqzscjPnypdHkjI8kcb2d24iNwAS0E5JSdeClAIDAJVwckRDo1U0DAPrd4LcOYYJ3HqGAJuaiMDVDipSpkFYosAPRQF8WbgbOXxYCVxwpbBSalGr/aCQLKdxFqwNy+KVRzmWikjEY4frVSvoiQ+wLGhPVkfSpiJ9qkhypV+tuDjoL5aX7VDg88tXmPeKToWoGHfu2rSkcNh6M7RqM1xu8wS3bBqFIX4IJj7rO+7GiegDfjxfsozaKF6jas0WaGCXRHBfVxDQVkV7zyRT0FbNYJMbmh7EhfK5Eo5wBHdEZDWqV8TYIkraQwUO+gtYrViVZUZ4S4G/uBi/ahogKUqAWGfqt2BILsatltFK+5kAOYKD43ZubdUi+yGxoi0ziWXmC5encNA6LG7hUOQwbDnQnsPcYzIccFcaGEH66wYCkAgmYR1+Ng05ixbaj7Y3oxaux7M3V+35cwpF7oIh5yu5rQDV1w2NpJTSY7p1FmVO2ZbnwZytdtFQXLa3d88hhivKsYyBsFwfngFBASMYhvUKKAcpMJRHwRNfCHr+67OrLtfu3bPvTmpfxkqy2XgFbiNBgIqAijNo25ynIGfKgeioFHJ6Tc6Dx9zI7epvwlL31sC7sgfIWDP34xyeK16ZK72oOkadFP7pyrn6lpeJqiu2rE5BKCrOf6K5CixcJ+AKEAIiOSUuuPOLg0N5iqvxxtpheor+mMAspLcNLKXWzZV3hadCl4cn5crUtKQh1qdZSdI4N1vWjVYKAxaGBQ1cAIESBDiwsGOmczRabVMgw51SmLlPK4RHZSjqk5fMLUBVHyMA85UNGTAPXvM4/YxkmN4CQedJpTGf2JcprY1jsyT3CBkhLKVNArgijoLbDwYmZAS6CHmcS5JTCuyYw8osUUhgkgJsPvgzGjFO2ZmbDdrKOgTvjYKA6zjkVmYzONemBk4YBvCjuxpVgkal4+GoUhY+V7tcXp78yIvifP13+4S6anr+L6v/rIJpaAO3N4ekrcqB8Ss2FaJR7JPXkzKVATgICGIH7vZnIC6BY+GxyB+29Bw8bUQIsAORVNDaSRKERTcbEoUqOp31L4ZcTcdCVBSkRvY2jFYvn474Gg9psV/Ukaxy+Zj+GQmqnm6NojTYm7IjTM9g73ZHT0KiNJxT4eb6VARY6uv4DAS3MF+XzhJiWF5W2QhlJ7zgg4ug8V9LzSuItzEhQDOlJCwZqPc7Z8TEva3S3d+H66EAXrE0GgusdmRMQc6U5kwDnX0Aaxrg5q0/aDT2C69vlGrnSAn7DtLTPmR9qRRm9Z9imAbtwopQ5TSIJVkxjmVwPC1DE9xQZUc4GJBtLZ9CNzqdHdmjvgc/AQQIAe2L7GwgLJwKZbAyFKb9BKwUsdP590ytGqHR3o7Mi9OZetvKCIGG1k5AIkJDTXhBmiqxYV1xeZ+rJqycPuKAJCEaIcPQ9mtlqhpthTzJr+SgcRuSLTi4rJpbMcJy7mpKxmF+kgwtGSc2CU+pNem+FaWEQPbuRxjzCX43NwRCUJCjnAWTInRCiOq0O908mBCLl+GU0yBxJGEw4kIJgSMq8xEWy9UjLIQCB+eFIyyjsAtFLegxt70wcl7NrRhheePssCRh4Entn6h8ZW72SmRuKnDmlinwufkQ0IEIOBOCVTUOSSlo4OZJWPBsG1RvBptLokJkJWvhCIz3Xi/InHIcORYvjk1t+FKSutRMjtmSoJAwuQRqBl75D83xCIycc5l8rlsRGcvMbEbevzqM84FSuu6u7EpF3uRWyKG4Jqr4HLxuUggYPlivIXKyA6WxEEC+9+ZiC8vkXUTeBR2IIIqsu3xIUBxRqYjHWnG/Dbe2zOc0ZwJDKQqIkFeE+WPNl+LyvrFt2rEa1JSozptU911enjjSY1auQDkO8nyPslr1CQsHEGbhwabMb5lZB9HXIQTIofid2TeGH/5z6EipTMazTg880o5FfCqP44+/Is9EXEVe5uvyXqhbV373v/MZF5NSuW5pZVSzqqiEZg0tO+6xc9/VryLcSr9iT6UyBM2Qr+xob5GYz1avP+8V4VjOwVrcGOwfU5ZPppWXNoVrk4q7B2J/uYLnTQcBP1JY5elDQ0gzs7Bsr8vODij+Dur8VvDuz45TEcXoefIrhmcN6ByGu7vz4xeb3hXliy6Kxqv4wTcSFuX0XTh3rwi6Iq/MHwlHUIZmHHq/rcO4rWp5rQhheefSOKx384gPcCw+WPph4Lx5D1wAgUoIEC+sA+H8QBydkcRRvJSzGGpXhl7Zdz/e2rPzqbyXykExK/qfj2N3ZTdC4uc63JciI6TJuLQtTYUHHp0tI2cdoJTjaj4VJBHPSncnS1XdNXwqxBHm7bNDKsmnJQoq8jtHvHAAdX7BPYBALQjozjLsRaEWdyqdw3QIsgjuFYLBsNWcBhCDibvUHocRByCx61AeL67v8CuhOoggXmmzl0FccHInTAveGkXDU2jLB3ri5jkT71r6DMFP1BchJxDRjUcIr/F9kVzklb4j3wTM7na1VV8RYvYNJSwE2DQsxvVfHoNZQdtWLTiv1g9wZqrwwF2BTI/AbWoIsNP6ccK9kHhEIPQM4yGLQGnuztN/25Snnc1FXCEIardHh+adauy0Nxv2NtMyS5RMf617syLsUhEtL4zgKUkoyZBIKOAQzO3w16kNvaCjQ1ELktZNiEaRvPCI4GAUwZlEPOGczvLUx1X5IXkLq7IfjDu1tOCwteo6LCxMQwkLuZXLOEZ1eAxToGxCEYJAcIAla1upx8JCrDaAmGfgbi4EHB6QLujorcUBprAH4V+tpeEjOzQFuBkoWtIKIY/jjSIMV1HYKTX4ihIXw15yKzkQNlpvi8aasAQOsw4oELkI6qQQhyOoFKcqehJFKAquBTwXP/BYVi0jX1g3mhABiWL4fA4nIYIjw+lmONlDcNQzDmiDqV90TdRUo5HgQHwtoTg6MriVSAGGxpE+d3qvnmPdsJsZm0LT4bh048ynZrItNVxDCQu3f79zCVbEMzCsyzUhnpGCxufIQwRwziGD83N4QcITuLUEASKuGzVXqFzAi7Jmx7viC7oViQpfOKXmNCgPxFYZAzqWqorh80rjDHkUloGQyIETwWFAMjGTwUHtNGDGkiMEqAdLSwU+hiuEo3J2IgRiiM4PAmK6Jygsa+puqItzrNtEsiCnr08jk7QkEK4ZcUHCNG0StRSmVddwOHxOj/6g7oiXENPUZ5faSt1JxEHgWWysCHW0xbAiVF2HhSVoKGHhwe8nzk3DXimmPzEAieQaAHQExFWZiBO4tQ6BEuKvZEkVF4gmXiaGG5a3aqfCnxrbPPc4DWtyrbTaj9C8VqdDkXiRTzHViTTYkUmcPPH9X5yWaJ5HcaDzk+BoaUgCKYuJSAqnFU5B4EyZkHE0KK8SRg2qP+TaaE4kg8H3vQ+vyul+TnEmlUBF8pBfFHDioeNaEH0ahq/SOPRPc1FWqJTWajzRGH4aFKOpBYentceUe6yVb0MJCzmWDy5elZkw1ppRfZ7mFrgSBCoJbOnLwk8rRow1YevW9suu4TkWWNlt++K8S2Sg5FPrabnlNhISkhkcpj4xMS1dsU6zr+orZq28G+VProWELAowkGPghv3BqSwIABX3oBWMTm7lNJtDfFfZIn21nPwph6HDBcZjT8kkkQ4IlrJgAFqBXFkep4cyb41KHo3p3bw+xTJDdCodzWHpaDGjbbVg3DDCQvnK+OSMXB28Lim1rAu2tQoX7UCs8K5Vqg3rX45ci6vmSkGMZXLlcnngrl6+Oz2KRMiFr6cGLs3ysM5XU2LS7IHFZPmAd8+LUwUa1k4mk1hp6dCR0lDLC1eedMPf2PlZOE7rIxi1KQei/WbdBYdysywsCcMV5R4IW1LcZ5GYhnPGb/HNERh+N86nSadPerQGaQiN0BsoNA9HqB1P51Jc+TvLT8KZlbZIVrpaastXWJaGERaeeHhpcFLGZ5IQXmErNQpRAl+p2gQMgekAVPqykZ6IZg6V7FnfgWxEv/odG5MXnY5XuLt39Vz+j8712SVMfqHpO2zXrPjjyl3qQvPXg3FcOVnuuaOsa3/LCmHLwMLyWL4EmeYKbjiPqbZL2fsKPOJT450/WS2NwolQonzHSqHHpiJre2MFMJXReiif4SuU1xOKRXUPrtJ2DwEooTynVf5u6cIADpaRpVvy9uWzco8k/OzTUXBSu9oT0o4p6XzOX4P5wi34LQ0lprc+HARoKSEnrV7lmi9YwtUJQBSiwI534oH+csihA0gInXqcjsgIytDkBi1afXHrSd/CWGny6LQ6/0cm5sN86IfbnCzpSTfng/q6cltk/CJ4BGrfOexS1vQ0VP0/7ODMkRDlGUNYRJEwhIfMp3oJ6k+7/pBoTa8NrV0dDGqlYNyKYUCtMM6/lJYR27lE2IVcaUG1y6fWXfOHUHlHd4vEuXw1j2sgYcnJuxdGdb5pqKBdrGrWNxtAVQvVAE8iuhESjDqQ7odxAHghEocf5fxwXiepJyumFcHSKo1zpSC0pDFy60rIAb2V0F2OYwroqqAnHAKysHmSkngcbDgVKfSYT46cyFyHbty1FxOZ2KVr5W3lKo7XSCuNYTYWjUsO+30cwfWXuzYuQFjqAnpyhQyoShYEikVabdLiirKYe6mNCDwF4GKir7GwbFtIg2CVv6cDhGWeFSEWvGGEJQUV/g8wFVJ1IRWuEAk3m8O4ik4QjUbllj0d8sit7dIeggDOcSwAh47oC4DFoWAenSgP/YbXTt+QtwbTkswvt7lARDAsciUjhJGnKZ8E6z0rPfGCPHbfQdneEYUMwXVnVwp/YfnNXX5/+iI8/sMgempRHp+ngIQ3Ci3y3JsDMjSOvIkSoArUpF2Msxwh1wDwaK5S81pMAkHYhkCAhCURiUpXa5MOevMlulxM1bS5GnRjMinnp6G4g1HWkG91mdX5Krka32wERc3RCzi1OH7LdvmDp26VHs6bvQK4Lum6lbv7y8ewRZKMAGmYoBgff0nevzGKJczldSpoQSB1jvhRPEH4iIzackl55rEH5CuPH8GmMiwh+guziGdXN4r3OBHmvp5pENS/PTkmz4OwFDgVIoHlv4/QMosCp2LzOMKEUxFyLJOpJFYkeAA50kE0fgvcakGgoPZXWmEqobINK0vQEMJCC1+nB6ZkNIuDydDaNiApOpRaXlnqyuw32rt1EI7ICdgD7YnHpItgcNiPO8HguBbXndyd0GDHtrks33D8BfkLTCW0U9JrGc7O4AHHEMbRpdGMTEur3NkTki9/7LAc2IIt8CizK+pis2EdeJH9D2ElIwv25PyNrHz3R2/JyOgEis86WKpzOBb6+4Fgweb8cho0Nj0tW7oSkoDchrCqI9qcdAKPpUOgrTkiTfGFh5+FQ9RRhiQ2iL14ZhjTIDLBmJsTURxL7TCujnTWexB/p4yCuGCGAcz3yIjvo3tUMFVU2vnp3YMdbaT6+JiKGIt5hWgW8hPqX8RkFvoIUfndz35E9nY1SxwcgTZZWU91jVfmWTNDlpn82SyIyhXYzfj6d1+V05dHYKiJnBYHHLtqJrDAByrKzdAGLopDPDPeiLkGbrUg0AuutrmGcSd/GRrCsYzBIv+pazBwq0tlDhmZzeZsdI77FLBSoarM+cBhnbDsa82XymRqBlzgg1mDZ9cvSC9o1efv2y2feXCPxKF3hOKWtxYKWBKfcrXI5xCWZVImFA/ksLhUSpcFgRqFotcPfnVB/v71MzKVbwOHRNV25otEfTDQCIv44YyJh8QrYQGxZT1YEhMAW/7LSH4RJdkMQQlJ5T8BYbYbsSEvu3ubILgtw4aqwFg2YSHCjE3PYh9DCtmjAJtiylMVlmWeRQRXYUDZp+KLC8M7u4V7LwZo4APTz7MH4qKW0W0dcfmTT9wqrVg21OmZfbIZV5WCVJaPOhWU2BDFSFMov6FgeCYdkjPXJ+WbP3tPJgtx3ZEcoUylMoFF1s2KhFwwHUpBvb85kTB4eWU1ImNlWWTSQfAyCBCgbC+PqICAU9hfwCJEU1NIDuxoxpS5LELVl2UTFgoqr48lZWxqFgI17mNwI4lDuKr5+jyJcbzWtyNVZxM4xxpxlyuZOK+p9JN79tfa7+fiN/yOTLJY/o1Aa3L/lmb555+7R/ZtSYDDIGcCAsFCwPnLZWTD/Iu/CKCECB5cASRh0bjYwTsLOwFnLiXl33/jNTk/FpV0DFDBtEiZGRIXL49iWnU+kPtzLo0zhq4NDGLU3CZtTXGubxl8bckJ6g4W1rgYFyu41wcBjxPxYKnNhWkztY2jkYR85JY22QtZXLUDyirT91Kq9K7/ncvMZ6+NYQs59zQQkVAcFkwLt0RMqj/7NRuSNedV3lGtuK6bOOA7KLm79ZTyqrk45b71v3EzXAyrKp1AkkeO9skjx3cod8I8OQDxXsx/gWTZd1l2xjOiAu4FwtkLwxn5bz84IacvTUs20iK5CGyXINHFpL1A1nqA+vjkNGz+XJMJnAuewcBGwqhoR+IVuGVAgMfz8OL+J2JcDrK4lHTHxuULd2+Vrz60W1prWOWvzHTZHMsEjvh4F4adiD3+kaUyo836XuLfjDOo1snYSR2vU9Y1vMDsNMtx7G9UtotD8Pnk8f3y1Y8flQ5wEyR73JxfdAjnZalerkzF776HCD6SaOhWetyHU1n5zivn5fnTYzIb4WQLanfgYCNAVJU9++Iu9ZElJkdcALqPTyUld3VQ+np7sNO2VZpi0MHRhE2+xbKTg2T/WC78llre9RiPjAHhW8BmSwr5+9oS8vmH++TYrb3gVIw7rKdeyyYsg+OzWFbkLkwiJWfd1ryWuaHC3IL4kHnuxw3ho/BQFp5P5Y5QoZv7xfz56+8MLnzpa31PlINQYS0EBMmAszyIKdBT9+2VIz1xtBLbiimjLXibrzCVnxkeF3V3OPeezcXlByeuy9/86roM5lqxSZDklJ3a4cJ8JApp1e2skGp0CTUYm0lBZ2hI5S7d7W04iiIGUyE2JaX5RpO7LFCxuvPeyAFd+xjhKAA3Etg2cQhT5Wce2anHqFIVYTFu2YTl8khKBqZYMDYkVMS9Oa4VghhY4bTH1IHJFdHW5ythgg6mhXd6F+Xo7prLf/f6rfZ3PpNAVIHkgiDRERsxI9ArSQBZvvixO+Shw72wsO7oiNfxXeYVKc7xLhYCD2xnXGlo8D578rL85XMn5dIkttVDYAvJDQgaRH5AizJ0qEh/Ka8KUWWBQBAhwJqkke2RYUnBxEBPR7t0JJokAeJiRpc4TSpNlVytl5Lvxo1DRQCAEkKpKATjPGO9BULaO3Z3y6fv3iU7e2of8TEfTJZFWDLY0Xz2xrSMw5YEnY5gHAEdNvmEbsVCECkUQeegbTHIxnlgRbWyuLtRAfUHpJwvoeCe8ajP/lh+zoXf63XMgYpqPGOXeXz89m3y63ftlB4cMmWQJ1Gp1QYsAUcvu2ue/kKqZBRcEDiS969OyZ/+9G05hS0H2UzCltiBnKxJjIRFIyMlhxP6vrwfG5uMOlKAPI7peLowrvIWCJGkC8QlpjI+Lx8tz/Ly3Hix/W1vS/Z5GMTsSITlgVua5fHjO2Ur9gTVI6itBptlEZapVEbODI7DVoYZzFazgSgvR5VSd/FjpPP3V6pasTaSn6u/q7O9+2er9HFf/TV3Mf1+9T9TfYxcQ1Z29LTJHz51jxzoadaR3OiFl2O1jDUT5l6rZLbTeACH0v3FC6fk7SspmYLNwlgho/NyrY3HNVgdLJNGERfFLwqOOEaBymDWA84FRpcKM5LFMle2IyRbmyB3UbtA5FmYvyPs9UNwI4d0dJ5EmrhIG8NtbS3y2G1d8vgdPdg2AekbYbxEtyzCMgLFuPMjk2DVqXNLoRoKosMJS8NCuXk8nzlSbzbn6l3eQenLSx0+sf2K75636waMWQSp922+G9uAnKNq/CLhJkj4/6cnbpej2yCDYEfjJ39+lRmXJe59ZCHo+IpndmTQFPnOSx/IX730lqRm2/AphpUh1oVIyh6vMeDhHrz3hty8cvFoEE0ppIORAAA+XUlEQVSPwsaClik9npTpGWwp6Alj71ObxHGwlsqZCJcVKUtDKrT6ibCNFIzYNQYpfEdzSD53f4c8eOsWCMI9I+DLKNWyCMvloRm5hl2rOYEwkC0M1lt7SbFA6ok3DxGK/nzgt2r+ZYE2xYuDkr+yDjI2pfF/me8ZJAUbDGmMKFxIAWEi8tDtB+XLD++XTrUVWwviLEEV55oIhXFl5MpfCmcpv3J5Sr7xkxNSgK3CMDovVxEKsMdqavbGI1RJsbpXjeyrBy73pfEhls7+TDN3HJx0//AI8DIvWzubpQmCSG6xCFGGwJA0DbGJHYXqegEWtH6wFWr6X/roTrljb6+pDzQANssiLGeuTsgIbGZnQphbY7scuZJydpcYybmwD3OKc1+Hqg2oxZpOgiTCyIRBwd6LHAle7asjtcZzsEpFqBF+KieozfXx2EvqDuWhPs9VE06DeuIz8q9/84uyFdJa7UpMUNPi3ctV/fjMB78rFYxJ0zEqFpewfQNKcP/9Jbk8gwEF6VCNnwRFOy3C6PTEyTW8yCoidAlZckv+rbYbmmy7kQ3eYSZ1NinpQRzNmu+Qnb0dMKeIqRrHPdYFLJdybQ4GSy7J+omo9dbicmYBh7pTyH1kaxxC/T2yc1t7EQ8bUaslExZa5H/74g2ZzMK4UwQat1i6CJEX9jslIoppqIjrSv4AG/2ZXY1dlt3Oum4FhIoA0Mb2wriQDKsXOmSteC4BchJciaF5giR2Q3d1b5V//oltcqybinFMBzmwI2lncrl5sfmqGTh/X26aN97ZfEi/H1s3/uNPPpA3L01JJtaMQQV5opdSw9a0XYuJuaKt2l27jEe8SDhmoBB4dXQMXFxednZ1SjuIbhz+BgKUU6vJ8rp6r1pRVz0jwoMui1PdqfzWhrOB7t3TK08/3Ctd4Fi8zxaoAb9LJiwjMJz94dCEzObHJYR1xXyuS8J6ZAFbzk9EvCIXOZUGlHpdJcH6lzeb8/GjM/347v/mnuupLo04h7CHIIbpaBMMTd0HezBPP3wrDqGYhYIaLdjh+3wJKuYxgOfco0ZC2UAZRycz8t0XLshP37qOPUAwg4DSsqUp+FPBPSqgXItL42beUWAu089gZ/VlyAHT2Lm4t7tHtrS2AU8xdeMRNSCUxsLYzXW+m1nslcyb+EXi3wkO9slj3fLRo1t0hztlLI12SyYsA9gfNDiF6Q/m1mFwL0Rc/ja+iI2u8s1Pjw3snP+Zfv53ZRI8P7+/i+u/04xAFsLZBDrMHT0x+ZNPH5TuFhAUCG+VX2ICaJw57TPHg6labuREuJeISDKdzssP3rwif/XiB9i+AT/4c0pCuqPbODR5r5QlvpuJ3SQHSgjikkVZclCLGBibktxsXtI9OVjKa8Ppg5gckhtbCLA3qfSNzNa4WQoqQrKtMy5P3rdd7jrQI+1UPaja/svPfcmE5fzAuExC+h7JYgSAdN4mrWylTdBSi4A72821nZsOMTqh5P9GP79zkFTi4iVQG7IgAGDz0YNkZ0dBnn6gT+7eipPqQGiy5GSQsE5TvEzBX/iz0rK4tE1SwdU8aMBAPpZC0BxG/VdgHvOvXjon/VCG5FoMiQ7bnLZibDhxafKNQ0ylm+tTGWIl3k1FHedy4nCxgXFY4UtOYUl6q/T1dKmMwQrqL5urx0qUZvXT5MAiWLVtApHd2d0mn35glxzZ2wljTbQCt3LlWRJh4dLeu/1DUBPHImOeLDGQS6c/REg2kmuoFSz5ysGksSk7UDBVDxz04qO7SDz8kPJD0EWfj01nGLL9LbAK97H79sinH70FxzNggwX8KFKn4LYYH37FvLzE/fmx7fidpCHH0R4Jn8Xq35/94m1558o40sMREFS6A6LSXKRxK5ai5aGl8WVSzA2prqazynGapvgInKVsYTyTlAtDAxBy56SvvQNayCSzxm1b6Vx5PeCsZpEbmBc5MQ4SBRxzHIfFsX3QoP38R/bJvh0duuengVlVTWpJhCWD5cbXz01KJhtXBNOGU1RkbdhNfK6I0T6/zfLox02Hr17d+YkXuRg6D/2Lz+6d94qoGqb4g4/kEFpw+uSdu9vlSx8/LDs6cXg4kIrxSFQq4zNf9fM+8ObKwxicOnECNYu2zCXz8l9/+Ka8fGEMgnrLS8/ToQY1HQiMc2S5bYDh3XzdNMmFWe07dVisdoASOOssaj4G0wu5G8PgxPKyowPEBSZEWVzWhJ3RHOOtX8d6cwDgnp9boJ7/xYcOyo6uFmv3VajWogkLuZUbk7NyYSomSQi/QmC1iNiKR2gLVY5yBVey6Y3HDtPct81w9zqXVhWwIQgq0dWhMcP4g/O5FNYJRw31SbytAzMWV2PQQcCh/NPP3inHd7bbYSPoRAxNwuLcHNaXGRQHAiMQ7FhsNpZrEj/f/cUp+eErZ2RIWjDljao+iPLQCEOuhY7TLFc3fx30Y7Gj8svcrxZmZX5tlQppk7viDfnTgHgGHzAzwuZZEMuJpGzr7pItnR1mnlOLwsqVt8DKlLARqbJmdAZfvrE/st1xbrs8eNs2TH8OSBvkKavpFk1YCPDzQ7MwnA3qj2fdfb+aJV6PeXn9yaFArSp4JLjY/QxVgCjEcx9hZgfh1IcuDAFqPjUlX/rU/fLIwS4sqRqK2a+uBXmdysLX+rW8YJQAavlcLckVEvL+laT8pxfOy2i+FWcD8cgQPxmsnpLWEYm58qniZPWgq+xLImhA4xSO5xkmsTQ/OJ2Cwt8IyalsJ3GBXIowJRkq18la5eLWlR3L6SnnYPNnvoBzoQDwCM6z6m7Lyyfv2i0P3bFTEpCnrLZbdI7kLN+9DCEYl+zQHORg2Agc49x81sN5E/AVu8lqV21t5kdIVTrCq1qXpb/CskhU+AZhLDlFJKQGeXKz8vFj++Qrj+2Xbbq/ozwHnWczjsbET6XDaM4drRzltBkhsJ3NReS9SzPyn//8hFwcxXQX8bnniCmTqGmZWACWGvEdETGuxeNfvWJ4t8pcV/3dg5yucHFZnqXkXwZ1m5xNy5XhYQAbmrrt7br1wY63MI7MA8yql3nBDJXbxECAtqDmcx5qBZSq7YJZjC/cv0OO7umWBNXzF0yo8QGWQFhwgNY5EJZsChUicXHo1vjCbYQUizShojIGNZKJkqOfHwn4bBenQuwM2v2VgEcomY1kpLM7Ir+LvUC7sYwY08iuK7u7pe/Pp5gjw2swfMVAwdyymO70j0/Lf/nua/Le6SEJx1uwNQCBOIDo9MDFZkTNUD2MqCAYvHgp3cEXR3T4Xgrt0ljdO/OHfpgSUubMd5YVi14gLim5NMqTJvLYYwTigqkktZltfxHrugadAhptx3KieFGQySM7E/IbD+2AuYPmm0ZUCKlFERbi1jQO0DoJVf48BF86ciIRQ3cmh2dW1jmHXe59k96roaUPSta3ARu/nz4zoj8yYOuIC617tYFb+d2H75MHjnbpmUAk8v40DNyMUdtpcyEPtiWFm1cm0/LN5y/K82fGyWRLB05LpC6Lqu2XERavaGhjl/7anzoYjItoqQU3DouW/0exDWB2PCfTEMDsbuuCoXEaxCI358WrDcZlf3Fl8nefhRMlUUnoQIOTXOTOQwn51D19OFsZZiN4Nu9NdIsiLDkg39XRKbk+OQVmhRuZSNHJDjvUYk38z3z39wy+B85BoBJSzr949zCaEKw8lLwJRzDcs2ubfPkjXFoGZ0BVbcDe+JpiCniYS1hci/DOKRizobBvEsd2/PzdIfnrVwdhCa5Z2mNYqiwk0YJcX6BaAcIysJeA3bxfrzJlqKAx1vqPERaSxwyuZHpWZsC5QPEFU4otWDHCNBBVcKtr1iSos1ab7I9XP3/Fy/wIYb/jsjfztCmkpoe0XBSG1GcDa/kH54fYll0YXFVCOuNxuf/WhDxx7w4Yu+Ipkf7U/Hmv3vPiCAs0bE9eG4X+CrQZcI6wcSoGFbdC4DrA6lVhbeekiIMiEid48b2IH3j2O/edfi4M74QpNxZSD4PEvAlEZEdbSH77C/fK7j4cNpZPQcXextbycaocwTQtX4bunbLKHJZL3rs0Jn/5i5NybQr6KxDWZoC9cbS5FlqTYoszFhzevSd9KD7zk/9FA6/VHxBdsuGojNrSxTNhMQvD8NfGxiHDhkC3u1Nam7DHCGrvXFfh+pKtMTGaa02kw2dXb4UVXx203AfCAauobEs8GXEocXyMz1mnF52BvTRdPubFX/CXMAEq0o1d6x8/2isfu7sblt8W1Z1Lia3A06JKkgGSvX4OB5MB8PEcZqOEpUKBP9zcRLQmyAy9iWD6eQUKvm6S9HDKgYmvfpjw2Qsyp0r0JzSVqCAUCUsequhd8bx84u4++chRWtpnCHIllamW3hmCrjIfl/40VkemsD3jv373hJzpH5FQrBVJRiQDHYgCNqvlMGbrgIEkmY+1eSlBvjs/bXMkXMpds16bP16heVMBNeRWpvciUKXIyvVRyBIx9d8Cg90tsKfLDYzcykDZC4lLaZJUWT0SC4M26ZbCX1+xYoMpSkdzWFripg7AcBQfMEZJtFCZ3tx3Knl0Yz35yTt7sS+sV+I4H2otuUUTlhMXYMAY0KIdVTKIBFpxbg0kJ8jdiMUGIzxxK/rhcfM4Vt4BAI+Eg+KXDwLOz48WLhqD8TvVungVYPU+jU5+64Fe+Se/frv0RHDcKFY4ciDoei4zAO+P60/TpeXyd8SGLTaLEeI//O1pef3suBZQ7bmgLdVoNTYblhETlxDuXr+kjzptZzy5Oz1dfhpgDf6U6sBagrB4VIB2XjLA8+GpFEyDDEgU041IhFbVCGvUkBXDjXHmdeBONIRyNDjTG5TpP/zeMbllO8w+kuWA88NogdSKWZHroW5KS53HcRQjrtJD3YSFxGQKhouvDI5JFmr8BRj3cQREKS4BB2dM3iqVfq1nQ5D4MMWPQK7oxONqBIDRFOnxQEEtmcE8ELuvNSS/fu9OaFFCaAchYwQdn5qwnFe77Gy09DAfvk5RzHUiVw7mPQvPr//dq/KLdwahWZsAR8QTF+yQDZYx5CG/S5t+dMQH5mjqBua3Ln8dkL3COw6Q5BwLccB1rJSBU88nudwOrhyeVBRUaAMGtR1CYPqkUyS0DTcQE2LkX66MTMn9hzB1Wa5+CZNbo65uwpLF5PP8SBLGfYDEgGdJo7MS5dZoTW9msTwEmA8NqxYPERSBAW1OR6JQXnvq2Bb54t3bsAQcBQ+Dr0D0ohJaHYjmglBxHyeVyo9OX5fvvXRaxpJxyeA8oAJ0IUI4pIoW9im03bzOm54AYDxPh4QUS6GktICPsjVlg0Z1OLH1kAApFKPjkbKwd3Ba5GfvAZmh2skGdXVjDgVab1wEt4IdtE0UQAEgnPYQutZhACg82ABgPsrRwINhA1eCgEHH3g2OpW+VsOJ7JgqNSkw9j2yBCcGP7JetLYb0PFNXTS5qCzBVXMUEvJTZIJ6f4zCpCEbzkh/0T8nXf/S2XAdRyYMrymEXLOUGao0OdxthiwkWC6ndCllVcisM6fLw17EYcT08KAJbQbX+WhHDdKsTIOQquVB9CHpEUq7Fgyft5py5OqMC4oWir+fvdROWZDoHwe0wRrJpkBOqEdvyoyEfQWBPBnz7RSD8bW7nw1MFhIOMg0rlO/0dzFQniHN6YOf2joj8oyeOyu27WyFAxCmDiKgduRgeHi4xl4DLpHhnAO5YxqrHVFa+9pNTcvIijs3IgusBu84t9m6ELbVrMbI+uCws99Jbeaj1/OYDHqpnNaQfnrzpfmWbzldbhnU7lVT+CAhfujGlB9sXsFTsJTlfEuvyG1mOutz0bFbOXp+GXgM34pM1JLjKV/eZEJvAf9FvszsipyFo/ZBQGDISMK81OyEPH+yUT925U7qazUwFG47HnOrgWUzcQb5KPloIsPI42GsCR2X84LUr8vMzN2BZLYq2xMoTewDlJrgK2rZMCx80nj1WPrvc3H3RlaxSzLXrhVoWK7q4UpLDc1xeBBrONyZScmUI51vDANVGdXURFs4vR3Hew7Vx6K+Ajabaty0tEyyENpxHxpX1AzKWI7wFCX7rh4DCTzs2jGKHpuTLjx6RXe2Uf3COT7mK4ynY8/2uCvYXg1C7Fgd8wUDXK+9dlRvTE3qSYU43sGGQQDgk67tIZMovflTFSL1bOxfb3F+M4HkOBNgyUSxjJ7M53eCZgnhho7q6CEsaptkvDE7gUCjoJlJ4BQGUCbCKGLtR4dOQelXp6jXTZdiSA/OMEe4zj90v9x7cJs3QtuVUxdoAsOfyPiJ4NB13TmdKsZXo+95VJwXC2R4c9P3Mw0ekBToV5FRgBxCRIM6lkBHp6zqVChzrQg9/hsHzvBDgRl0cSoJ2+wfst5tMgYPcoK4uzJnB8sEb5wYwSlIpjoQFc3Fc3IRITUJl9AAsk34jySJS+rB6gwJwoWoVR3PSAQSuvNgA/ssoA0Lhn0SC+hOHD+3CvhUQcxAOlYF4H1UoiHXMAi41EUnCgm9cLLaLucF5NwpmebXiGM3Hbu2Uzx7dKR3QhQnrejRLQa6FlxdBIwc/jYIAocoVPC5pnxwaleGZ2UYlvebSITYt6MZhs+LUlRs6DSpgmZPCRJs1gpiQoBjf7kvHdZVNjqAEk89Vg0bRryKsRsPHsi0SDAPiYd+MO3Haz3rHBwbxX35mmzG1ZTCN4RGaf/ylB2RPS1qasYytBFAT5k8xZNEneGgMBEjw6UYmJmUIJ11Urqw1Jpebn0pdhGVgEnZCx2EmAQhnoybx2xCcSOyQ26rjT9IhqIW9+dVd5RJUVJuwqnT+jq8UwReAnR1rQjrK6Tem50AKMJN74aSUf5wk+Z0LWuan6bHtoKGC07sObU3IVz56XLZEsmYZTqdCbD+Xlrv7UwmelwoBrgpxA6IUoIM0jdWhwRkcAFcNK5aaw9qJ56cCVUuVw5LBNZjvG0rxwEoT5JUF9HBvY4KnrKZLfyGMiE+LTIEEQ91iI9bIh6mpPRLcQ9BZacZJZs88dqvctr1VqBnObHjp7lvNukEZI83AEQLoPxwtQMAL6YicvZaCGRKKEjaeW5CwpGB4+OzwlEzDIj+PfLA5vIeE3pzeeo3XCYro6dA0QM660IbgcxcjFMHm4FolFe+Ti2atwxYqwb4Yu/jg0qF+TEj2dMMw0JN3yBbYtIzAcj1t6dreL5eGCx/clw8BEBa2DWEMven3Ls/I6BQswG1AtyBhmYT+ysmrsMifww5XAECJCwiMEwS682WsV/DXENuP3L5esgFBuECV0KH9XdQ9u/sCsUuf5xAG/6daMKe/z/FFPdjs1IeBlTS8P3ysTx492oMT8igvo5IcNwt4Qnlf9OBx+RAg0S6AWyzA+t+V8VnsG0ouP9E1mMKChOXGeBLWzDMgKNjYQIEABH/sKdU6hhMgrsF63rQiOTjxvmjnybEWHW++CI7SYHWPVIZNuqsrJr/36aOQufCQdyw+Y/WPW/jnCuXnSzj4Vi8ESFzIs4wk2bcmce75krCj3uxuSrgFCcuVoaQMj6FsEDjZmoIrJ6Macjofh7PuPbgvEgKVVGhBfHMRLB9yibbQzHt5a5WVxNdQJCx8PdbXJZ+4fat04ixubhnQ1YvisnN5O5elFbwsCgLapJCxRDADmMBq6+lrIzKb3Xj6LMSYmo4at+ehxj+NeWAU+0uIru6iDMpv7YrIST8fztZMd7N9WDJMFKgEbCXEAGhyFOAscLo5Ji0MQJTlNSdwZeSyd6rG0XEH75ceuU0+dWw7jnSBOUpwNHowGb4FnKiCqGE/qsiIaWgGyo/kWCZnNp6cZV7CMgPNwLOUryTTEsOuZhq44TZ9GhWiog8Ji7sColId7xQuHpwYwk8r3LPGJE3wO/fR3f3fmAqIfh5LlRlYPePuLc5QjUdhk5Jc8D5v8+K7lccRl109rfKFx47JARwfEaNuCwiVk9JYZ2BhArccCGhzYlBgc3Hj5zAs941NbzxFuXkxb3QmLf0jMzTRDtbN1MmLQAVxMTu3AbIVYVL5UEEsqkGqmp9jOiqi+1LnmkJIBpI5+bNnP5AZbLmgFTmbAPlTZAq1U/ElqCSIgtxj+7fJJ47vkm6ZUENSbk+YmU2sLy1/usFzdQgUvHX/YZyK8MGV0eqB1rHvvITl0sisgGEBW+wx2MU5d6nGRGN3lXyDp0ZAoGo3BmvCTbFDOOb2T//uDfl/vvc6DAdBHQB2FCgvKXdIoUqblYcpvYVhLa67JSFffPSoHN+ewLFFSaRJk1AkWZxwzc2hFDt4qgcC5GDp9Ia2GU8W5P2r02ZIyj5tiN95CcspVHhkmqMhkBarBYvA0Q0BnGVXghTXOTxXIxSGYC7QwvcCZF2j0xn5uxNX5G9eviiXpyLy7Rcvyg2YTqSNlrm5VMu1ej5chGqCxei9W1rk6Uduly0w+kw7u3QUCgeEpTrcFuNbOQhPZcLy/kBaNtpO55qEhaYo34LFuOl0Egdpw7qYblSrH0kXA+wNH9ZPYCoqOx9EXTSGoayWlAn0Q14+MyR/+sN35dI0zpCBRf1fvn8dm0SnJIkpkfEtXmDm5YZIPs/rNBeEyMFAc0ieuP+IPHTrDkmAi2E5TP+C93kTCT4uEgJpyMguj2dlBLKWjeRqEhZu6T4DiXUyCx0WbjSEc0cj6ItuPqQQin+K83PuGm6z/1R0xEpYGSyrA8lFpWAWjAps1Bbknf5p+ebPPpQzg5iaRNsgRA9DHSAt3//FG1C2mlbL8jy/1y7mVrOJfZkyHJ3dqeKypSMm/+STd8nexCxU6XIQs9HuLg+ps5DBbwMggIYNY2VvbCYl1yc2lgC3JtZdHUvJEIw70XaE049oACg3XRLshyTLRpqXVn02Eo8APT0wK//pR6flxfPT0pxISAIHlXF1rgDDQS+fvCrPnhqQCXA0PBMREnclE5rvgsSAAUzTlsQjH2qWWDQm9x3skKdvb5bOcAYyAJ4GYNOipdUiiFUNAhS6TyRxbPElnL64gVxNwnJ+EAJBHNbkVPOJejzG08wk2HLZgvi6gQC1ElVxHAk7P3VFdM7hPF2GGNX4NwTk+/d/d1KexbQni2NAOTcq4OKxt5wATUqz/NVzp+XtSxOQtTAREhZrPZdU9Xt5K7pikDWJNeXk9z53h/Q1pUDEDBd4aBpJV3ms6ikHvgtDgKtts+m0nLgwsqFgWpOwvN0/LDM4R4jssaogg6gQmdy1MMiCEA4ClbTC+c93t+5rBGcSUtW/fuGCvP7+OZkCEmYwynGvOS8SJK7XpEJNOP52Wp5/9xrOf0Jszp3gNO95C8Cc6IgK1FGCagHHD9xzOAWxb0un/OEzn5BdONI1WphFetRnQvI0MFXXNEsTD35qQCAMwpKBIbW3+yfQbhtHUa4qYclAGe7EORhaBhKrcWUlLiAqGK04GJZdNQAWeBsEOMDzUtk3vObt4xrFOBTX3XM4puMXr1+Qbz/7pqQA+BCUTXJqMQ4dGwRHtWKRKFd0MvmY/Py1C/LcW9dBV3CgGfOu2RDMwV0MxJDe5UUi4YhGI/KxY9vkrt1N4IlSUPQFYWE8ZqjxGTdwS4UAdcGwJ1EmJlNyeXh6w0C0KmEZGJ2RS0NT0JfAWOj1DM7b9exg4JNT8SZaBm4eCFQAyOuv83T2Ulquy6czGXAqF2UQS8yTOIKFZihp2tDOcTbCwgR55C32Kkv/jaT88OVzMjwJTyJtKUk8GdEqERR/ARkSl3fTNNUHB6N3ROW3Pnm77O5qwdQrJlmo6sZweFew/FwG3CW9GN+Xlmx2BjK0KU+DeklJralIVQnL2YFJLDNjjg42zZCQ2MagPqxz1aBX4FYMApFIBDoOUN0HkcigDWyCQwJRIg8k9OzkPEk7k4vIW5dm5KfvDyO8F8i7GxnxExN+cG3K53KnyIHg2NUiDxzaJp+674g04fDxND7EQMiCpi+H11LeSFgIxySWnd+8PIk+V9k+S0n15sepSljevTKuS5taPDfv0ReHhCWUIhgYJHBVIFABlyWhDKYckSjOyuYERNuilI9rGk5RSVhoAZ5P/VMh+ebzF+XqGM1dIFcdIGyQMIFuRcHmIxEMiiQ6mqPy2Xt3yYMH2mGyBUfAII51iVJ5gqelQAAtV2iG5nQHBoRpzBKWhCVLyXhF41QlLK/hxMO0HqZErOJcnmWoRMYVLdfGStzAuLQ6Ia6zzs+JDRuMs9NKZ/IvcDIIMBtJyOkbs/Iczg7StRwlLlwlovocCQIdU3KXetT4YfvzCNaIHN0Vly8/uEO2QHgzQw4KQmT2g40yytYAwIp5s19lMXBkoISYQ3+7cGlIeCJGleZdsTKsVMLErDnu3Ss4yAoCJVIUsxIPlMazbTp0iE0/W0WohuhzEg08FAJEmsUgjiPnetwq4iqRATLqvZgQRj0osGWJoJpLDoe8p+Qb339VLo+BmJBZoYSQKzrI3aWpQRf6QR6c9JCAtEBp5mO378KB5nskhH1EFPK7IpC4BARmIWCWf9d+Q0E8LlB8yU3n5cpwakNwLVUJS1sTjvhgZctQcFHoWA7BTfzGUYn9mtdyXJGgIJFqLUFyQSPYKm9ROy0ZHPYekh9jlQjbvTBAsKmrxZy/VCy/RkPasNoCQS42KX78Npwh3YUd75hqQcAfEJT5YTjvVxBk24cF3jKaljZsp1h8K82bw035WJWwfPTIdiwz8hhVcCzkrR12Kddi5SS13QgAuClQX2Kmfng7LlHbgW2hrIMhJXUj6MYzMfmzH56QDwdTsFJGC4BMgQE1MO4LO8YgkpjNlojEcK7UsZ1tMAp1WJozY8hXWdsicQk4l4Vh6g9BlQDKxiKxrPTtCMvWrmYYOfeHWJ/PVQnLF+7ZKZ1tzTBRGMayIs6gQeWpz6Jat149baZOBOUVuNWEAPGuKu6B8KtwFh85DqZgTvTKtMi3nzuFg+A5bWFzV405b/EZS6dQwAcer9sej8in7tklj8JuSzwOrgV7kyi9ITlb5ERr3nw37kfrPayfwhZdqBWzhGc+ckgS0Bsid7reXVXCcue+Hvmjj++XHbDNEc9DSQpLYVzKNCLiiIm7r3cQrGz5iSL+7rxUlOEUp7IFmJZeaAqnDOf8WCuOBWkIXn/53jV5/9K4LluTp1kSs02WyCgMziAqyMGemPzG48ekswUCZWplM2OWRu98Dlx1CJCoxCQdhaIjCAilXommhDx6qE8+d9cBPZKlerz15VuVsMRBNX/rob3ya3dsl7amdiAoNp8BS6mYhVk8asgrcAtCwNFe3HXK4kVYTN9jEnTsuKqYiDufeblpkCNcSly8vLgTHapsCJiXc0MQ5P7sjFwcz2AfEVN0R3s4UqVZzPPjKgAxLjYk8moBG/vI7X3ysdv24LB6nOCg5Ar4oenPk1TwSWFk63MhiUVwNvfuTvnfnj4ifd0t6GMbA0BVCQur1tvWJP/yM7fJfYe3Shg7abniwOVKZeJ4GDzNJgRudSFAgoIcedVyxEte1MSNFmCrGLZr09hH9NNzOfnpO2OSgvYuNyiW8z94rcu5nIE2oahsaYnL7zxxh2xvT0CsC86Fsh1PvhMIdGsBNA8Rw5S04SDAFoBrf2er/K+fPiRHILfaSK4mYWEl921rkT/+9V1yeFcMS2IRZbeJPGV2WTYSNBpdl1UYfZiFCQDL76wKBwFyNlmYOxieKcizb1+SszdS4DcpyHVEop5CMkzpYkwOK+DmYVqhW7744CHZmvB2PyOcG3JIXGgzdzPLXdgGhIi7CHedVUIprrMlLH/05E554uiWDTMFAlqom5ewMMQ9B7vkTz69W3Y0pyQOJR5KsJVrUcR0yGmJBb81IOD1ydWCFvOh/lEOgtYMOAvyKC3pYXnjvQ/le6+el3EYR8cmAVWeM4JRo9xFb1dyqwh/mao7aeqfPblf7t/XCo3cWRAS+CJfJWt8hjML/0Q1xtzcjiqO2RBmAE15+UeP75YvPNQn8Q1o5mZBwhLF2tcTx3bJ//6526UDqwGhMNhoFdZxNFQU3tyYssjarwTEVLCLPmvjIjkE4xJIWHipnkQMAkNplefevCqvQ7M6i9AkOI5kzF8NIyilMKYDTM6VJKS3NSFffvxOuQUnKSZC3NHE1SMSFU6PyEk52Vx9uZXyWb9Pfg6lVAvjIAtYrXsaK2q//egt0oHp5EZ0CxIWLn21NcWwT+SgfOGRAzgQEfZAotgrgpjG4gaj0HyIoUJXBHDTg/nCNvQb9I9IYNg6SljwMBsJy5nhCfn7V07KTDIK4S5GT3wnganPWWrGebi0DQsePMxjQ/ZIJ0wrqFU7TL8YojQxqi+HDR0KA3E6kpW7DnTKv3nqsPSpzsrG7D8LEhY2dBjEpbstLn8EIdMjx/vA6SYgu41hrlhX9A2NK2u1ciRozrnOzcFgCjzGCzBh+V7/FM9/V6JC4rIwL8EEfYnyDXhhGFDAsSExefojB+WOvlbJpaGWruJcTp3JrSycuivrRruz7gZ/wAKc/t6esPzbpw7Knl6a/9y4/afumkUx2u3sbpV/+2v3yh1bOqQpzCVGsNqYKnE9fi7abTQUWQf10X7vn6KyQ1undkvVWbRZ/3hE/stPzuAUPsjLMJ2xHUb1dv7yllbiQkVKjMaHd3bJb3z8mGxri2IliuGopUFerd601wGMF1lEU9fHXvBwTjpbo/Kvnzgsj966Vc1PLDKpdRW8bsLCWsVBXO7bs0X+z89gzb0NS4wwXZgHQ+1Oy1tXNV+lwrJ7Ecja5333pWbv50SUWCAhRz5AUnxyL5+vysIgcMWmwSiOZZ3GgeTPnh2Sf3j/ClaHsUZEg1519X1HVFxtvFroa07acQ7RY3fsksdu2wZTDzzdYTOTFHJz5Niy4Piz0tYSkWce3C+/8+gRaYa0diNo186Hw4siLEwoAg7lk3fukt//2B7ZGotjvwjm6jh+Fcq5es2X2ab85vVvdlzXHd19qfDQDuslooJbsNg0dK7HtFC/yH8hExWygjOJg4DEsaqH4VPGYBDqGz96ToYncBIDiA0VIPG/JEqgzAn2EIWQ7o6eJvlXv3FcDrWZveR0mAOP7TRaan3XYzyTPBmhT4CQ3L+/V/7kU7eDqBBO67FGiyvzogkLk+e06B8/sVeeurNNtsPAchvMJ3LDYhZEh7hJtwlgZxWd75c9lQpjXodtNEz8BIbF4Codj2uxc6A4BfGITLGM1j60DJ/HkSFnBmBp7tVTODvKBL0sp2u/YpS6Hpiujs/gYnOyryMnz9zaDl52FgLjqJ5JZB2trsTWbSB/+xKOsyCqyWizHNq9Tf7dl+6R7Z0UH2wOtyTCQtC0YqXoD5+6Te66q1syca4EkKX22P4ixvtBvTkAOreWHlXxPiwFIpziVHPKBeGTU5AzSZcRCU5Py6eoECHCjwvEqvoP0p+SDvn/fvyGnB2dlZRH/5iVac26ctd7t8GEBIS48dtP3iG3QlDJ5eelkqtqdV4vfuwCVEzcu7VD/vgT0Kzt61gvRW9IOZdMWMjO7cYZv1wpOrJnG8R0MLSMDW9hbFqM5WHPBVbiQ1iv3/S8i5lYY28FA0ESMfdv/pbUnj5/kDq/mn4LDnlH43G1Zlaa5OJUQn70q7MymeQOZRQTHA94TzxhysRp07wXqREvymh4okPapl3hJtmxo11+98nj0hdOqeFtLmyTp1HLvCBwG9GRE9SBA6ul5OB3N+flXz2yU548tkNFCBuxzrXqtKwWjuIoijv3b5H/+TOHZSd2u3K+T54lAplL2FuKJrJuBsfJgJ/dR3dT5Kqn7o7UVAtLy3GV+24cp1IMrzorNs0p+rkHxGezcMnTyohnNAqfqdo/FWqX7/7ytJyEIedpTI/yWIMueNbmbDFaa4IUeAehKbsqv4Eg6fQPZxDFQvLr9x+Qu3d3SDMOKuKxIUqEUBjCaePhBYHKmhGGOC8h2ipffWCXfP7+vdKaMA1kAG/TuGURFkKJQPvoka3yL5/YIT1NENg53ZbQLBAUbDAFiZvNkZ3jpk0ltAt3IXZ96/7VAaVCVe8TiUI1Z0TNOmx5EC2EF4WhjMDQ1whNWK5NinznpQ9lgEfq4o9L0tRDKUB7tvyKVbyT++HFcPiGU57tHbWB/7aOuPwWpkS90IGSeDM42himzEgdl79U1eqz/vw82IMohzHgfvLoLvmdxw/Lls7mDb8CVK2tlk1YmGgnlKO+8pH98qW7e2GrAwdnQbibjYCohHnQNUe5zeW4lBgCYUH/RO9FF7JebHcPFPV0LBetFvT0u0dFHBejtomrZejL1/ELJDLc+5Xi8vPpEfkVlqCnM/xKIkELPCAa4EDLL/rZhdhMQS+YA/MIjCOosOODLw8d7cOxIbdKItGsMgcSlSgu8i0byxEONNIUlbt3tcn/9fRu2Q0lOK6ibkbXEMJCzdweGIX6N0/dhfNnmiWfiKvlceNVNhoCzYMmyqJAfkFkAnGl4mABqyJc3oUyAzqe40wcybC7f0LhOA/mQsjx3em3VuZsUxof3dJpD9JkOdxVGWnOu5XxCmy1fBdcy8UxbNnQdHzpIk55iet7J6fVCY72sw/skcMQXkawQ96I1JxCrFsPay/rRmGsAm1ra5f/4+nDcmh7M6zBNaR7rUvYNGzyF0FH2grbEv/uN++Q3//aObkwArYawqyIn49flyCqv9Dsy/9/e1cWHNdRRe/sm0bSaCRZ1mrt9ngLke04sRPHdrzEsZ2VkM1xkVDZyEYKklBJgBSk4JsvPvjgH6iCoig+WX4oKlVQBYEiH4RiScgGhMSytcyMOKd7nmcsa7E023szt1WjN/OWXk53n9d9+/a9lg58MgvdkP+cRyfFGXMaRxKIJQt8MYGkwfNF8nXudc7k4WJ13vqALzyz9IHPmWf4rxCJE9fST9izHHHwAT88G/72rf/K93/9V/ncoUlpw2jLdAsnIyWROPHyknPZOcfb7HkQFr7MQHemPx2Sazb3yF/+9bFMQ7DPO3gPV6e8G1AGvCjof5JjlTAmkK0wg/Dk0SHZDzMINJbWzAEa3ZXv+T9+/W15+QdvYO4+YxrPcnKBRgOeUwu+wfx4Mw9AZyGTDkprYAb9iI2wMG0wKyJ2enFRHmWmBhaNIlboqnwml5W33v+fvDm9IBcwuTAjkQJwdtm42EEdTdxSXEs7fOl55ztHEDZgyorEe9rCsqM3LqkAVonoN8SRmeEmls1Og/AMyuTL0yEa6bKYCpe0KZ+h+QSj15Sdh+nFqPzj3AL0ZqblkxnGi1TNc4WkPXcgahTS+owRLf7qhO3fu3d1ydfu2d30pMLqrAqxzM7n5Ns/+6N875fvyYfTnE9fqsvAZujplxWRWyoYQTVNBsDkIMoczZ/HDAgjN8MWnBpZcmHntOOBQofkknQhFLuoPTE/R1OQQewox/YJdNZKE4uTLo9mWI8OH0Q5gsgzc2VGYdytiF9cRzJLSiRKvo9wL492pMYYEMwPOwpiGXNYaYrH4sg7ZDZQP+Bj9AlOcvFScLAgmVMRMQjLfKTZWT9kR6FWuWGsVb57ZlK64d9aA+31VCFEQgH5LCTib7+fk5/+/gPsTWFDwnoDW1UjBy77Uo4CeUoW1HLOl0BHiqJT2ULnjEMxK2coJRY2VN5SXEBjx8VvxIUxthGwmq66DHxO/ExlMTHZlFf/b0dUyDtssM6BAGdBCvYcpmpmzlIgFSOMB8U4pLKoTk05kE9nNOXDVoNzyGAAcRo9D1zzHqmAQgywJFfkH9hwCkml0BA+O3oj8tod45Juja0OdJPcURViIXYpbFJ8/PiI/HvmgvzizQ/gjY97Rxjwtoa7zkvecvZCQ/w37c8owqGTwgg51AVBGDhLwoHyIP+c6YTj3dApuNMp+ZsN2MSFI93B5+liw4wceLXygW9fktcCld1st8F/Lk0jx9wIZq7iUBg1kVgY7MjFfLX/WFTEZZXF+Dw+IB+nS1Zh5l2SeDW+mloxEVvDZiBa1GUOVuDoFme4u0WePTIkYzDj2qwrQEuhXjViIcjDPS3y2JFxee+jC/Lnf76LRsaGGEFTw7JcgVmcN8FSmfPmOb6SSSochYBEyBAInA2RUqwchmfY6S4PvO/ygM6OC7xknlnynsufWtsZG6nPEAtToeAdRTGE4uQUR1NhoA5zu82TyZiTWKEALCefJsnwaD/OTV47msLaUgACvic4teuCfs7Z6wflwOZOiYVIyxocBKoiY3Ei53F6Jis//8M78uoPfyfvfDSNBompgZmBOY0VjXPp3lQajee+g1qQZ3Yr+2YvFsApd/HM6t9swzYDH3xdHIPz2961emwr3oHIbN5XvMtcdEhz6Tsrkpulo67xWdIn+dTaHrJTIDgmkPuuGZCnj2VgCS5a4xy5P7mq0yw9vO3P9Mj9ByagJBVHBUXwcbqC+wFabw5NY7yMVBgbO9xaPzYXNUENWTMCWbDGaseVy2Hz3Aj/OVq0IzCQC2RFUUxN9w345HFsLmymHctrqcuqEwsz054Iy5n9I3ILDAgHaHnOCDltNu1UaC1Zbt57ObBbilwcmmpeZKpbck5radOG2FPJb3NHWF69e5/0pZPGbGt1U/dm7DUhFkJDm7lfviMjE0NY5ghhgoBa4moDl2L5XYMi4FYEODWkvAwNVtphEuLVe6ZkaEM7SKZm3cet0Cybr5ohQ7V/rvF/694t0jYI558QdlGVwb4Nls2fXlAE6o4ALfcuQJdoQyIqLx4ekj0TPXCN2tyatatVSs2IhRnBpk9s0ErLa8e2S1c8DsNQ2Ki2WLa5Wo71uiJQQwQ4zcxhZB2Gg7GjmaTcu2/QaNY2gZiwLJRrSixU+KJB7iPwQfPwPphZSIYhDKMbOJ0LlVWL+nCVELDSqyhm77uHk/LkiS1GXqiksjrcNSUWJzvtsaA8uH9Ijl6Vkni8oOkAbuHeEgalGQcpPdYLAepZUXs4iCnPNuzM/uLxrVCGay7zkuVgXxdiYYZ74AXukYOjsnsoiu3lWCiCENdsWsPrwFGeK6dg+qwisFYE+ELjypsfpELlQEpR+lNReezQuEwNd6pm7RoArRuxcFo0CQdXVDAaTAWg+J6VCEwNcFHPWvvXccsa6lFvrQACJBVDKEbzb0GS8AX0CLxRHN66QXcsrxHfuhEL88nluqlROEA7vVW6YL+ifQabFfE3h1eFLkGvsSb19jIRgNoDNkxm4b5k3p+Fj/Kc3LZ3QE7CZm2jOm4vE7AVH68rsTBnUeyEvj7TJ2dv2i5zsGkRgFZjOIe9o3h7GGkLhqU6NSIWGqqLAEbIxvYMN8gGZe9Ylzxx0wTs9qq6/npwrzuxcEqUhDD3zI39eEMMiT8Yx1sDYnjYCwjkoliOZsVytlv3rK4HX33GAwiYd5jJJ/ad44023BWUV+/KwOhVVDVr11l/ruit3AlNMwvP3JKR7f0J4zqCO6ADOVh1h6FnH8wsaFAEqoEASSWLKTmcQYJE5qUlkpdXbs3IeE8bVoRUzrdezF1BLMx8EOQy2Anr5qcnZKjdB2v/sDznpw0SmD80f+stoj6nCKyMgLFdCxJpaYHf6WNb5KbtAxIJ0ceyEsvKyC1/1TXEwixy5LIPynPPHRnBMBSCtNCczOGz4L/UtOXyxdErisD6EGiJRkAoPXLfdSMSbRLH7etD6sqechWxMMt0OH96akhum9ogCbxBZiFvyUNK72xbv7Ji6V2KwMoI0AocbYHS+FYcbjqmBpLy/M1bIKxtHsftKyNU3lXXEQuL0wId6ocPbZHDmUHIW1qh9g+jzUWDsOWVWJ9uagSo5210vckrNHgO/amdENa+eHxUNnUmmhqbShbelcTCAvamEvLE4T7ZPxyGvTldFapkpTdrXCQUuh3hJwAH9lG4VulNLMijh0dlz2i3ylQq2DBcSywsY6YvIc8d7ZNRqP/787pZsYL13pRR0crwHPb+UBGuJfuJdEJf5eHDGBlfNSABXQGqaJtwNbGEUNlTI9TM3SKd2KzomEK02xYrioNG1gQILIBQBH6eAvAJFIOO1KG9o3Ly2lGJw3iThsoi4GpiYVFj8DJ/w7YeOXtwg/gj57CnaA5Kc1kMZ6mBoMuBlW0OjRUbzZ4Wld+gvQD7P4F8BPoqcdm9rU+eODEJX0CqBFeNWnc9sdDyXGssLA8e2Cyndw5KHDZH4fqqQCmlzaYa8GicXkaArSOPvT85uOqg8zUfVhfDsAQ3CrOSj5+Gdf2OmCrBVamCXU8sLDf1W9LJOGxi7JTJwS6sFNGNJXwTVQkUjbYxELAmEDCupfF2tBY/1PW7W/3y1LFh2bmpA0pwqtFdrZr2BLGw8NTMHe9tlS9A3TpN/7h481ALQYMisBwCNIEQyQYlBPe+dGybisbkgev65dY9/bBZq6+l5XCrxHnP9cwbJ9Py6MEeaW+BdB/DWxso79dpUSUahNfjKNIFRin4QWPtAte0lM8enEjLQzDaRCVMVdevbk07PbO6qVQwdj9GLvffMCq3T3VISxCq/j7YzsCeoqDRT6hgQhqV5xAwpiSx8GNdw9K5mE9mQvB6HfLJ7rF2eeH2rdKWUM3aWlSs54iFoESxQexJbBY7ubMbQ1q+mXIYvVA7V0cttWg07kuD9mnh8QEfHgNc/eFABd85lt3cG5fPHx2X3rRq1taq7jxJLNzm0dkKm7lHMrJzqA9rinGZwWqRNWlZK+g0HTchkEObmIUslh+8YmBuAyOXfFB60U6egivU3cZmrSebu5tgvuK8eBZpjlTGNybluRPD0tedwrA3Bl/DQSP9v+LS640NgwBNmc6jNWdxpCe8eQhso61ByFSGYbO2VxK02K6hZgh4lliIUCwckF0j7fIsvNP1tKBFQWfBZ6ZFsODCBqahaRBgdQcgqA0vQFclj+EKNLUPXZ2UO7EC1AH3vhpqi4CniYVQtULcf+vVG+WeXR2SgM1cvyEWDodtUH4pANHgB2pih2ArOc4Pan/vWEpegS+gHtWsrUvNe55YKG9pi4fl6ePb5OBYWqKBmJlbGyfeughdl0ZV+0QptF/ALngETIG6+trla6cy0tcWN8L92udHU/Q8sbAKqfbfDofdX7ljSkbS3ZJcCJu3Vw6bzhw3Itbqv1Z4oyLAEWoWqvuJDWk5c2pYtg93KKnUsbIbgliIH9X+RyDM/epdA3CAdgFkM4t3GJcbubPI6jbUEWdNuioI2JEKo84GguJPheXUnpQ8cPUmo6ldlSQ10itCoGGIhaUlgeydhMP545PSnYpjNyss/UOXIYRVArMbWq3QXVGj8MRNqEsflCODMIEQzeWkA4L7Y2Mt8syhSd0D5IIKbChiIZ6RkF9u2bVJTsJ4T1sE8pYcLNBhkSC4kMNRRbkuaHMVyYLx3ABBPUemEZDM7t6YvHBzRjqTsYrEr5GUh0DDEQvhoLzl7I2j1ucuhLmQwhgbLrH5AI5KLuU1mfo/zZ3KOV9I5n1hyWEKPNyXlEdPZGRTV9LI2+qfQ81BQxILV4qGuhPyyOEB2T4YlTz0u3MoqZ0S2SmTVr3XESC5BKUt1SFnj4zLLriNoS8gDe5AoCGJhdDSzEJmIC4v3tYnG7t88nEoJDPhGWPvVHcUuaPxrTUXVHq0A07KzHKSwrT3gWtH5OiOfrjpVfOSa8Wzmvc3LLEQtBgcT+3EsuNTx8dlIZmQ6egM9hOp87NqNqjqxM1XAVUH8jIfpN3anIBT5MhEqzy0b0DSCSWV6uC+/lgbmlgISzIWkVO7xuTMblie05Hy+ltKPZ7kKh5Xf6A4wCU/Oq0L5ufgfve87NgYlJfv3CndbTG1rVKPulklzYYnFpa/JRqUl45vkX0j2IwGoZ//4kYiNljbeC85siFrqD8CUBWAsR247PDLLEYqQewDSs/NSX/SL9+4Z0p6O1qM/lL9M6o5WIxAUxALNXNTWCn6+p27ZAwGlCOQvxTXhuwwezEwtf7N/DifWqTtpFXEoXqplqa1nvQC0EMKYWOhzzcjLW0Ref62/bJjE0agal6yepVWZsxNQSzEiJq5Yz1t8vJntktfCsNnu7MEYxPuhCa5lH7KRLXMx9fT+cpM0mWPG5+FqBEcAQbx8OfDUCNIyV3XwQzC9o0SDsKYOpf/NLgSgaYhFqLPlaKp8S558MZh6UnCv4xptTQLZK3P8af9WLIh4RTPOdcqcCxpCuway3WPSqVdkpxJa6n0DK1eLH8ZZSxJbF1lI5nQpS5s65j6QcbyWFaOReJyw0Qf/Ettlda4CmtLYHbl16YiFtZAAmYW7rimX05+qkfasEQZoK1cNGX7h/aMe4rkUvjNcxX8IKpVQzXSW4pQnIyYMuNHuekuy5JOQoXjsunAQDoNdtH6WyRL3SOfhIIRuOtolyeOjclGemjQ4HoEmo5YWCNdbdDMPbRJroGB5RjlLWjlZuXhkm7l+rpr4AzCdi32eQVRL0HUTF97SB6DMa8MNGx19uONam9KYmHVjGxIyDMnJmRTZyt+RUEpNYRiiaEDzTo4n1o0HSetWtgfZxorp4cbMB214yWu0mWhr5KTc1BqjCXz8qWbB+UA3L7QbYcGbyDQtDXFlaJtgx3yyqevhq5LghoSoBbqTOCDdu5z5gaXjGLYAcr/mGkXEjEyHMR38Te/mZ5uMlCRtJhfKysqHPH74jl+t4WtXFql6fG787v0u1NGnLN6KthMKPzAJzd8cwtWf2aDs/JxNCAPHBiQmyCsjUPZUYN3EIA/J+Nd3Ts5rmBOWfLp2az86PW/yTd/8oZ8eD4LA2Sw34ILnBrZTl6ZBE13doSjiJK/S8Mlgk72N1w0fb70pjV8d9KjCvzitBjNZek5aa4hjdJbycNmzLFMeqVvMIdXnHNEmxtFGXyQeflgAoHbfu7cMyEvndqMHct05M57NHgFgaYmFlZSHiRyHuTyp7c/ku/86u/ym3enZf4cTCzMc/RSuWA6OtND/3G+L47dSc8hFE4fnHOL713pN+NnYGenpQjntz1b/O/EbdIppOWcK961+jcnfpPWMuk58fJoyleSniUWW9YodPWH0mG5/7puObB1AEvMMHsBOZgGbyHQ9MTC6uKgLQslrA/Pzcm7n8zKhZmsVcStcF2aDrhMxytNynSjQm8tp0sxCpLLasGMIHDTFdy6YlQXZ48r3LVy2WBlH/op6WRYulrD2OsVUmHtCli6+ZISi5trR/OmCHgUAWea69Hsa7YVAUXAjQgosbixVjRPioDHEVBi8XgFavYVATcioMTixlrRPCkCHkdAicXjFajZVwTciIASixtrRfOkCHgcASUWj1egZl8RcCMCSixurBXNkyLgcQSUWDxegZp9RcCNCCixuLFWNE+KgMcRUGLxeAVq9hUBNyKgxOLGWtE8KQIeR0CJxeMVqNlXBNyIwP8BzvJRdhEhxIwAAAAASUVORK5CYII=;" vertex="1" parent="1">
          <mxGeometry x="515" y="43" width="27.12" height="24" as="geometry" />
        </mxCell>
      </root>
    </mxGraphModel>
  </diagram>
</mxfile>
